<svg width="157" height="119" viewBox="0 0 157 119" fill="none" xmlns="http://www.w3.org/2000/svg">
<path d="M8.73295 2.5H7.85227C7.80019 2.24669 7.70904 2.02415 7.57884 1.83239C7.45099 1.64062 7.29474 1.47964 7.11009 1.34943C6.92779 1.21686 6.72538 1.11742 6.50284 1.05114C6.2803 0.984848 6.0483 0.951704 5.80682 0.951704C5.36648 0.951704 4.96757 1.06297 4.61009 1.28551C4.25497 1.50805 3.97206 1.83594 3.76136 2.26918C3.55303 2.70241 3.44886 3.2339 3.44886 3.86364C3.44886 4.49337 3.55303 5.02486 3.76136 5.4581C3.97206 5.89134 4.25497 6.21922 4.61009 6.44176C4.96757 6.6643 5.36648 6.77557 5.80682 6.77557C6.0483 6.77557 6.2803 6.74242 6.50284 6.67614C6.72538 6.60985 6.92779 6.5116 7.11009 6.38139C7.29474 6.24882 7.45099 6.08665 7.57884 5.89489C7.70904 5.70076 7.80019 5.47822 7.85227 5.22727H8.73295C8.66667 5.59896 8.54593 5.93158 8.37074 6.22514C8.19555 6.5187 7.97775 6.76847 7.71733 6.97443C7.45691 7.17803 7.16454 7.3331 6.8402 7.43963C6.51823 7.54616 6.17377 7.59943 5.80682 7.59943C5.18655 7.59943 4.63494 7.44792 4.15199 7.14489C3.66903 6.84186 3.28906 6.41098 3.01207 5.85227C2.73509 5.29356 2.59659 4.63068 2.59659 3.86364C2.59659 3.09659 2.73509 2.43371 3.01207 1.875C3.28906 1.31629 3.66903 0.885417 4.15199 0.582386C4.63494 0.279356 5.18655 0.127841 5.80682 0.127841C6.17377 0.127841 6.51823 0.181108 6.8402 0.287642C7.16454 0.394176 7.45691 0.550426 7.71733 0.756392C7.97775 0.95999 8.19555 1.20857 8.37074 1.50213C8.54593 1.79332 8.66667 2.12595 8.73295 2.5ZM12.2583 7.61364C11.7659 7.61364 11.3339 7.49645 10.9622 7.26207C10.5929 7.0277 10.304 6.69981 10.0957 6.27841C9.88974 5.85701 9.78675 5.36458 9.78675 4.80114C9.78675 4.23295 9.88974 3.73698 10.0957 3.31321C10.304 2.88944 10.5929 2.56037 10.9622 2.32599C11.3339 2.09162 11.7659 1.97443 12.2583 1.97443C12.7508 1.97443 13.1816 2.09162 13.551 2.32599C13.9226 2.56037 14.2115 2.88944 14.4174 3.31321C14.6258 3.73698 14.7299 4.23295 14.7299 4.80114C14.7299 5.36458 14.6258 5.85701 14.4174 6.27841C14.2115 6.69981 13.9226 7.0277 13.551 7.26207C13.1816 7.49645 12.7508 7.61364 12.2583 7.61364ZM12.2583 6.8608C12.6324 6.8608 12.9402 6.76491 13.1816 6.57315C13.4231 6.38139 13.6019 6.12926 13.7179 5.81676C13.8339 5.50426 13.8919 5.16572 13.8919 4.80114C13.8919 4.43655 13.8339 4.09683 13.7179 3.78196C13.6019 3.46709 13.4231 3.21259 13.1816 3.01847C12.9402 2.82434 12.6324 2.72727 12.2583 2.72727C11.8843 2.72727 11.5765 2.82434 11.335 3.01847C11.0936 3.21259 10.9148 3.46709 10.7988 3.78196C10.6828 4.09683 10.6248 4.43655 10.6248 4.80114C10.6248 5.16572 10.6828 5.50426 10.7988 5.81676C10.9148 6.12926 11.0936 6.38139 11.335 6.57315C11.5765 6.76491 11.8843 6.8608 12.2583 6.8608ZM16.8473 4.21875V7.5H16.0092V2.04545H16.8189V2.89773H16.8899C17.0178 2.62074 17.2119 2.3982 17.4723 2.23011C17.7327 2.05966 18.0689 1.97443 18.4808 1.97443C18.8501 1.97443 19.1733 2.05019 19.4503 2.2017C19.7273 2.35085 19.9427 2.57812 20.0966 2.88352C20.2505 3.18655 20.3274 3.57008 20.3274 4.03409V7.5H19.4893V4.09091C19.4893 3.66241 19.3781 3.3286 19.1555 3.08949C18.933 2.84801 18.6276 2.72727 18.2393 2.72727C17.9718 2.72727 17.7327 2.78527 17.522 2.90128C17.3137 3.01728 17.1491 3.18655 17.0284 3.40909C16.9077 3.63163 16.8473 3.90152 16.8473 4.21875ZM23.9185 7.61364C23.464 7.61364 23.0627 7.49882 22.7147 7.26918C22.3667 7.03717 22.0944 6.71046 21.8979 6.28906C21.7014 5.86529 21.6032 5.36458 21.6032 4.78693C21.6032 4.21402 21.7014 3.71686 21.8979 3.29545C22.0944 2.87405 22.3678 2.54853 22.7182 2.31889C23.0686 2.08925 23.4734 1.97443 23.9327 1.97443C24.2878 1.97443 24.5684 2.03362 24.7743 2.15199C24.9827 2.26799 25.1413 2.40057 25.2502 2.54972C25.3614 2.6965 25.4479 2.81723 25.5094 2.91193H25.5804V0.227273H26.4185V7.5H25.6088V6.66193H25.5094C25.4479 6.76136 25.3603 6.88684 25.2466 7.03835C25.133 7.1875 24.9708 7.32126 24.7601 7.43963C24.5494 7.55563 24.2689 7.61364 23.9185 7.61364ZM24.0321 6.8608C24.3683 6.8608 24.6524 6.7732 24.8844 6.59801C25.1164 6.42045 25.2928 6.17543 25.4135 5.86293C25.5343 5.54806 25.5946 5.18466 25.5946 4.77273C25.5946 4.36553 25.5355 4.00923 25.4171 3.70384C25.2987 3.39607 25.1235 3.15696 24.8915 2.98651C24.6595 2.81368 24.373 2.72727 24.0321 2.72727C23.677 2.72727 23.3811 2.81842 23.1444 3.00071C22.91 3.18063 22.7336 3.42566 22.6152 3.7358C22.4992 4.04356 22.4412 4.3892 22.4412 4.77273C22.4412 5.16098 22.5004 5.51373 22.6188 5.83097C22.7395 6.14583 22.9171 6.39678 23.1515 6.58381C23.3882 6.76847 23.6818 6.8608 24.0321 6.8608ZM28.0698 7.5V2.04545H28.9078V7.5H28.0698ZM28.4959 1.13636C28.3326 1.13636 28.1917 1.08073 28.0733 0.96946C27.9573 0.858191 27.8993 0.724432 27.8993 0.568182C27.8993 0.411932 27.9573 0.278172 28.0733 0.166903C28.1917 0.0556344 28.3326 0 28.4959 0C28.6593 0 28.7989 0.0556344 28.915 0.166903C29.0333 0.278172 29.0925 0.411932 29.0925 0.568182C29.0925 0.724432 29.0333 0.858191 28.915 0.96946C28.7989 1.08073 28.6593 1.13636 28.4959 1.13636ZM32.815 2.04545V2.75568H29.9883V2.04545H32.815ZM30.8121 0.738636H31.6502V5.9375C31.6502 6.17424 31.6845 6.3518 31.7532 6.47017C31.8242 6.58617 31.9142 6.6643 32.0231 6.70455C32.1344 6.74242 32.2515 6.76136 32.3746 6.76136C32.467 6.76136 32.5427 6.75663 32.6019 6.74716C32.6611 6.73532 32.7085 6.72585 32.744 6.71875L32.9144 7.47159C32.8576 7.4929 32.7783 7.5142 32.6765 7.53551C32.5747 7.55919 32.4457 7.57102 32.2894 7.57102C32.0527 7.57102 31.8207 7.52012 31.5934 7.41832C31.3685 7.31652 31.1815 7.16146 31.0323 6.95312C30.8855 6.74479 30.8121 6.48201 30.8121 6.16477V0.738636ZM34.0756 7.5V2.04545H34.9137V7.5H34.0756ZM34.5018 1.13636C34.3384 1.13636 34.1976 1.08073 34.0792 0.96946C33.9632 0.858191 33.9052 0.724432 33.9052 0.568182C33.9052 0.411932 33.9632 0.278172 34.0792 0.166903C34.1976 0.0556344 34.3384 0 34.5018 0C34.6651 0 34.8048 0.0556344 34.9208 0.166903C35.0392 0.278172 35.0984 0.411932 35.0984 0.568182C35.0984 0.724432 35.0392 0.858191 34.9208 0.96946C34.8048 1.08073 34.6651 1.13636 34.5018 1.13636ZM38.6646 7.61364C38.1722 7.61364 37.7401 7.49645 37.3684 7.26207C36.9991 7.0277 36.7103 6.69981 36.502 6.27841C36.296 5.85701 36.193 5.36458 36.193 4.80114C36.193 4.23295 36.296 3.73698 36.502 3.31321C36.7103 2.88944 36.9991 2.56037 37.3684 2.32599C37.7401 2.09162 38.1722 1.97443 38.6646 1.97443C39.157 1.97443 39.5879 2.09162 39.9572 2.32599C40.3289 2.56037 40.6177 2.88944 40.8237 3.31321C41.032 3.73698 41.1362 4.23295 41.1362 4.80114C41.1362 5.36458 41.032 5.85701 40.8237 6.27841C40.6177 6.69981 40.3289 7.0277 39.9572 7.26207C39.5879 7.49645 39.157 7.61364 38.6646 7.61364ZM38.6646 6.8608C39.0386 6.8608 39.3464 6.76491 39.5879 6.57315C39.8294 6.38139 40.0081 6.12926 40.1241 5.81676C40.2401 5.50426 40.2981 5.16572 40.2981 4.80114C40.2981 4.43655 40.2401 4.09683 40.1241 3.78196C40.0081 3.46709 39.8294 3.21259 39.5879 3.01847C39.3464 2.82434 39.0386 2.72727 38.6646 2.72727C38.2905 2.72727 37.9828 2.82434 37.7413 3.01847C37.4998 3.21259 37.3211 3.46709 37.2051 3.78196C37.0891 4.09683 37.0311 4.43655 37.0311 4.80114C37.0311 5.16572 37.0891 5.50426 37.2051 5.81676C37.3211 6.12926 37.4998 6.38139 37.7413 6.57315C37.9828 6.76491 38.2905 6.8608 38.6646 6.8608ZM43.2536 4.21875V7.5H42.4155V2.04545H43.2251V2.89773H43.2962C43.424 2.62074 43.6181 2.3982 43.8786 2.23011C44.139 2.05966 44.4751 1.97443 44.8871 1.97443C45.2564 1.97443 45.5795 2.05019 45.8565 2.2017C46.1335 2.35085 46.349 2.57812 46.5028 2.88352C46.6567 3.18655 46.7337 3.57008 46.7337 4.03409V7.5H45.8956V4.09091C45.8956 3.66241 45.7843 3.3286 45.5618 3.08949C45.3393 2.84801 45.0339 2.72727 44.6456 2.72727C44.3781 2.72727 44.139 2.78527 43.9283 2.90128C43.7199 3.01728 43.5554 3.18655 43.4347 3.40909C43.3139 3.63163 43.2536 3.90152 43.2536 4.21875Z" fill="black"/>
<path d="M32.858 25.0455C32.8153 24.6856 32.6425 24.4062 32.3395 24.2074C32.0365 24.0085 31.6648 23.9091 31.2244 23.9091C30.9025 23.9091 30.6207 23.9612 30.3793 24.0653C30.1402 24.1695 29.9531 24.3127 29.8182 24.495C29.6856 24.6773 29.6193 24.8845 29.6193 25.1165C29.6193 25.3106 29.6655 25.4775 29.7578 25.6172C29.8525 25.7545 29.9732 25.8693 30.12 25.9616C30.2668 26.0516 30.4207 26.1262 30.5817 26.1854C30.7427 26.2422 30.8906 26.2884 31.0256 26.3239L31.7642 26.5227C31.9536 26.5724 32.1643 26.6411 32.3963 26.7287C32.6307 26.8163 32.8544 26.9358 33.0675 27.0874C33.2829 27.2365 33.4605 27.4283 33.6001 27.6626C33.7398 27.897 33.8097 28.1847 33.8097 28.5256C33.8097 28.9186 33.7067 29.2737 33.5007 29.5909C33.2971 29.9081 32.9988 30.1603 32.6058 30.3473C32.2152 30.5343 31.7405 30.6278 31.1818 30.6278C30.661 30.6278 30.21 30.5438 29.8288 30.3757C29.45 30.2076 29.1518 29.9732 28.9339 29.6726C28.7185 29.3719 28.5966 29.0227 28.5682 28.625H29.4773C29.5009 28.8996 29.5933 29.1269 29.7543 29.3068C29.9176 29.4844 30.1236 29.617 30.3722 29.7045C30.6231 29.7898 30.893 29.8324 31.1818 29.8324C31.518 29.8324 31.8198 29.7779 32.0874 29.669C32.3549 29.5578 32.5668 29.4039 32.723 29.2074C32.8793 29.0085 32.9574 28.7765 32.9574 28.5114C32.9574 28.2699 32.8899 28.0734 32.755 27.9219C32.62 27.7704 32.4425 27.6473 32.2223 27.5526C32.0021 27.4579 31.7642 27.375 31.5085 27.304L30.6136 27.0483C30.0455 26.8849 29.5956 26.6518 29.2642 26.3487C28.9328 26.0457 28.767 25.6491 28.767 25.1591C28.767 24.7519 28.8771 24.3968 29.0973 24.0938C29.3198 23.7884 29.6181 23.5516 29.9922 23.3835C30.3686 23.2131 30.7888 23.1278 31.2528 23.1278C31.7216 23.1278 32.1383 23.2119 32.5028 23.38C32.8674 23.5457 33.1563 23.773 33.3693 24.0618C33.5848 24.3506 33.6984 24.6785 33.7102 25.0455H32.858ZM37.4309 30.6136C36.9054 30.6136 36.452 30.4976 36.0708 30.2656C35.6921 30.0312 35.3997 29.7045 35.1937 29.2855C34.9901 28.8641 34.8883 28.3741 34.8883 27.8153C34.8883 27.2566 34.9901 26.7642 35.1937 26.3381C35.3997 25.9096 35.6861 25.5758 36.0531 25.3366C36.4224 25.0952 36.8533 24.9744 37.3457 24.9744C37.6298 24.9744 37.9103 25.0218 38.1873 25.1165C38.4643 25.2112 38.7164 25.3651 38.9437 25.5781C39.171 25.7888 39.3521 26.0682 39.487 26.4162C39.622 26.7642 39.6895 27.1927 39.6895 27.7017V28.0568H35.4849V27.3324H38.8372C38.8372 27.0246 38.7756 26.75 38.6525 26.5085C38.5318 26.267 38.359 26.0765 38.1341 25.9368C37.9115 25.7971 37.6487 25.7273 37.3457 25.7273C37.0119 25.7273 36.7231 25.8101 36.4792 25.9759C36.2377 26.1392 36.0519 26.3523 35.9217 26.6151C35.7915 26.8778 35.7264 27.1596 35.7264 27.4602V27.9432C35.7264 28.3551 35.7974 28.7043 35.9395 28.9908C36.0839 29.2749 36.2839 29.4915 36.5396 29.6406C36.7953 29.7874 37.0924 29.8608 37.4309 29.8608C37.6511 29.8608 37.85 29.83 38.0275 29.7685C38.2074 29.7045 38.3625 29.6098 38.4927 29.4844C38.6229 29.3565 38.7235 29.1979 38.7946 29.0085L39.6042 29.2358C39.519 29.5104 39.3758 29.7519 39.1745 29.9602C38.9733 30.1662 38.7247 30.3272 38.4288 30.4432C38.1329 30.5568 37.8002 30.6136 37.4309 30.6136ZM42.5694 30.6278C42.2238 30.6278 41.9101 30.5627 41.6284 30.4325C41.3467 30.3 41.1229 30.1094 40.9572 29.8608C40.7915 29.6098 40.7086 29.3068 40.7086 28.9517C40.7086 28.6392 40.7702 28.3859 40.8933 28.1918C41.0164 27.9953 41.1809 27.8414 41.3869 27.7301C41.5929 27.6188 41.8201 27.536 42.0687 27.4815C42.3197 27.4247 42.5718 27.3797 42.8251 27.3466C43.1565 27.304 43.4252 27.272 43.6312 27.2507C43.8395 27.227 43.9911 27.188 44.0858 27.1335C44.1828 27.0791 44.2314 26.9844 44.2314 26.8494V26.821C44.2314 26.4706 44.1355 26.1984 43.9437 26.0043C43.7543 25.8101 43.4667 25.7131 43.0808 25.7131C42.6807 25.7131 42.367 25.8007 42.1397 25.9759C41.9125 26.151 41.7527 26.3381 41.6603 26.5369L40.8649 26.2528C41.0069 25.9214 41.1963 25.6634 41.4331 25.4787C41.6722 25.2917 41.9326 25.1615 42.2143 25.0881C42.4984 25.0123 42.7778 24.9744 43.0524 24.9744C43.2276 24.9744 43.4288 24.9957 43.6561 25.0384C43.8857 25.0786 44.1071 25.1626 44.3201 25.2905C44.5356 25.4183 44.7143 25.6113 44.8564 25.8693C44.9984 26.1274 45.0694 26.473 45.0694 26.9062V30.5H44.2314V29.7614H44.1887C44.1319 29.8797 44.0372 30.0064 43.9047 30.1413C43.7721 30.2763 43.5957 30.3911 43.3755 30.4858C43.1554 30.5805 42.8867 30.6278 42.5694 30.6278ZM42.6973 29.875C43.0287 29.875 43.3081 29.8099 43.5353 29.6797C43.765 29.5495 43.9378 29.3814 44.0538 29.1754C44.1722 28.9695 44.2314 28.7528 44.2314 28.5256V27.7585C44.1958 27.8011 44.1177 27.8402 43.997 27.8757C43.8786 27.9089 43.7413 27.9384 43.585 27.9645C43.4312 27.9882 43.2808 28.0095 43.1341 28.0284C42.9896 28.045 42.8725 28.0592 42.7825 28.071C42.5647 28.0994 42.3611 28.1456 42.1717 28.2095C41.9847 28.2711 41.8332 28.3646 41.7172 28.4901C41.6035 28.6132 41.5467 28.7812 41.5467 28.9943C41.5467 29.2855 41.6544 29.5057 41.8699 29.6548C42.0877 29.8016 42.3635 29.875 42.6973 29.875ZM47.4371 23.2273V30.5H46.5991V23.2273H47.4371ZM51.2591 30.6136C50.7335 30.6136 50.2801 30.4976 49.899 30.2656C49.5202 30.0312 49.2278 29.7045 49.0218 29.2855C48.8182 28.8641 48.7164 28.3741 48.7164 27.8153C48.7164 27.2566 48.8182 26.7642 49.0218 26.3381C49.2278 25.9096 49.5143 25.5758 49.8812 25.3366C50.2505 25.0952 50.6814 24.9744 51.1738 24.9744C51.4579 24.9744 51.7385 25.0218 52.0154 25.1165C52.2924 25.2112 52.5446 25.3651 52.7718 25.5781C52.9991 25.7888 53.1802 26.0682 53.3152 26.4162C53.4501 26.7642 53.5176 27.1927 53.5176 27.7017V28.0568H49.313V27.3324H52.6653C52.6653 27.0246 52.6038 26.75 52.4806 26.5085C52.3599 26.267 52.1871 26.0765 51.9622 25.9368C51.7396 25.7971 51.4769 25.7273 51.1738 25.7273C50.84 25.7273 50.5512 25.8101 50.3074 25.9759C50.0659 26.1392 49.88 26.3523 49.7498 26.6151C49.6196 26.8778 49.5545 27.1596 49.5545 27.4602V27.9432C49.5545 28.3551 49.6255 28.7043 49.7676 28.9908C49.912 29.2749 50.112 29.4915 50.3677 29.6406C50.6234 29.7874 50.9205 29.8608 51.2591 29.8608C51.4792 29.8608 51.6781 29.83 51.8556 29.7685C52.0356 29.7045 52.1906 29.6098 52.3208 29.4844C52.4511 29.3565 52.5517 29.1979 52.6227 29.0085L53.4324 29.2358C53.3471 29.5104 53.2039 29.7519 53.0027 29.9602C52.8014 30.1662 52.5529 30.3272 52.2569 30.4432C51.961 30.5568 51.6284 30.6136 51.2591 30.6136ZM56.8521 30.6136C56.3975 30.6136 55.9963 30.4988 55.6483 30.2692C55.3002 30.0372 55.028 29.7105 54.8315 29.2891C54.635 28.8653 54.5368 28.3646 54.5368 27.7869C54.5368 27.214 54.635 26.7169 54.8315 26.2955C55.028 25.8741 55.3014 25.5485 55.6518 25.3189C56.0022 25.0893 56.407 24.9744 56.8663 24.9744C57.2214 24.9744 57.502 25.0336 57.7079 25.152C57.9163 25.268 58.0749 25.4006 58.1838 25.5497C58.295 25.6965 58.3815 25.8172 58.443 25.9119H58.514V23.2273H59.3521V30.5H58.5424V29.6619H58.443C58.3815 29.7614 58.2939 29.8868 58.1802 30.0384C58.0666 30.1875 57.9044 30.3213 57.6937 30.4396C57.483 30.5556 57.2025 30.6136 56.8521 30.6136ZM56.9657 29.8608C57.3019 29.8608 57.586 29.7732 57.818 29.598C58.05 29.4205 58.2264 29.1754 58.3471 28.8629C58.4679 28.5481 58.5282 28.1847 58.5282 27.7727C58.5282 27.3655 58.469 27.0092 58.3507 26.7038C58.2323 26.3961 58.0571 26.157 57.8251 25.9865C57.5931 25.8137 57.3066 25.7273 56.9657 25.7273C56.6106 25.7273 56.3147 25.8184 56.0779 26.0007C55.8436 26.1806 55.6672 26.4257 55.5488 26.7358C55.4328 27.0436 55.3748 27.3892 55.3748 27.7727C55.3748 28.161 55.434 28.5137 55.5524 28.831C55.6731 29.1458 55.8507 29.3968 56.085 29.5838C56.3218 29.7685 56.6154 29.8608 56.9657 29.8608Z" fill="black"/>
<rect x="2.5" y="21" width="18" height="14" fill="white" stroke="black"/>
<path d="M31.125 50.5H28.8807V43.2273H31.2244C31.9299 43.2273 32.5336 43.3729 33.0355 43.6641C33.5374 43.9529 33.9221 44.3684 34.1896 44.9105C34.4571 45.4503 34.5909 46.0966 34.5909 46.8494C34.5909 47.607 34.456 48.2592 34.1861 48.8061C33.9162 49.3506 33.5232 49.7696 33.0071 50.0632C32.491 50.3544 31.8636 50.5 31.125 50.5ZM29.7614 49.7188H31.0682C31.6695 49.7188 32.1679 49.6027 32.5632 49.3707C32.9586 49.1387 33.2533 48.8085 33.4474 48.38C33.6416 47.9515 33.7386 47.4413 33.7386 46.8494C33.7386 46.2623 33.6428 45.7569 33.451 45.3331C33.2592 44.907 32.9728 44.5803 32.5916 44.353C32.2105 44.1233 31.7358 44.0085 31.1676 44.0085H29.7614V49.7188ZM38.2415 50.6136C37.7159 50.6136 37.2625 50.4976 36.8814 50.2656C36.5026 50.0312 36.2102 49.7045 36.0043 49.2855C35.8007 48.8641 35.6989 48.3741 35.6989 47.8153C35.6989 47.2566 35.8007 46.7642 36.0043 46.3381C36.2102 45.9096 36.4967 45.5758 36.8636 45.3366C37.233 45.0952 37.6638 44.9744 38.1562 44.9744C38.4403 44.9744 38.7209 45.0218 38.9979 45.1165C39.2749 45.2112 39.527 45.3651 39.7543 45.5781C39.9815 45.7888 40.1626 46.0682 40.2976 46.4162C40.4325 46.7642 40.5 47.1927 40.5 47.7017V48.0568H36.2955V47.3324H39.6477C39.6477 47.0246 39.5862 46.75 39.4631 46.5085C39.3423 46.267 39.1695 46.0765 38.9446 45.9368C38.7221 45.7971 38.4593 45.7273 38.1562 45.7273C37.8224 45.7273 37.5336 45.8101 37.2898 45.9759C37.0483 46.1392 36.8625 46.3523 36.7322 46.6151C36.602 46.8778 36.5369 47.1596 36.5369 47.4602V47.9432C36.5369 48.3551 36.608 48.7043 36.75 48.9908C36.8944 49.2749 37.0945 49.4915 37.3501 49.6406C37.6058 49.7874 37.9029 49.8608 38.2415 49.8608C38.4616 49.8608 38.6605 49.83 38.8381 49.7685C39.018 49.7045 39.1731 49.6098 39.3033 49.4844C39.4335 49.3565 39.5341 49.1979 39.6051 49.0085L40.4148 49.2358C40.3295 49.5104 40.1863 49.7519 39.9851 49.9602C39.7839 50.1662 39.5353 50.3272 39.2393 50.4432C38.9434 50.5568 38.6108 50.6136 38.2415 50.6136ZM43.9908 50.6136C43.4794 50.6136 43.0391 50.4929 42.6697 50.2514C42.3004 50.0099 42.0163 49.6773 41.8175 49.2536C41.6186 48.8298 41.5192 48.3456 41.5192 47.8011C41.5192 47.2472 41.621 46.7583 41.8246 46.3345C42.0305 45.9084 42.317 45.5758 42.6839 45.3366C43.0533 45.0952 43.4841 44.9744 43.9766 44.9744C44.3601 44.9744 44.7057 45.0455 45.0135 45.1875C45.3213 45.3295 45.5734 45.5284 45.7699 45.7841C45.9664 46.0398 46.0883 46.3381 46.1357 46.679H45.2976C45.2337 46.4304 45.0916 46.2102 44.8714 46.0185C44.6536 45.8243 44.3601 45.7273 43.9908 45.7273C43.6641 45.7273 43.3776 45.8125 43.1314 45.983C42.8875 46.151 42.697 46.389 42.5597 46.6967C42.4247 47.0021 42.3572 47.3608 42.3572 47.7727C42.3572 48.1941 42.4235 48.5611 42.5561 48.8736C42.6911 49.1861 42.8804 49.4287 43.1243 49.6016C43.3705 49.7744 43.6593 49.8608 43.9908 49.8608C44.2086 49.8608 44.4062 49.8229 44.5838 49.7472C44.7614 49.6714 44.9117 49.5625 45.0348 49.4205C45.1579 49.2784 45.2455 49.108 45.2976 48.9091H46.1357C46.0883 49.2311 45.9711 49.5211 45.7841 49.7791C45.5994 50.0348 45.3544 50.2384 45.049 50.3899C44.746 50.5391 44.3932 50.6136 43.9908 50.6136ZM48.9659 50.6278C48.6203 50.6278 48.3066 50.5627 48.0249 50.4325C47.7431 50.3 47.5194 50.1094 47.3537 49.8608C47.188 49.6098 47.1051 49.3068 47.1051 48.9517C47.1051 48.6392 47.1667 48.3859 47.2898 48.1918C47.4129 47.9953 47.5774 47.8414 47.7834 47.7301C47.9893 47.6188 48.2166 47.536 48.4652 47.4815C48.7161 47.4247 48.9683 47.3797 49.2216 47.3466C49.553 47.304 49.8217 47.272 50.0277 47.2507C50.236 47.227 50.3875 47.188 50.4822 47.1335C50.5793 47.0791 50.6278 46.9844 50.6278 46.8494V46.821C50.6278 46.4706 50.532 46.1984 50.3402 46.0043C50.1508 45.8101 49.8632 45.7131 49.4773 45.7131C49.0772 45.7131 48.7635 45.8007 48.5362 45.9759C48.3089 46.151 48.1491 46.3381 48.0568 46.5369L47.2614 46.2528C47.4034 45.9214 47.5928 45.6634 47.8295 45.4787C48.0687 45.2917 48.3291 45.1615 48.6108 45.0881C48.8949 45.0123 49.1742 44.9744 49.4489 44.9744C49.6241 44.9744 49.8253 44.9957 50.0526 45.0384C50.2822 45.0786 50.5036 45.1626 50.7166 45.2905C50.9321 45.4183 51.1108 45.6113 51.2528 45.8693C51.3949 46.1274 51.4659 46.473 51.4659 46.9062V50.5H50.6278V49.7614H50.5852C50.5284 49.8797 50.4337 50.0064 50.3011 50.1413C50.1686 50.2763 49.9922 50.3911 49.772 50.4858C49.5518 50.5805 49.2831 50.6278 48.9659 50.6278ZM49.0938 49.875C49.4252 49.875 49.7045 49.8099 49.9318 49.6797C50.1615 49.5495 50.3343 49.3814 50.4503 49.1754C50.5687 48.9695 50.6278 48.7528 50.6278 48.5256V47.7585C50.5923 47.8011 50.5142 47.8402 50.3935 47.8757C50.2751 47.9089 50.1378 47.9384 49.9815 47.9645C49.8277 47.9882 49.6773 48.0095 49.5305 48.0284C49.3861 48.045 49.2689 48.0592 49.179 48.071C48.9612 48.0994 48.7576 48.1456 48.5682 48.2095C48.3812 48.2711 48.2296 48.3646 48.1136 48.4901C48 48.6132 47.9432 48.7812 47.9432 48.9943C47.9432 49.2855 48.0509 49.5057 48.2663 49.6548C48.4841 49.8016 48.7599 49.875 49.0938 49.875ZM53.34 52.5455C53.198 52.5455 53.0713 52.5336 52.96 52.5099C52.8488 52.4886 52.7718 52.4673 52.7292 52.446L52.9423 51.7074C53.1459 51.7595 53.3258 51.7784 53.4821 51.7642C53.6383 51.75 53.7768 51.6802 53.8975 51.5547C54.0207 51.4316 54.1331 51.2315 54.2349 50.9545L54.3912 50.5284L52.3741 45.0455H53.2832L54.7889 49.392H54.8457L56.3514 45.0455H57.2605L54.9451 51.2955C54.841 51.5772 54.7119 51.8104 54.5581 51.995C54.4042 52.1821 54.2254 52.3205 54.0218 52.4105C53.8206 52.5005 53.5933 52.5455 53.34 52.5455ZM60.4583 50.6136C59.9327 50.6136 59.4793 50.4976 59.0982 50.2656C58.7194 50.0312 58.427 49.7045 58.2211 49.2855C58.0175 48.8641 57.9157 48.3741 57.9157 47.8153C57.9157 47.2566 58.0175 46.7642 58.2211 46.3381C58.427 45.9096 58.7135 45.5758 59.0804 45.3366C59.4498 45.0952 59.8806 44.9744 60.373 44.9744C60.6571 44.9744 60.9377 45.0218 61.2147 45.1165C61.4917 45.2112 61.7438 45.3651 61.9711 45.5781C62.1983 45.7888 62.3794 46.0682 62.5144 46.4162C62.6493 46.7642 62.7168 47.1927 62.7168 47.7017V48.0568H58.5123V47.3324H61.8645C61.8645 47.0246 61.803 46.75 61.6799 46.5085C61.5591 46.267 61.3863 46.0765 61.1614 45.9368C60.9389 45.7971 60.6761 45.7273 60.373 45.7273C60.0392 45.7273 59.7504 45.8101 59.5066 45.9759C59.2651 46.1392 59.0792 46.3523 58.949 46.6151C58.8188 46.8778 58.7537 47.1596 58.7537 47.4602V47.9432C58.7537 48.3551 58.8248 48.7043 58.9668 48.9908C59.1112 49.2749 59.3113 49.4915 59.5669 49.6406C59.8226 49.7874 60.1197 49.8608 60.4583 49.8608C60.6784 49.8608 60.8773 49.83 61.0549 49.7685C61.2348 49.7045 61.3899 49.6098 61.5201 49.4844C61.6503 49.3565 61.7509 49.1979 61.8219 49.0085L62.6316 49.2358C62.5463 49.5104 62.4031 49.7519 62.2019 49.9602C62.0007 50.1662 61.7521 50.3272 61.4561 50.4432C61.1602 50.5568 60.8276 50.6136 60.4583 50.6136ZM66.0513 50.6136C65.5968 50.6136 65.1955 50.4988 64.8475 50.2692C64.4995 50.0372 64.2272 49.7105 64.0307 49.2891C63.8342 48.8653 63.736 48.3646 63.736 47.7869C63.736 47.214 63.8342 46.7169 64.0307 46.2955C64.2272 45.8741 64.5007 45.5485 64.851 45.3189C65.2014 45.0893 65.6062 44.9744 66.0655 44.9744C66.4206 44.9744 66.7012 45.0336 66.9071 45.152C67.1155 45.268 67.2741 45.4006 67.383 45.5497C67.4943 45.6965 67.5807 45.8172 67.6422 45.9119H67.7132V43.2273H68.5513V50.5H67.7417V49.6619H67.6422C67.5807 49.7614 67.4931 49.8868 67.3794 50.0384C67.2658 50.1875 67.1036 50.3213 66.8929 50.4396C66.6822 50.5556 66.4017 50.6136 66.0513 50.6136ZM66.165 49.8608C66.5011 49.8608 66.7852 49.7732 67.0172 49.598C67.2492 49.4205 67.4256 49.1754 67.5463 48.8629C67.6671 48.5481 67.7275 48.1847 67.7275 47.7727C67.7275 47.3655 67.6683 47.0092 67.5499 46.7038C67.4315 46.3961 67.2563 46.157 67.0243 45.9865C66.7923 45.8137 66.5059 45.7273 66.165 45.7273C65.8098 45.7273 65.5139 45.8184 65.2772 46.0007C65.0428 46.1806 64.8664 46.4257 64.748 46.7358C64.632 47.0436 64.574 47.3892 64.574 47.7727C64.574 48.161 64.6332 48.5137 64.7516 48.831C64.8723 49.1458 65.0499 49.3968 65.2843 49.5838C65.521 49.7685 65.8146 49.8608 66.165 49.8608Z" fill="black"/>
<rect x="2.5" y="41" width="18" height="14" fill="white" stroke="black"/>
<path d="M11.125 52.5H8.88068V45.2273H11.2244C11.9299 45.2273 12.5336 45.3729 13.0355 45.6641C13.5374 45.9529 13.9221 46.3684 14.1896 46.9105C14.4571 47.4503 14.5909 48.0966 14.5909 48.8494C14.5909 49.607 14.456 50.2592 14.1861 50.8061C13.9162 51.3506 13.5232 51.7696 13.0071 52.0632C12.491 52.3544 11.8636 52.5 11.125 52.5ZM9.76136 51.7188H11.0682C11.6695 51.7188 12.1679 51.6027 12.5632 51.3707C12.9586 51.1387 13.2533 50.8085 13.4474 50.38C13.6416 49.9515 13.7386 49.4413 13.7386 48.8494C13.7386 48.2623 13.6428 47.7569 13.451 47.3331C13.2592 46.907 12.9728 46.5803 12.5916 46.353C12.2105 46.1233 11.7358 46.0085 11.1676 46.0085H9.76136V51.7188Z" fill="black"/>
<path d="M28.8807 70.5V63.2273H33.2415V64.0085H29.7614V66.4659H32.9148V67.2472H29.7614V70.5H28.8807ZM34.6362 70.5V65.0455H35.4743V70.5H34.6362ZM35.0623 64.1364C34.899 64.1364 34.7581 64.0807 34.6397 63.9695C34.5237 63.8582 34.4657 63.7244 34.4657 63.5682C34.4657 63.4119 34.5237 63.2782 34.6397 63.1669C34.7581 63.0556 34.899 63 35.0623 63C35.2257 63 35.3654 63.0556 35.4814 63.1669C35.5997 63.2782 35.6589 63.4119 35.6589 63.5682C35.6589 63.7244 35.5997 63.8582 35.4814 63.9695C35.3654 64.0807 35.2257 64.1364 35.0623 64.1364ZM37.8473 63.2273V70.5H37.0092V63.2273H37.8473ZM40.2203 63.2273V70.5H39.3823V63.2273H40.2203ZM44.0423 70.6136C43.5167 70.6136 43.0633 70.4976 42.6822 70.2656C42.3034 70.0312 42.011 69.7045 41.805 69.2855C41.6014 68.8641 41.4996 68.3741 41.4996 67.8153C41.4996 67.2566 41.6014 66.7642 41.805 66.3381C42.011 65.9096 42.2975 65.5758 42.6644 65.3366C43.0337 65.0952 43.4646 64.9744 43.957 64.9744C44.2411 64.9744 44.5217 65.0218 44.7987 65.1165C45.0756 65.2112 45.3278 65.3651 45.555 65.5781C45.7823 65.7888 45.9634 66.0682 46.0984 66.4162C46.2333 66.7642 46.3008 67.1927 46.3008 67.7017V68.0568H42.0962V67.3324H45.4485C45.4485 67.0246 45.387 66.75 45.2638 66.5085C45.1431 66.267 44.9703 66.0765 44.7454 65.9368C44.5228 65.7971 44.2601 65.7273 43.957 65.7273C43.6232 65.7273 43.3344 65.8101 43.0906 65.9759C42.8491 66.1392 42.6632 66.3523 42.533 66.6151C42.4028 66.8778 42.3377 67.1596 42.3377 67.4602V67.9432C42.3377 68.3551 42.4087 68.7043 42.5508 68.9908C42.6952 69.2749 42.8952 69.4915 43.1509 69.6406C43.4066 69.7874 43.7037 69.8608 44.0423 69.8608C44.2624 69.8608 44.4613 69.83 44.6388 69.7685C44.8188 69.7045 44.9738 69.6098 45.104 69.4844C45.2343 69.3565 45.3349 69.1979 45.4059 69.0085L46.2156 69.2358C46.1303 69.5104 45.9871 69.7519 45.7859 69.9602C45.5846 70.1662 45.3361 70.3272 45.0401 70.4432C44.7442 70.5568 44.4116 70.6136 44.0423 70.6136ZM49.6353 70.6136C49.1808 70.6136 48.7795 70.4988 48.4315 70.2692C48.0835 70.0372 47.8112 69.7105 47.6147 69.2891C47.4182 68.8653 47.32 68.3646 47.32 67.7869C47.32 67.214 47.4182 66.7169 47.6147 66.2955C47.8112 65.8741 48.0846 65.5485 48.435 65.3189C48.7854 65.0893 49.1902 64.9744 49.6495 64.9744C50.0046 64.9744 50.2852 65.0336 50.4911 65.152C50.6995 65.268 50.8581 65.4006 50.967 65.5497C51.0782 65.6965 51.1647 65.8172 51.2262 65.9119H51.2972V63.2273H52.1353V70.5H51.3256V69.6619H51.2262C51.1647 69.7614 51.0771 69.8868 50.9634 70.0384C50.8498 70.1875 50.6876 70.3213 50.4769 70.4396C50.2662 70.5556 49.9857 70.6136 49.6353 70.6136ZM49.7489 69.8608C50.0851 69.8608 50.3692 69.7732 50.6012 69.598C50.8332 69.4205 51.0096 69.1754 51.1303 68.8629C51.2511 68.5481 51.3114 68.1847 51.3114 67.7727C51.3114 67.3655 51.2522 67.0092 51.1339 66.7038C51.0155 66.3961 50.8403 66.157 50.6083 65.9865C50.3763 65.8137 50.0898 65.7273 49.7489 65.7273C49.3938 65.7273 49.0979 65.8184 48.8612 66.0007C48.6268 66.1806 48.4504 66.4257 48.332 66.7358C48.216 67.0436 48.158 67.3892 48.158 67.7727C48.158 68.161 48.2172 68.5137 48.3356 68.831C48.4563 69.1458 48.6339 69.3968 48.8683 69.5838C49.105 69.7685 49.3986 69.8608 49.7489 69.8608Z" fill="black"/>
<rect x="2.5" y="61" width="18" height="14" fill="white" stroke="black"/>
<path d="M28.8807 83.2273H29.9318L32.4034 89.2642H32.4886L34.9602 83.2273H36.0114V90.5H35.1875V84.9744H35.1165L32.8438 90.5H32.0483L29.7756 84.9744H29.7045V90.5H28.8807V83.2273ZM37.6635 90.5V85.0455H38.5016V90.5H37.6635ZM38.0897 84.1364C37.9263 84.1364 37.7855 84.0807 37.6671 83.9695C37.5511 83.8582 37.4931 83.7244 37.4931 83.5682C37.4931 83.4119 37.5511 83.2782 37.6671 83.1669C37.7855 83.0556 37.9263 83 38.0897 83C38.253 83 38.3927 83.0556 38.5087 83.1669C38.6271 83.2782 38.6863 83.4119 38.6863 83.5682C38.6863 83.7244 38.6271 83.8582 38.5087 83.9695C38.3927 84.0807 38.253 84.1364 38.0897 84.1364ZM43.9002 86.267L43.1474 86.4801C43.1 86.3546 43.0302 86.2327 42.9379 86.1143C42.8479 85.9936 42.7248 85.8942 42.5685 85.8161C42.4123 85.7379 42.2122 85.6989 41.9684 85.6989C41.6346 85.6989 41.3564 85.7758 41.1339 85.9297C40.9137 86.0812 40.8036 86.2741 40.8036 86.5085C40.8036 86.7169 40.8794 86.8814 41.0309 87.0021C41.1824 87.1229 41.4192 87.2235 41.7411 87.304L42.5508 87.5028C43.0385 87.6212 43.4019 87.8023 43.641 88.0462C43.8801 88.2876 43.9996 88.599 43.9996 88.9801C43.9996 89.2926 43.9097 89.572 43.7298 89.8182C43.5522 90.0644 43.3036 90.2585 42.984 90.4006C42.6644 90.5426 42.2927 90.6136 41.869 90.6136C41.3126 90.6136 40.8522 90.4929 40.4876 90.2514C40.123 90.0099 39.8922 89.6572 39.7951 89.1932L40.5906 88.9943C40.6663 89.2879 40.8095 89.508 41.0202 89.6548C41.2333 89.8016 41.5115 89.875 41.8548 89.875C42.2454 89.875 42.5555 89.7921 42.7852 89.6264C43.0172 89.4583 43.1332 89.2571 43.1332 89.0227C43.1332 88.8333 43.0669 88.6747 42.9343 88.5469C42.8017 88.4167 42.5981 88.3196 42.3235 88.2557L41.4144 88.0426C40.9149 87.9242 40.5479 87.7408 40.3136 87.4922C40.0816 87.2412 39.9656 86.9276 39.9656 86.5511C39.9656 86.2434 40.052 85.9711 40.2248 85.7344C40.4 85.4976 40.6379 85.3118 40.9386 85.1768C41.2416 85.0419 41.5849 84.9744 41.9684 84.9744C42.5082 84.9744 42.9319 85.0928 43.2397 85.3295C43.5498 85.5663 43.77 85.8788 43.9002 86.267ZM49.1248 86.267L48.372 86.4801C48.3246 86.3546 48.2548 86.2327 48.1625 86.1143C48.0725 85.9936 47.9494 85.8942 47.7931 85.8161C47.6369 85.7379 47.4368 85.6989 47.193 85.6989C46.8592 85.6989 46.581 85.7758 46.3585 85.9297C46.1383 86.0812 46.0282 86.2741 46.0282 86.5085C46.0282 86.7169 46.104 86.8814 46.2555 87.0021C46.407 87.1229 46.6438 87.2235 46.9657 87.304L47.7754 87.5028C48.2631 87.6212 48.6265 87.8023 48.8656 88.0462C49.1047 88.2876 49.2243 88.599 49.2243 88.9801C49.2243 89.2926 49.1343 89.572 48.9544 89.8182C48.7768 90.0644 48.5282 90.2585 48.2086 90.4006C47.889 90.5426 47.5173 90.6136 47.0936 90.6136C46.5372 90.6136 46.0768 90.4929 45.7122 90.2514C45.3476 90.0099 45.1168 89.6572 45.0197 89.1932L45.8152 88.9943C45.8909 89.2879 46.0342 89.508 46.2449 89.6548C46.4579 89.8016 46.7361 89.875 47.0794 89.875C47.47 89.875 47.7801 89.7921 48.0098 89.6264C48.2418 89.4583 48.3578 89.2571 48.3578 89.0227C48.3578 88.8333 48.2915 88.6747 48.1589 88.5469C48.0263 88.4167 47.8227 88.3196 47.5481 88.2557L46.639 88.0426C46.1395 87.9242 45.7725 87.7408 45.5382 87.4922C45.3062 87.2412 45.1902 86.9276 45.1902 86.5511C45.1902 86.2434 45.2766 85.9711 45.4494 85.7344C45.6246 85.4976 45.8625 85.3118 46.1632 85.1768C46.4662 85.0419 46.8095 84.9744 47.193 84.9744C47.7328 84.9744 48.1565 85.0928 48.4643 85.3295C48.7744 85.5663 48.9946 85.8788 49.1248 86.267ZM50.4858 90.5V85.0455H51.3239V90.5H50.4858ZM50.9119 84.1364C50.7486 84.1364 50.6077 84.0807 50.4893 83.9695C50.3733 83.8582 50.3153 83.7244 50.3153 83.5682C50.3153 83.4119 50.3733 83.2782 50.4893 83.1669C50.6077 83.0556 50.7486 83 50.9119 83C51.0753 83 51.215 83.0556 51.331 83.1669C51.4493 83.2782 51.5085 83.4119 51.5085 83.5682C51.5085 83.7244 51.4493 83.8582 51.331 83.9695C51.215 84.0807 51.0753 84.1364 50.9119 84.1364ZM53.6969 87.2188V90.5H52.8588V85.0455H53.6685V85.8977H53.7395C53.8674 85.6207 54.0615 85.3982 54.3219 85.2301C54.5823 85.0597 54.9185 84.9744 55.3304 84.9744C55.6998 84.9744 56.0229 85.0502 56.2999 85.2017C56.5769 85.3509 56.7923 85.5781 56.9462 85.8835C57.1001 86.1866 57.177 86.5701 57.177 87.0341V90.5H56.339V87.0909C56.339 86.6624 56.2277 86.3286 56.0051 86.0895C55.7826 85.848 55.4772 85.7273 55.089 85.7273C54.8214 85.7273 54.5823 85.7853 54.3716 85.9013C54.1633 86.0173 53.9988 86.1866 53.878 86.4091C53.7573 86.6316 53.6969 86.9015 53.6969 87.2188ZM60.9102 92.6591C60.5053 92.6591 60.1573 92.607 59.8661 92.5028C59.5749 92.401 59.3323 92.2661 59.1381 92.098C58.9464 91.9323 58.7937 91.7547 58.68 91.5653L59.3477 91.0966C59.4234 91.196 59.5193 91.3097 59.6353 91.4375C59.7513 91.5677 59.9099 91.6802 60.1112 91.7749C60.3147 91.8719 60.5811 91.9205 60.9102 91.9205C61.3505 91.9205 61.7139 91.8139 62.0004 91.6009C62.2868 91.3878 62.43 91.054 62.43 90.5994V89.4915H62.359C62.2975 89.5909 62.2099 89.714 62.0962 89.8608C61.985 90.0052 61.824 90.1342 61.6133 90.2479C61.4049 90.3591 61.1232 90.4148 60.7681 90.4148C60.3278 90.4148 59.9324 90.3106 59.582 90.1023C59.234 89.8939 58.9582 89.5909 58.7546 89.1932C58.5534 88.7955 58.4528 88.3125 58.4528 87.7443C58.4528 87.1856 58.551 86.6991 58.7475 86.2848C58.944 85.8681 59.2174 85.5462 59.5678 85.3189C59.9182 85.0893 60.323 84.9744 60.7823 84.9744C61.1374 84.9744 61.4192 85.0336 61.6275 85.152C61.8382 85.268 61.9992 85.4006 62.1104 85.5497C62.2241 85.6965 62.3117 85.8172 62.3732 85.9119H62.4585V85.0455H63.2681V90.6562C63.2681 91.125 63.1616 91.5062 62.9485 91.7997C62.7378 92.0956 62.4537 92.3123 62.0962 92.4496C61.7411 92.5893 61.3458 92.6591 60.9102 92.6591ZM60.8817 89.6619C61.2179 89.6619 61.502 89.585 61.734 89.4311C61.966 89.2772 62.1424 89.0559 62.2631 88.767C62.3839 88.4782 62.4442 88.1326 62.4442 87.7301C62.4442 87.3371 62.3851 86.9903 62.2667 86.6896C62.1483 86.389 61.9731 86.1534 61.7411 85.983C61.5091 85.8125 61.2227 85.7273 60.8817 85.7273C60.5266 85.7273 60.2307 85.8172 59.994 85.9972C59.7596 86.1771 59.5832 86.4186 59.4648 86.7216C59.3488 87.0246 59.2908 87.3608 59.2908 87.7301C59.2908 88.1089 59.35 88.4439 59.4684 88.7351C59.5891 89.0239 59.7667 89.2512 60.0011 89.4169C60.2378 89.5803 60.5314 89.6619 60.8817 89.6619Z" fill="black"/>
<rect x="2.5" y="81" width="18" height="14" fill="white" stroke="black"/>
<path d="M28.8807 114.5V107.227H33.2415V108.009H29.7614V110.466H32.9148V111.247H29.7614V114.5H28.8807ZM36.4517 114.614C35.9593 114.614 35.5272 114.496 35.1555 114.262C34.7862 114.028 34.4974 113.7 34.2891 113.278C34.0831 112.857 33.9801 112.365 33.9801 111.801C33.9801 111.233 34.0831 110.737 34.2891 110.313C34.4974 109.889 34.7862 109.56 35.1555 109.326C35.5272 109.092 35.9593 108.974 36.4517 108.974C36.9441 108.974 37.375 109.092 37.7443 109.326C38.116 109.56 38.4048 109.889 38.6108 110.313C38.8191 110.737 38.9233 111.233 38.9233 111.801C38.9233 112.365 38.8191 112.857 38.6108 113.278C38.4048 113.7 38.116 114.028 37.7443 114.262C37.375 114.496 36.9441 114.614 36.4517 114.614ZM36.4517 113.861C36.8258 113.861 37.1335 113.765 37.375 113.573C37.6165 113.381 37.7952 113.129 37.9112 112.817C38.0272 112.504 38.0852 112.166 38.0852 111.801C38.0852 111.437 38.0272 111.097 37.9112 110.782C37.7952 110.467 37.6165 110.213 37.375 110.018C37.1335 109.824 36.8258 109.727 36.4517 109.727C36.0777 109.727 35.7699 109.824 35.5284 110.018C35.2869 110.213 35.1082 110.467 34.9922 110.782C34.8762 111.097 34.8182 111.437 34.8182 111.801C34.8182 112.166 34.8762 112.504 34.9922 112.817C35.1082 113.129 35.2869 113.381 35.5284 113.573C35.7699 113.765 36.0777 113.861 36.4517 113.861ZM40.2026 114.5V109.045H41.0123V109.869H41.0691C41.1685 109.599 41.3484 109.38 41.6088 109.212C41.8693 109.044 42.1628 108.96 42.4895 108.96C42.5511 108.96 42.628 108.961 42.7203 108.964C42.8127 108.966 42.8825 108.97 42.9299 108.974V109.827C42.9015 109.82 42.8364 109.809 42.7346 109.795C42.6351 109.778 42.5298 109.77 42.4185 109.77C42.1534 109.77 41.9166 109.826 41.7083 109.937C41.5023 110.046 41.339 110.197 41.2182 110.391C41.0998 110.583 41.0407 110.802 41.0407 111.048V114.5H40.2026ZM46.8494 114.5V107.227H51.2386V108.009H47.7301V110.466H51.0114V111.247H47.7301V113.719H51.2955V114.5H46.8494ZM53.3374 109.045L54.6442 111.276L55.951 109.045H56.9169L55.1555 111.773L56.9169 114.5H55.951L54.6442 112.384L53.3374 114.5H52.3714L54.1044 111.773L52.3714 109.045H53.3374ZM60.4849 109.045V109.756H57.6582V109.045H60.4849ZM58.4821 107.739H59.3201V112.938C59.3201 113.174 59.3545 113.352 59.4231 113.47C59.4941 113.586 59.5841 113.664 59.693 113.705C59.8043 113.742 59.9215 113.761 60.0446 113.761C60.1369 113.761 60.2127 113.757 60.2718 113.747C60.331 113.735 60.3784 113.726 60.4139 113.719L60.5843 114.472C60.5275 114.493 60.4482 114.514 60.3464 114.536C60.2446 114.559 60.1156 114.571 59.9593 114.571C59.7226 114.571 59.4906 114.52 59.2633 114.418C59.0384 114.317 58.8514 114.161 58.7022 113.953C58.5555 113.745 58.4821 113.482 58.4821 113.165V107.739ZM61.7456 114.5V109.045H62.5552V109.869H62.612C62.7115 109.599 62.8914 109.38 63.1518 109.212C63.4122 109.044 63.7058 108.96 64.0325 108.96C64.094 108.96 64.171 108.961 64.2633 108.964C64.3556 108.966 64.4255 108.97 64.4728 108.974V109.827C64.4444 109.82 64.3793 109.809 64.2775 109.795C64.1781 109.778 64.0727 109.77 63.9615 109.77C63.6963 109.77 63.4596 109.826 63.2512 109.937C63.0453 110.046 62.8819 110.197 62.7612 110.391C62.6428 110.583 62.5836 110.802 62.5836 111.048V114.5H61.7456ZM67.0714 114.628C66.7257 114.628 66.4121 114.563 66.1303 114.433C65.8486 114.3 65.6249 114.109 65.4592 113.861C65.2934 113.61 65.2106 113.307 65.2106 112.952C65.2106 112.639 65.2721 112.386 65.3952 112.192C65.5183 111.995 65.6829 111.841 65.8888 111.73C66.0948 111.619 66.3221 111.536 66.5707 111.482C66.8216 111.425 67.0737 111.38 67.3271 111.347C67.6585 111.304 67.9272 111.272 68.1332 111.251C68.3415 111.227 68.493 111.188 68.5877 111.134C68.6848 111.079 68.7333 110.984 68.7333 110.849V110.821C68.7333 110.471 68.6374 110.198 68.4457 110.004C68.2563 109.81 67.9686 109.713 67.5827 109.713C67.1826 109.713 66.869 109.801 66.6417 109.976C66.4144 110.151 66.2546 110.338 66.1623 110.537L65.3668 110.253C65.5089 109.921 65.6983 109.663 65.935 109.479C66.1741 109.292 66.4345 109.161 66.7163 109.088C67.0004 109.012 67.2797 108.974 67.5543 108.974C67.7295 108.974 67.9308 108.996 68.158 109.038C68.3877 109.079 68.609 109.163 68.8221 109.29C69.0375 109.418 69.2163 109.611 69.3583 109.869C69.5004 110.127 69.5714 110.473 69.5714 110.906V114.5H68.7333V113.761H68.6907C68.6339 113.88 68.5392 114.006 68.4066 114.141C68.274 114.276 68.0977 114.391 67.8775 114.486C67.6573 114.58 67.3886 114.628 67.0714 114.628ZM67.1992 113.875C67.5307 113.875 67.81 113.81 68.0373 113.68C68.2669 113.549 68.4397 113.381 68.5558 113.175C68.6741 112.969 68.7333 112.753 68.7333 112.526V111.759C68.6978 111.801 68.6197 111.84 68.4989 111.876C68.3806 111.909 68.2433 111.938 68.087 111.964C67.9331 111.988 67.7828 112.009 67.636 112.028C67.4916 112.045 67.3744 112.059 67.2844 112.071C67.0666 112.099 66.863 112.146 66.6737 112.21C66.4866 112.271 66.3351 112.365 66.2191 112.49C66.1055 112.613 66.0487 112.781 66.0487 112.994C66.0487 113.286 66.1564 113.506 66.3718 113.655C66.5896 113.802 66.8654 113.875 67.1992 113.875ZM73.3169 114.614C72.8056 114.614 72.3652 114.493 71.9959 114.251C71.6266 114.01 71.3425 113.677 71.1436 113.254C70.9448 112.83 70.8453 112.346 70.8453 111.801C70.8453 111.247 70.9471 110.758 71.1507 110.335C71.3567 109.908 71.6432 109.576 72.0101 109.337C72.3794 109.095 72.8103 108.974 73.3027 108.974C73.6863 108.974 74.0319 109.045 74.3397 109.188C74.6474 109.33 74.8996 109.528 75.0961 109.784C75.2926 110.04 75.4145 110.338 75.4618 110.679H74.6238C74.5598 110.43 74.4178 110.21 74.1976 110.018C73.9798 109.824 73.6863 109.727 73.3169 109.727C72.9902 109.727 72.7038 109.812 72.4576 109.983C72.2137 110.151 72.0231 110.389 71.8858 110.697C71.7509 111.002 71.6834 111.361 71.6834 111.773C71.6834 112.194 71.7497 112.561 71.8823 112.874C72.0172 113.186 72.2066 113.429 72.4505 113.602C72.6967 113.774 72.9855 113.861 73.3169 113.861C73.5347 113.861 73.7324 113.823 73.91 113.747C74.0875 113.671 74.2379 113.562 74.361 113.42C74.4841 113.278 74.5717 113.108 74.6238 112.909H75.4618C75.4145 113.231 75.2973 113.521 75.1103 113.779C74.9256 114.035 74.6806 114.238 74.3752 114.39C74.0721 114.539 73.7194 114.614 73.3169 114.614ZM79.0591 109.045V109.756H76.2324V109.045H79.0591ZM77.0563 107.739H77.8944V112.938C77.8944 113.174 77.9287 113.352 77.9973 113.47C78.0684 113.586 78.1583 113.664 78.2672 113.705C78.3785 113.742 78.4957 113.761 78.6188 113.761C78.7111 113.761 78.7869 113.757 78.8461 113.747C78.9052 113.735 78.9526 113.726 78.9881 113.719L79.1586 114.472C79.1017 114.493 79.0224 114.514 78.9206 114.536C78.8188 114.559 78.6898 114.571 78.5336 114.571C78.2968 114.571 78.0648 114.52 77.8375 114.418C77.6126 114.317 77.4256 114.161 77.2765 113.953C77.1297 113.745 77.0563 113.482 77.0563 113.165V107.739ZM80.3198 114.5V109.045H81.1578V114.5H80.3198ZM80.7459 108.136C80.5826 108.136 80.4417 108.081 80.3233 107.969C80.2073 107.858 80.1493 107.724 80.1493 107.568C80.1493 107.412 80.2073 107.278 80.3233 107.167C80.4417 107.056 80.5826 107 80.7459 107C80.9093 107 81.0489 107.056 81.165 107.167C81.2833 107.278 81.3425 107.412 81.3425 107.568C81.3425 107.724 81.2833 107.858 81.165 107.969C81.0489 108.081 80.9093 108.136 80.7459 108.136ZM84.9087 114.614C84.4163 114.614 83.9843 114.496 83.6126 114.262C83.2433 114.028 82.9544 113.7 82.7461 113.278C82.5401 112.857 82.4371 112.365 82.4371 111.801C82.4371 111.233 82.5401 110.737 82.7461 110.313C82.9544 109.889 83.2433 109.56 83.6126 109.326C83.9843 109.092 84.4163 108.974 84.9087 108.974C85.4012 108.974 85.832 109.092 86.2013 109.326C86.573 109.56 86.8619 109.889 87.0678 110.313C87.2762 110.737 87.3803 111.233 87.3803 111.801C87.3803 112.365 87.2762 112.857 87.0678 113.278C86.8619 113.7 86.573 114.028 86.2013 114.262C85.832 114.496 85.4012 114.614 84.9087 114.614ZM84.9087 113.861C85.2828 113.861 85.5906 113.765 85.832 113.573C86.0735 113.381 86.2522 113.129 86.3683 112.817C86.4843 112.504 86.5423 112.166 86.5423 111.801C86.5423 111.437 86.4843 111.097 86.3683 110.782C86.2522 110.467 86.0735 110.213 85.832 110.018C85.5906 109.824 85.2828 109.727 84.9087 109.727C84.5347 109.727 84.2269 109.824 83.9854 110.018C83.744 110.213 83.5652 110.467 83.4492 110.782C83.3332 111.097 83.2752 111.437 83.2752 111.801C83.2752 112.166 83.3332 112.504 83.4492 112.817C83.5652 113.129 83.744 113.381 83.9854 113.573C84.2269 113.765 84.5347 113.861 84.9087 113.861ZM89.4977 111.219V114.5H88.6596V109.045H89.4693V109.898H89.5403C89.6681 109.621 89.8623 109.398 90.1227 109.23C90.3831 109.06 90.7193 108.974 91.1312 108.974C91.5005 108.974 91.8237 109.05 92.1007 109.202C92.3777 109.351 92.5931 109.578 92.747 109.884C92.9009 110.187 92.9778 110.57 92.9778 111.034V114.5H92.1397V111.091C92.1397 110.662 92.0285 110.329 91.8059 110.089C91.5834 109.848 91.278 109.727 90.8897 109.727C90.6222 109.727 90.3831 109.785 90.1724 109.901C89.9641 110.017 89.7995 110.187 89.6788 110.409C89.5581 110.632 89.4977 110.902 89.4977 111.219Z" fill="black"/>
<rect x="2.5" y="104" width="18" height="14" fill="white" stroke="black"/>
<path d="M111.858 46.0455C111.815 45.6856 111.643 45.4062 111.339 45.2074C111.036 45.0085 110.665 44.9091 110.224 44.9091C109.902 44.9091 109.621 44.9612 109.379 45.0653C109.14 45.1695 108.953 45.3127 108.818 45.495C108.686 45.6773 108.619 45.8845 108.619 46.1165C108.619 46.3106 108.665 46.4775 108.758 46.6172C108.853 46.7545 108.973 46.8693 109.12 46.9616C109.267 47.0516 109.421 47.1262 109.582 47.1854C109.743 47.2422 109.891 47.2884 110.026 47.3239L110.764 47.5227C110.954 47.5724 111.164 47.6411 111.396 47.7287C111.631 47.8163 111.854 47.9358 112.067 48.0874C112.283 48.2365 112.46 48.4283 112.6 48.6626C112.74 48.897 112.81 49.1847 112.81 49.5256C112.81 49.9186 112.707 50.2737 112.501 50.5909C112.297 50.9081 111.999 51.1603 111.606 51.3473C111.215 51.5343 110.741 51.6278 110.182 51.6278C109.661 51.6278 109.21 51.5438 108.829 51.3757C108.45 51.2076 108.152 50.9732 107.934 50.6726C107.719 50.3719 107.597 50.0227 107.568 49.625H108.477C108.501 49.8996 108.593 50.1269 108.754 50.3068C108.918 50.4844 109.124 50.617 109.372 50.7045C109.623 50.7898 109.893 50.8324 110.182 50.8324C110.518 50.8324 110.82 50.7779 111.087 50.669C111.355 50.5578 111.567 50.4039 111.723 50.2074C111.879 50.0085 111.957 49.7765 111.957 49.5114C111.957 49.2699 111.89 49.0734 111.755 48.9219C111.62 48.7704 111.442 48.6473 111.222 48.5526C111.002 48.4579 110.764 48.375 110.509 48.304L109.614 48.0483C109.045 47.8849 108.596 47.6518 108.264 47.3487C107.933 47.0457 107.767 46.6491 107.767 46.1591C107.767 45.7519 107.877 45.3968 108.097 45.0938C108.32 44.7884 108.618 44.5516 108.992 44.3835C109.369 44.2131 109.789 44.1278 110.253 44.1278C110.722 44.1278 111.138 44.2119 111.503 44.38C111.867 44.5457 112.156 44.773 112.369 45.0618C112.585 45.3506 112.698 45.6785 112.71 46.0455H111.858ZM116.431 51.6136C115.905 51.6136 115.452 51.4976 115.071 51.2656C114.692 51.0312 114.4 50.7045 114.194 50.2855C113.99 49.8641 113.888 49.3741 113.888 48.8153C113.888 48.2566 113.99 47.7642 114.194 47.3381C114.4 46.9096 114.686 46.5758 115.053 46.3366C115.422 46.0952 115.853 45.9744 116.346 45.9744C116.63 45.9744 116.91 46.0218 117.187 46.1165C117.464 46.2112 117.716 46.3651 117.944 46.5781C118.171 46.7888 118.352 47.0682 118.487 47.4162C118.622 47.7642 118.689 48.1927 118.689 48.7017V49.0568H114.485V48.3324H117.837C117.837 48.0246 117.776 47.75 117.653 47.5085C117.532 47.267 117.359 47.0765 117.134 46.9368C116.912 46.7971 116.649 46.7273 116.346 46.7273C116.012 46.7273 115.723 46.8101 115.479 46.9759C115.238 47.1392 115.052 47.3523 114.922 47.6151C114.791 47.8778 114.726 48.1596 114.726 48.4602V48.9432C114.726 49.3551 114.797 49.7043 114.939 49.9908C115.084 50.2749 115.284 50.4915 115.54 50.6406C115.795 50.7874 116.092 50.8608 116.431 50.8608C116.651 50.8608 116.85 50.83 117.028 50.7685C117.207 50.7045 117.363 50.6098 117.493 50.4844C117.623 50.3565 117.724 50.1979 117.795 50.0085L118.604 50.2358C118.519 50.5104 118.376 50.7519 118.175 50.9602C117.973 51.1662 117.725 51.3272 117.429 51.4432C117.133 51.5568 116.8 51.6136 116.431 51.6136ZM121.569 51.6278C121.224 51.6278 120.91 51.5627 120.628 51.4325C120.347 51.3 120.123 51.1094 119.957 50.8608C119.791 50.6098 119.709 50.3068 119.709 49.9517C119.709 49.6392 119.77 49.3859 119.893 49.1918C120.016 48.9953 120.181 48.8414 120.387 48.7301C120.593 48.6188 120.82 48.536 121.069 48.4815C121.32 48.4247 121.572 48.3797 121.825 48.3466C122.157 48.304 122.425 48.272 122.631 48.2507C122.84 48.227 122.991 48.188 123.086 48.1335C123.183 48.0791 123.231 47.9844 123.231 47.8494V47.821C123.231 47.4706 123.135 47.1984 122.944 47.0043C122.754 46.8101 122.467 46.7131 122.081 46.7131C121.681 46.7131 121.367 46.8007 121.14 46.9759C120.912 47.151 120.753 47.3381 120.66 47.5369L119.865 47.2528C120.007 46.9214 120.196 46.6634 120.433 46.4787C120.672 46.2917 120.933 46.1615 121.214 46.0881C121.498 46.0123 121.778 45.9744 122.052 45.9744C122.228 45.9744 122.429 45.9957 122.656 46.0384C122.886 46.0786 123.107 46.1626 123.32 46.2905C123.536 46.4183 123.714 46.6113 123.856 46.8693C123.998 47.1274 124.069 47.473 124.069 47.9062V51.5H123.231V50.7614H123.189C123.132 50.8797 123.037 51.0064 122.905 51.1413C122.772 51.2763 122.596 51.3911 122.376 51.4858C122.155 51.5805 121.887 51.6278 121.569 51.6278ZM121.697 50.875C122.029 50.875 122.308 50.8099 122.535 50.6797C122.765 50.5495 122.938 50.3814 123.054 50.1754C123.172 49.9695 123.231 49.7528 123.231 49.5256V48.7585C123.196 48.8011 123.118 48.8402 122.997 48.8757C122.879 48.9089 122.741 48.9384 122.585 48.9645C122.431 48.9882 122.281 49.0095 122.134 49.0284C121.99 49.045 121.872 49.0592 121.782 49.071C121.565 49.0994 121.361 49.1456 121.172 49.2095C120.985 49.2711 120.833 49.3646 120.717 49.4901C120.604 49.6132 120.547 49.7812 120.547 49.9943C120.547 50.2855 120.654 50.5057 120.87 50.6548C121.088 50.8016 121.363 50.875 121.697 50.875ZM126.437 44.2273V51.5H125.599V44.2273H126.437ZM130.259 51.6136C129.733 51.6136 129.28 51.4976 128.899 51.2656C128.52 51.0312 128.228 50.7045 128.022 50.2855C127.818 49.8641 127.716 49.3741 127.716 48.8153C127.716 48.2566 127.818 47.7642 128.022 47.3381C128.228 46.9096 128.514 46.5758 128.881 46.3366C129.251 46.0952 129.681 45.9744 130.174 45.9744C130.458 45.9744 130.738 46.0218 131.015 46.1165C131.292 46.2112 131.545 46.3651 131.772 46.5781C131.999 46.7888 132.18 47.0682 132.315 47.4162C132.45 47.7642 132.518 48.1927 132.518 48.7017V49.0568H128.313V48.3324H131.665C131.665 48.0246 131.604 47.75 131.481 47.5085C131.36 47.267 131.187 47.0765 130.962 46.9368C130.74 46.7971 130.477 46.7273 130.174 46.7273C129.84 46.7273 129.551 46.8101 129.307 46.9759C129.066 47.1392 128.88 47.3523 128.75 47.6151C128.62 47.8778 128.555 48.1596 128.555 48.4602V48.9432C128.555 49.3551 128.626 49.7043 128.768 49.9908C128.912 50.2749 129.112 50.4915 129.368 50.6406C129.623 50.7874 129.921 50.8608 130.259 50.8608C130.479 50.8608 130.678 50.83 130.856 50.7685C131.036 50.7045 131.191 50.6098 131.321 50.4844C131.451 50.3565 131.552 50.1979 131.623 50.0085L132.432 50.2358C132.347 50.5104 132.204 50.7519 132.003 50.9602C131.801 51.1662 131.553 51.3272 131.257 51.4432C130.961 51.5568 130.628 51.6136 130.259 51.6136ZM135.852 51.6136C135.398 51.6136 134.996 51.4988 134.648 51.2692C134.3 51.0372 134.028 50.7105 133.831 50.2891C133.635 49.8653 133.537 49.3646 133.537 48.7869C133.537 48.214 133.635 47.7169 133.831 47.2955C134.028 46.8741 134.301 46.5485 134.652 46.3189C135.002 46.0893 135.407 45.9744 135.866 45.9744C136.221 45.9744 136.502 46.0336 136.708 46.152C136.916 46.268 137.075 46.4006 137.184 46.5497C137.295 46.6965 137.381 46.8172 137.443 46.9119H137.514V44.2273H138.352V51.5H137.542V50.6619H137.443C137.381 50.7614 137.294 50.8868 137.18 51.0384C137.067 51.1875 136.904 51.3213 136.694 51.4396C136.483 51.5556 136.202 51.6136 135.852 51.6136ZM135.966 50.8608C136.302 50.8608 136.586 50.7732 136.818 50.598C137.05 50.4205 137.226 50.1754 137.347 49.8629C137.468 49.5481 137.528 49.1847 137.528 48.7727C137.528 48.3655 137.469 48.0092 137.351 47.7038C137.232 47.3961 137.057 47.157 136.825 46.9865C136.593 46.8137 136.307 46.7273 135.966 46.7273C135.611 46.7273 135.315 46.8184 135.078 47.0007C134.844 47.1806 134.667 47.4257 134.549 47.7358C134.433 48.0436 134.375 48.3892 134.375 48.7727C134.375 49.161 134.434 49.5137 134.552 49.831C134.673 50.1458 134.851 50.3968 135.085 50.5838C135.322 50.7685 135.615 50.8608 135.966 50.8608Z" fill="black"/>
<rect x="81.5" y="42" width="18" height="14" fill="white" stroke="black"/>
<path d="M111.858 66.0455C111.815 65.6856 111.643 65.4062 111.339 65.2074C111.036 65.0085 110.665 64.9091 110.224 64.9091C109.902 64.9091 109.621 64.9612 109.379 65.0653C109.14 65.1695 108.953 65.3127 108.818 65.495C108.686 65.6773 108.619 65.8845 108.619 66.1165C108.619 66.3106 108.665 66.4775 108.758 66.6172C108.853 66.7545 108.973 66.8693 109.12 66.9616C109.267 67.0516 109.421 67.1262 109.582 67.1854C109.743 67.2422 109.891 67.2884 110.026 67.3239L110.764 67.5227C110.954 67.5724 111.164 67.6411 111.396 67.7287C111.631 67.8163 111.854 67.9358 112.067 68.0874C112.283 68.2365 112.46 68.4283 112.6 68.6626C112.74 68.897 112.81 69.1847 112.81 69.5256C112.81 69.9186 112.707 70.2737 112.501 70.5909C112.297 70.9081 111.999 71.1603 111.606 71.3473C111.215 71.5343 110.741 71.6278 110.182 71.6278C109.661 71.6278 109.21 71.5438 108.829 71.3757C108.45 71.2076 108.152 70.9732 107.934 70.6726C107.719 70.3719 107.597 70.0227 107.568 69.625H108.477C108.501 69.8996 108.593 70.1269 108.754 70.3068C108.918 70.4844 109.124 70.617 109.372 70.7045C109.623 70.7898 109.893 70.8324 110.182 70.8324C110.518 70.8324 110.82 70.7779 111.087 70.669C111.355 70.5578 111.567 70.4039 111.723 70.2074C111.879 70.0085 111.957 69.7765 111.957 69.5114C111.957 69.2699 111.89 69.0734 111.755 68.9219C111.62 68.7704 111.442 68.6473 111.222 68.5526C111.002 68.4579 110.764 68.375 110.509 68.304L109.614 68.0483C109.045 67.8849 108.596 67.6518 108.264 67.3487C107.933 67.0457 107.767 66.6491 107.767 66.1591C107.767 65.7519 107.877 65.3968 108.097 65.0938C108.32 64.7884 108.618 64.5516 108.992 64.3835C109.369 64.2131 109.789 64.1278 110.253 64.1278C110.722 64.1278 111.138 64.2119 111.503 64.38C111.867 64.5457 112.156 64.773 112.369 65.0618C112.585 65.3506 112.698 65.6785 112.71 66.0455H111.858ZM116.431 71.6136C115.905 71.6136 115.452 71.4976 115.071 71.2656C114.692 71.0312 114.4 70.7045 114.194 70.2855C113.99 69.8641 113.888 69.3741 113.888 68.8153C113.888 68.2566 113.99 67.7642 114.194 67.3381C114.4 66.9096 114.686 66.5758 115.053 66.3366C115.422 66.0952 115.853 65.9744 116.346 65.9744C116.63 65.9744 116.91 66.0218 117.187 66.1165C117.464 66.2112 117.716 66.3651 117.944 66.5781C118.171 66.7888 118.352 67.0682 118.487 67.4162C118.622 67.7642 118.689 68.1927 118.689 68.7017V69.0568H114.485V68.3324H117.837C117.837 68.0246 117.776 67.75 117.653 67.5085C117.532 67.267 117.359 67.0765 117.134 66.9368C116.912 66.7971 116.649 66.7273 116.346 66.7273C116.012 66.7273 115.723 66.8101 115.479 66.9759C115.238 67.1392 115.052 67.3523 114.922 67.6151C114.791 67.8778 114.726 68.1596 114.726 68.4602V68.9432C114.726 69.3551 114.797 69.7043 114.939 69.9908C115.084 70.2749 115.284 70.4915 115.54 70.6406C115.795 70.7874 116.092 70.8608 116.431 70.8608C116.651 70.8608 116.85 70.83 117.028 70.7685C117.207 70.7045 117.363 70.6098 117.493 70.4844C117.623 70.3565 117.724 70.1979 117.795 70.0085L118.604 70.2358C118.519 70.5104 118.376 70.7519 118.175 70.9602C117.973 71.1662 117.725 71.3272 117.429 71.4432C117.133 71.5568 116.8 71.6136 116.431 71.6136ZM121.569 71.6278C121.224 71.6278 120.91 71.5627 120.628 71.4325C120.347 71.3 120.123 71.1094 119.957 70.8608C119.791 70.6098 119.709 70.3068 119.709 69.9517C119.709 69.6392 119.77 69.3859 119.893 69.1918C120.016 68.9953 120.181 68.8414 120.387 68.7301C120.593 68.6188 120.82 68.536 121.069 68.4815C121.32 68.4247 121.572 68.3797 121.825 68.3466C122.157 68.304 122.425 68.272 122.631 68.2507C122.84 68.227 122.991 68.188 123.086 68.1335C123.183 68.0791 123.231 67.9844 123.231 67.8494V67.821C123.231 67.4706 123.135 67.1984 122.944 67.0043C122.754 66.8101 122.467 66.7131 122.081 66.7131C121.681 66.7131 121.367 66.8007 121.14 66.9759C120.912 67.151 120.753 67.3381 120.66 67.5369L119.865 67.2528C120.007 66.9214 120.196 66.6634 120.433 66.4787C120.672 66.2917 120.933 66.1615 121.214 66.0881C121.498 66.0123 121.778 65.9744 122.052 65.9744C122.228 65.9744 122.429 65.9957 122.656 66.0384C122.886 66.0786 123.107 66.1626 123.32 66.2905C123.536 66.4183 123.714 66.6113 123.856 66.8693C123.998 67.1274 124.069 67.473 124.069 67.9062V71.5H123.231V70.7614H123.189C123.132 70.8797 123.037 71.0064 122.905 71.1413C122.772 71.2763 122.596 71.3911 122.376 71.4858C122.155 71.5805 121.887 71.6278 121.569 71.6278ZM121.697 70.875C122.029 70.875 122.308 70.8099 122.535 70.6797C122.765 70.5495 122.938 70.3814 123.054 70.1754C123.172 69.9695 123.231 69.7528 123.231 69.5256V68.7585C123.196 68.8011 123.118 68.8402 122.997 68.8757C122.879 68.9089 122.741 68.9384 122.585 68.9645C122.431 68.9882 122.281 69.0095 122.134 69.0284C121.99 69.045 121.872 69.0592 121.782 69.071C121.565 69.0994 121.361 69.1456 121.172 69.2095C120.985 69.2711 120.833 69.3646 120.717 69.4901C120.604 69.6132 120.547 69.7812 120.547 69.9943C120.547 70.2855 120.654 70.5057 120.87 70.6548C121.088 70.8016 121.363 70.875 121.697 70.875ZM126.437 64.2273V71.5H125.599V64.2273H126.437ZM130.259 71.6136C129.733 71.6136 129.28 71.4976 128.899 71.2656C128.52 71.0312 128.228 70.7045 128.022 70.2855C127.818 69.8641 127.716 69.3741 127.716 68.8153C127.716 68.2566 127.818 67.7642 128.022 67.3381C128.228 66.9096 128.514 66.5758 128.881 66.3366C129.251 66.0952 129.681 65.9744 130.174 65.9744C130.458 65.9744 130.738 66.0218 131.015 66.1165C131.292 66.2112 131.545 66.3651 131.772 66.5781C131.999 66.7888 132.18 67.0682 132.315 67.4162C132.45 67.7642 132.518 68.1927 132.518 68.7017V69.0568H128.313V68.3324H131.665C131.665 68.0246 131.604 67.75 131.481 67.5085C131.36 67.267 131.187 67.0765 130.962 66.9368C130.74 66.7971 130.477 66.7273 130.174 66.7273C129.84 66.7273 129.551 66.8101 129.307 66.9759C129.066 67.1392 128.88 67.3523 128.75 67.6151C128.62 67.8778 128.555 68.1596 128.555 68.4602V68.9432C128.555 69.3551 128.626 69.7043 128.768 69.9908C128.912 70.2749 129.112 70.4915 129.368 70.6406C129.623 70.7874 129.921 70.8608 130.259 70.8608C130.479 70.8608 130.678 70.83 130.856 70.7685C131.036 70.7045 131.191 70.6098 131.321 70.4844C131.451 70.3565 131.552 70.1979 131.623 70.0085L132.432 70.2358C132.347 70.5104 132.204 70.7519 132.003 70.9602C131.801 71.1662 131.553 71.3272 131.257 71.4432C130.961 71.5568 130.628 71.6136 130.259 71.6136ZM135.852 71.6136C135.398 71.6136 134.996 71.4988 134.648 71.2692C134.3 71.0372 134.028 70.7105 133.831 70.2891C133.635 69.8653 133.537 69.3646 133.537 68.7869C133.537 68.214 133.635 67.7169 133.831 67.2955C134.028 66.8741 134.301 66.5485 134.652 66.3189C135.002 66.0893 135.407 65.9744 135.866 65.9744C136.221 65.9744 136.502 66.0336 136.708 66.152C136.916 66.268 137.075 66.4006 137.184 66.5497C137.295 66.6965 137.381 66.8172 137.443 66.9119H137.514V64.2273H138.352V71.5H137.542V70.6619H137.443C137.381 70.7614 137.294 70.8868 137.18 71.0384C137.067 71.1875 136.904 71.3213 136.694 71.4396C136.483 71.5556 136.202 71.6136 135.852 71.6136ZM135.966 70.8608C136.302 70.8608 136.586 70.7732 136.818 70.598C137.05 70.4205 137.226 70.1754 137.347 69.8629C137.468 69.5481 137.528 69.1847 137.528 68.7727C137.528 68.3655 137.469 68.0092 137.351 67.7038C137.232 67.3961 137.057 67.157 136.825 66.9865C136.593 66.8137 136.307 66.7273 135.966 66.7273C135.611 66.7273 135.315 66.8184 135.078 67.0007C134.844 67.1806 134.667 67.4257 134.549 67.7358C134.433 68.0436 134.375 68.3892 134.375 68.7727C134.375 69.161 134.434 69.5137 134.552 69.831C134.673 70.1458 134.851 70.3968 135.085 70.5838C135.322 70.7685 135.615 70.8608 135.966 70.8608Z" fill="black"/>
<rect x="81.5" y="62" width="18" height="14" fill="white" stroke="black"/>
<path d="M111.858 86.0455C111.815 85.6856 111.643 85.4062 111.339 85.2074C111.036 85.0085 110.665 84.9091 110.224 84.9091C109.902 84.9091 109.621 84.9612 109.379 85.0653C109.14 85.1695 108.953 85.3127 108.818 85.495C108.686 85.6773 108.619 85.8845 108.619 86.1165C108.619 86.3106 108.665 86.4775 108.758 86.6172C108.853 86.7545 108.973 86.8693 109.12 86.9616C109.267 87.0516 109.421 87.1262 109.582 87.1854C109.743 87.2422 109.891 87.2884 110.026 87.3239L110.764 87.5227C110.954 87.5724 111.164 87.6411 111.396 87.7287C111.631 87.8163 111.854 87.9358 112.067 88.0874C112.283 88.2365 112.46 88.4283 112.6 88.6626C112.74 88.897 112.81 89.1847 112.81 89.5256C112.81 89.9186 112.707 90.2737 112.501 90.5909C112.297 90.9081 111.999 91.1603 111.606 91.3473C111.215 91.5343 110.741 91.6278 110.182 91.6278C109.661 91.6278 109.21 91.5438 108.829 91.3757C108.45 91.2076 108.152 90.9732 107.934 90.6726C107.719 90.3719 107.597 90.0227 107.568 89.625H108.477C108.501 89.8996 108.593 90.1269 108.754 90.3068C108.918 90.4844 109.124 90.617 109.372 90.7045C109.623 90.7898 109.893 90.8324 110.182 90.8324C110.518 90.8324 110.82 90.7779 111.087 90.669C111.355 90.5578 111.567 90.4039 111.723 90.2074C111.879 90.0085 111.957 89.7765 111.957 89.5114C111.957 89.2699 111.89 89.0734 111.755 88.9219C111.62 88.7704 111.442 88.6473 111.222 88.5526C111.002 88.4579 110.764 88.375 110.509 88.304L109.614 88.0483C109.045 87.8849 108.596 87.6518 108.264 87.3487C107.933 87.0457 107.767 86.6491 107.767 86.1591C107.767 85.7519 107.877 85.3968 108.097 85.0938C108.32 84.7884 108.618 84.5516 108.992 84.3835C109.369 84.2131 109.789 84.1278 110.253 84.1278C110.722 84.1278 111.138 84.2119 111.503 84.38C111.867 84.5457 112.156 84.773 112.369 85.0618C112.585 85.3506 112.698 85.6785 112.71 86.0455H111.858ZM116.431 91.6136C115.905 91.6136 115.452 91.4976 115.071 91.2656C114.692 91.0312 114.4 90.7045 114.194 90.2855C113.99 89.8641 113.888 89.3741 113.888 88.8153C113.888 88.2566 113.99 87.7642 114.194 87.3381C114.4 86.9096 114.686 86.5758 115.053 86.3366C115.422 86.0952 115.853 85.9744 116.346 85.9744C116.63 85.9744 116.91 86.0218 117.187 86.1165C117.464 86.2112 117.716 86.3651 117.944 86.5781C118.171 86.7888 118.352 87.0682 118.487 87.4162C118.622 87.7642 118.689 88.1927 118.689 88.7017V89.0568H114.485V88.3324H117.837C117.837 88.0246 117.776 87.75 117.653 87.5085C117.532 87.267 117.359 87.0765 117.134 86.9368C116.912 86.7971 116.649 86.7273 116.346 86.7273C116.012 86.7273 115.723 86.8101 115.479 86.9759C115.238 87.1392 115.052 87.3523 114.922 87.6151C114.791 87.8778 114.726 88.1596 114.726 88.4602V88.9432C114.726 89.3551 114.797 89.7043 114.939 89.9908C115.084 90.2749 115.284 90.4915 115.54 90.6406C115.795 90.7874 116.092 90.8608 116.431 90.8608C116.651 90.8608 116.85 90.83 117.028 90.7685C117.207 90.7045 117.363 90.6098 117.493 90.4844C117.623 90.3565 117.724 90.1979 117.795 90.0085L118.604 90.2358C118.519 90.5104 118.376 90.7519 118.175 90.9602C117.973 91.1662 117.725 91.3272 117.429 91.4432C117.133 91.5568 116.8 91.6136 116.431 91.6136ZM121.569 91.6278C121.224 91.6278 120.91 91.5627 120.628 91.4325C120.347 91.3 120.123 91.1094 119.957 90.8608C119.791 90.6098 119.709 90.3068 119.709 89.9517C119.709 89.6392 119.77 89.3859 119.893 89.1918C120.016 88.9953 120.181 88.8414 120.387 88.7301C120.593 88.6188 120.82 88.536 121.069 88.4815C121.32 88.4247 121.572 88.3797 121.825 88.3466C122.157 88.304 122.425 88.272 122.631 88.2507C122.84 88.227 122.991 88.188 123.086 88.1335C123.183 88.0791 123.231 87.9844 123.231 87.8494V87.821C123.231 87.4706 123.135 87.1984 122.944 87.0043C122.754 86.8101 122.467 86.7131 122.081 86.7131C121.681 86.7131 121.367 86.8007 121.14 86.9759C120.912 87.151 120.753 87.3381 120.66 87.5369L119.865 87.2528C120.007 86.9214 120.196 86.6634 120.433 86.4787C120.672 86.2917 120.933 86.1615 121.214 86.0881C121.498 86.0123 121.778 85.9744 122.052 85.9744C122.228 85.9744 122.429 85.9957 122.656 86.0384C122.886 86.0786 123.107 86.1626 123.32 86.2905C123.536 86.4183 123.714 86.6113 123.856 86.8693C123.998 87.1274 124.069 87.473 124.069 87.9062V91.5H123.231V90.7614H123.189C123.132 90.8797 123.037 91.0064 122.905 91.1413C122.772 91.2763 122.596 91.3911 122.376 91.4858C122.155 91.5805 121.887 91.6278 121.569 91.6278ZM121.697 90.875C122.029 90.875 122.308 90.8099 122.535 90.6797C122.765 90.5495 122.938 90.3814 123.054 90.1754C123.172 89.9695 123.231 89.7528 123.231 89.5256V88.7585C123.196 88.8011 123.118 88.8402 122.997 88.8757C122.879 88.9089 122.741 88.9384 122.585 88.9645C122.431 88.9882 122.281 89.0095 122.134 89.0284C121.99 89.045 121.872 89.0592 121.782 89.071C121.565 89.0994 121.361 89.1456 121.172 89.2095C120.985 89.2711 120.833 89.3646 120.717 89.4901C120.604 89.6132 120.547 89.7812 120.547 89.9943C120.547 90.2855 120.654 90.5057 120.87 90.6548C121.088 90.8016 121.363 90.875 121.697 90.875ZM126.437 84.2273V91.5H125.599V84.2273H126.437ZM130.259 91.6136C129.733 91.6136 129.28 91.4976 128.899 91.2656C128.52 91.0312 128.228 90.7045 128.022 90.2855C127.818 89.8641 127.716 89.3741 127.716 88.8153C127.716 88.2566 127.818 87.7642 128.022 87.3381C128.228 86.9096 128.514 86.5758 128.881 86.3366C129.251 86.0952 129.681 85.9744 130.174 85.9744C130.458 85.9744 130.738 86.0218 131.015 86.1165C131.292 86.2112 131.545 86.3651 131.772 86.5781C131.999 86.7888 132.18 87.0682 132.315 87.4162C132.45 87.7642 132.518 88.1927 132.518 88.7017V89.0568H128.313V88.3324H131.665C131.665 88.0246 131.604 87.75 131.481 87.5085C131.36 87.267 131.187 87.0765 130.962 86.9368C130.74 86.7971 130.477 86.7273 130.174 86.7273C129.84 86.7273 129.551 86.8101 129.307 86.9759C129.066 87.1392 128.88 87.3523 128.75 87.6151C128.62 87.8778 128.555 88.1596 128.555 88.4602V88.9432C128.555 89.3551 128.626 89.7043 128.768 89.9908C128.912 90.2749 129.112 90.4915 129.368 90.6406C129.623 90.7874 129.921 90.8608 130.259 90.8608C130.479 90.8608 130.678 90.83 130.856 90.7685C131.036 90.7045 131.191 90.6098 131.321 90.4844C131.451 90.3565 131.552 90.1979 131.623 90.0085L132.432 90.2358C132.347 90.5104 132.204 90.7519 132.003 90.9602C131.801 91.1662 131.553 91.3272 131.257 91.4432C130.961 91.5568 130.628 91.6136 130.259 91.6136ZM135.852 91.6136C135.398 91.6136 134.996 91.4988 134.648 91.2692C134.3 91.0372 134.028 90.7105 133.831 90.2891C133.635 89.8653 133.537 89.3646 133.537 88.7869C133.537 88.214 133.635 87.7169 133.831 87.2955C134.028 86.8741 134.301 86.5485 134.652 86.3189C135.002 86.0893 135.407 85.9744 135.866 85.9744C136.221 85.9744 136.502 86.0336 136.708 86.152C136.916 86.268 137.075 86.4006 137.184 86.5497C137.295 86.6965 137.381 86.8172 137.443 86.9119H137.514V84.2273H138.352V91.5H137.542V90.6619H137.443C137.381 90.7614 137.294 90.8868 137.18 91.0384C137.067 91.1875 136.904 91.3213 136.694 91.4396C136.483 91.5556 136.202 91.6136 135.852 91.6136ZM135.966 90.8608C136.302 90.8608 136.586 90.7732 136.818 90.598C137.05 90.4205 137.226 90.1754 137.347 89.8629C137.468 89.5481 137.528 89.1847 137.528 88.7727C137.528 88.3655 137.469 88.0092 137.351 87.7038C137.232 87.3961 137.057 87.157 136.825 86.9865C136.593 86.8137 136.307 86.7273 135.966 86.7273C135.611 86.7273 135.315 86.8184 135.078 87.0007C134.844 87.1806 134.667 87.4257 134.549 87.7358C134.433 88.0436 134.375 88.3892 134.375 88.7727C134.375 89.161 134.434 89.5137 134.552 89.831C134.673 90.1458 134.851 90.3968 135.085 90.5838C135.322 90.7685 135.615 90.8608 135.966 90.8608Z" fill="black"/>
<rect x="81.5" y="82" width="18" height="14" fill="white" stroke="black"/>
<path d="M112.653 23.2273H113.534V28.0426C113.534 28.5398 113.417 28.9837 113.183 29.3743C112.951 29.7625 112.623 30.0691 112.199 30.294C111.775 30.5166 111.278 30.6278 110.707 30.6278C110.137 30.6278 109.64 30.5166 109.216 30.294C108.792 30.0691 108.463 29.7625 108.229 29.3743C107.997 28.9837 107.881 28.5398 107.881 28.0426V23.2273H108.761V27.9716C108.761 28.3267 108.839 28.6428 108.996 28.9197C109.152 29.1944 109.375 29.411 109.663 29.5696C109.955 29.7259 110.303 29.804 110.707 29.804C111.112 29.804 111.46 29.7259 111.751 29.5696C112.043 29.411 112.265 29.1944 112.419 28.9197C112.575 28.6428 112.653 28.3267 112.653 27.9716V23.2273ZM116.017 27.2188V30.5H115.179V25.0455H115.989V25.8977H116.06C116.188 25.6207 116.382 25.3982 116.642 25.2301C116.903 25.0597 117.239 24.9744 117.651 24.9744C118.02 24.9744 118.343 25.0502 118.62 25.2017C118.897 25.3509 119.113 25.5781 119.267 25.8835C119.42 26.1866 119.497 26.5701 119.497 27.0341V30.5H118.659V27.0909C118.659 26.6624 118.548 26.3286 118.325 26.0895C118.103 25.848 117.798 25.7273 117.409 25.7273C117.142 25.7273 116.903 25.7853 116.692 25.9013C116.484 26.0173 116.319 26.1866 116.198 26.4091C116.078 26.6316 116.017 26.9015 116.017 27.2188ZM123.316 30.6136C122.79 30.6136 122.337 30.4976 121.956 30.2656C121.577 30.0312 121.284 29.7045 121.078 29.2855C120.875 28.8641 120.773 28.3741 120.773 27.8153C120.773 27.2566 120.875 26.7642 121.078 26.3381C121.284 25.9096 121.571 25.5758 121.938 25.3366C122.307 25.0952 122.738 24.9744 123.23 24.9744C123.515 24.9744 123.795 25.0218 124.072 25.1165C124.349 25.2112 124.601 25.3651 124.828 25.5781C125.056 25.7888 125.237 26.0682 125.372 26.4162C125.507 26.7642 125.574 27.1927 125.574 27.7017V28.0568H121.37V27.3324H124.722C124.722 27.0246 124.66 26.75 124.537 26.5085C124.417 26.267 124.244 26.0765 124.019 25.9368C123.796 25.7971 123.533 25.7273 123.23 25.7273C122.897 25.7273 122.608 25.8101 122.364 25.9759C122.123 26.1392 121.937 26.3523 121.806 26.6151C121.676 26.8778 121.611 27.1596 121.611 27.4602V27.9432C121.611 28.3551 121.682 28.7043 121.824 28.9908C121.969 29.2749 122.169 29.4915 122.424 29.6406C122.68 29.7874 122.977 29.8608 123.316 29.8608C123.536 29.8608 123.735 29.83 123.912 29.7685C124.092 29.7045 124.247 29.6098 124.377 29.4844C124.508 29.3565 124.608 29.1979 124.679 29.0085L125.489 29.2358C125.404 29.5104 125.261 29.7519 125.059 29.9602C124.858 30.1662 124.609 30.3272 124.314 30.4432C124.018 30.5568 123.685 30.6136 123.316 30.6136ZM126.849 30.5V25.0455H127.659V25.8693H127.716C127.815 25.5994 127.995 25.3804 128.255 25.2124C128.516 25.0443 128.809 24.9602 129.136 24.9602C129.198 24.9602 129.275 24.9614 129.367 24.9638C129.459 24.9661 129.529 24.9697 129.576 24.9744V25.8267C129.548 25.8196 129.483 25.8089 129.381 25.7947C129.282 25.7782 129.176 25.7699 129.065 25.7699C128.8 25.7699 128.563 25.8255 128.355 25.9368C128.149 26.0457 127.985 26.1972 127.865 26.3913C127.746 26.5831 127.687 26.8021 127.687 27.0483V30.5H126.849ZM134.007 28.2699V25.0455H134.845V30.5H134.007V29.5767H133.95C133.823 29.8537 133.624 30.0893 133.354 30.2834C133.084 30.4751 132.743 30.571 132.331 30.571C131.99 30.571 131.687 30.4964 131.422 30.3473C131.157 30.1958 130.949 29.9685 130.797 29.6655C130.646 29.3601 130.57 28.9754 130.57 28.5114V25.0455H131.408V28.4545C131.408 28.8523 131.519 29.1695 131.742 29.4062C131.967 29.643 132.253 29.7614 132.601 29.7614C132.809 29.7614 133.021 29.7081 133.237 29.6016C133.454 29.495 133.637 29.3317 133.784 29.1115C133.933 28.8913 134.007 28.6108 134.007 28.2699ZM136.38 32.5455V25.0455H137.19V25.9119H137.289C137.351 25.8172 137.436 25.6965 137.545 25.5497C137.656 25.4006 137.815 25.268 138.021 25.152C138.229 25.0336 138.511 24.9744 138.866 24.9744C139.325 24.9744 139.73 25.0893 140.081 25.3189C140.431 25.5485 140.704 25.8741 140.901 26.2955C141.097 26.7169 141.196 27.214 141.196 27.7869C141.196 28.3646 141.097 28.8653 140.901 29.2891C140.704 29.7105 140.432 30.0372 140.084 30.2692C139.736 30.4988 139.335 30.6136 138.88 30.6136C138.53 30.6136 138.249 30.5556 138.039 30.4396C137.828 30.3213 137.666 30.1875 137.552 30.0384C137.439 29.8868 137.351 29.7614 137.289 29.6619H137.218V32.5455H136.38ZM137.204 27.7727C137.204 28.1847 137.265 28.5481 137.385 28.8629C137.506 29.1754 137.682 29.4205 137.914 29.598C138.146 29.7732 138.431 29.8608 138.767 29.8608C139.117 29.8608 139.409 29.7685 139.644 29.5838C139.881 29.3968 140.058 29.1458 140.176 28.831C140.297 28.5137 140.358 28.161 140.358 27.7727C140.358 27.3892 140.298 27.0436 140.18 26.7358C140.064 26.4257 139.888 26.1806 139.651 26.0007C139.417 25.8184 139.122 25.7273 138.767 25.7273C138.426 25.7273 138.139 25.8137 137.907 25.9865C137.675 26.157 137.5 26.3961 137.382 26.7038C137.263 27.0092 137.204 27.3655 137.204 27.7727ZM144.846 25.0455V25.7557H142.02V25.0455H144.846ZM142.843 23.7386H143.681V28.9375C143.681 29.1742 143.716 29.3518 143.784 29.4702C143.855 29.5862 143.945 29.6643 144.054 29.7045C144.166 29.7424 144.283 29.7614 144.406 29.7614C144.498 29.7614 144.574 29.7566 144.633 29.7472C144.692 29.7353 144.74 29.7259 144.775 29.7188L144.946 30.4716C144.889 30.4929 144.81 30.5142 144.708 30.5355C144.606 30.5592 144.477 30.571 144.321 30.571C144.084 30.571 143.852 30.5201 143.625 30.4183C143.4 30.3165 143.213 30.1615 143.064 29.9531C142.917 29.7448 142.843 29.482 142.843 29.1648V23.7386ZM148.335 30.6136C147.81 30.6136 147.356 30.4976 146.975 30.2656C146.596 30.0312 146.304 29.7045 146.098 29.2855C145.894 28.8641 145.793 28.3741 145.793 27.8153C145.793 27.2566 145.894 26.7642 146.098 26.3381C146.304 25.9096 146.59 25.5758 146.957 25.3366C147.327 25.0952 147.758 24.9744 148.25 24.9744C148.534 24.9744 148.815 25.0218 149.092 25.1165C149.369 25.2112 149.621 25.3651 149.848 25.5781C150.075 25.7888 150.256 26.0682 150.391 26.4162C150.526 26.7642 150.594 27.1927 150.594 27.7017V28.0568H146.389V27.3324H149.741C149.741 27.0246 149.68 26.75 149.557 26.5085C149.436 26.267 149.263 26.0765 149.038 25.9368C148.816 25.7971 148.553 25.7273 148.25 25.7273C147.916 25.7273 147.627 25.8101 147.384 25.9759C147.142 26.1392 146.956 26.3523 146.826 26.6151C146.696 26.8778 146.631 27.1596 146.631 27.4602V27.9432C146.631 28.3551 146.702 28.7043 146.844 28.9908C146.988 29.2749 147.188 29.4915 147.444 29.6406C147.7 29.7874 147.997 29.8608 148.335 29.8608C148.555 29.8608 148.754 29.83 148.932 29.7685C149.112 29.7045 149.267 29.6098 149.397 29.4844C149.527 29.3565 149.628 29.1979 149.699 29.0085L150.509 29.2358C150.423 29.5104 150.28 29.7519 150.079 29.9602C149.878 30.1662 149.629 30.3272 149.333 30.4432C149.037 30.5568 148.705 30.6136 148.335 30.6136ZM153.928 30.6136C153.474 30.6136 153.072 30.4988 152.724 30.2692C152.376 30.0372 152.104 29.7105 151.908 29.2891C151.711 28.8653 151.613 28.3646 151.613 27.7869C151.613 27.214 151.711 26.7169 151.908 26.2955C152.104 25.8741 152.378 25.5485 152.728 25.3189C153.078 25.0893 153.483 24.9744 153.942 24.9744C154.298 24.9744 154.578 25.0336 154.784 25.152C154.992 25.268 155.151 25.4006 155.26 25.5497C155.371 25.6965 155.458 25.8172 155.519 25.9119H155.59V23.2273H156.428V30.5H155.619V29.6619H155.519C155.458 29.7614 155.37 29.8868 155.256 30.0384C155.143 30.1875 154.981 30.3213 154.77 30.4396C154.559 30.5556 154.279 30.6136 153.928 30.6136ZM154.042 29.8608C154.378 29.8608 154.662 29.7732 154.894 29.598C155.126 29.4205 155.303 29.1754 155.423 28.8629C155.544 28.5481 155.604 28.1847 155.604 27.7727C155.604 27.3655 155.545 27.0092 155.427 26.7038C155.308 26.3961 155.133 26.157 154.901 25.9865C154.669 25.8137 154.383 25.7273 154.042 25.7273C153.687 25.7273 153.391 25.8184 153.154 26.0007C152.92 26.1806 152.743 26.4257 152.625 26.7358C152.509 27.0436 152.451 27.3892 152.451 27.7727C152.451 28.161 152.51 28.5137 152.629 28.831C152.749 29.1458 152.927 29.3968 153.161 29.5838C153.398 29.7685 153.692 29.8608 154.042 29.8608Z" fill="black"/>
<rect x="81.5" y="21" width="18" height="14" fill="white" stroke="black"/>
<path d="M9.55018 31.65L18.0252 23.175C18.2252 22.975 18.4585 22.875 18.7252 22.875C18.9918 22.875 19.2252 22.975 19.4252 23.175C19.6252 23.375 19.7252 23.6127 19.7252 23.888C19.7252 24.1633 19.6252 24.4007 19.4252 24.6L10.2502 33.8C10.0502 34 9.81685 34.1 9.55018 34.1C9.28351 34.1 9.05018 34 8.85018 33.8L4.55018 29.5C4.35018 29.3 4.25418 29.0627 4.26218 28.788C4.27018 28.5133 4.37451 28.2757 4.57518 28.075C4.77585 27.8743 5.01351 27.7743 5.28818 27.775C5.56285 27.7757 5.80018 27.8757 6.00018 28.075L9.55018 31.65Z" fill="black"/>
<path d="M8.88068 71.5V64.2273H13.2415V65.0085H9.76136V67.4659H12.9148V68.2472H9.76136V71.5H8.88068Z" fill="black"/>
<path d="M7.88068 84.2273H8.93182L11.4034 90.2642H11.4886L13.9602 84.2273H15.0114V91.5H14.1875V85.9744H14.1165L11.8438 91.5H11.0483L8.77557 85.9744H8.70455V91.5H7.88068V84.2273Z" fill="black"/>
<path d="M7.125 114.5H4.88068V107.227H7.22443C7.92992 107.227 8.53362 107.373 9.03551 107.664C9.53741 107.953 9.92211 108.368 10.1896 108.911C10.4571 109.45 10.5909 110.097 10.5909 110.849C10.5909 111.607 10.456 112.259 10.1861 112.806C9.91619 113.351 9.5232 113.77 9.0071 114.063C8.491 114.354 7.86364 114.5 7.125 114.5ZM5.76136 113.719H7.06818C7.66951 113.719 8.16785 113.603 8.56321 113.371C8.95857 113.139 9.25331 112.808 9.44744 112.38C9.64157 111.951 9.73864 111.441 9.73864 110.849C9.73864 110.262 9.64276 109.757 9.45099 109.333C9.25923 108.907 8.97277 108.58 8.59162 108.353C8.21046 108.123 7.7358 108.009 7.16761 108.009H5.76136V113.719ZM12.3771 107.227L14.2521 110.253H14.3089L16.1839 107.227H17.2209L14.9339 110.864L17.2209 114.5H16.1839L14.3089 111.531H14.2521L12.3771 114.5H11.3402L13.6839 110.864L11.3402 107.227H12.3771Z" fill="black"/>
<path d="M89.6534 24.2273H90.5341V29.0426C90.5341 29.5398 90.4169 29.9837 90.1825 30.3743C89.9505 30.7625 89.6226 31.0691 89.1989 31.294C88.7751 31.5166 88.2779 31.6278 87.7074 31.6278C87.1368 31.6278 86.6397 31.5166 86.2159 31.294C85.7921 31.0691 85.4631 30.7625 85.2287 30.3743C84.9967 29.9837 84.8807 29.5398 84.8807 29.0426V24.2273H85.7614V28.9716C85.7614 29.3267 85.8395 29.6428 85.9957 29.9197C86.152 30.1944 86.3745 30.411 86.6634 30.5696C86.9545 30.7259 87.3026 30.804 87.7074 30.804C88.1122 30.804 88.4602 30.7259 88.7514 30.5696C89.0426 30.411 89.2652 30.1944 89.419 29.9197C89.5753 29.6428 89.6534 29.3267 89.6534 28.9716V24.2273ZM93.0172 28.2188V31.5H92.1792V26.0455H92.9888V26.8977H93.0598C93.1877 26.6207 93.3818 26.3982 93.6422 26.2301C93.9026 26.0597 94.2388 25.9744 94.6507 25.9744C95.0201 25.9744 95.3432 26.0502 95.6202 26.2017C95.8972 26.3509 96.1126 26.5781 96.2665 26.8835C96.4204 27.1866 96.4973 27.5701 96.4973 28.0341V31.5H95.6593V28.0909C95.6593 27.6624 95.548 27.3286 95.3255 27.0895C95.1029 26.848 94.7975 26.7273 94.4093 26.7273C94.1417 26.7273 93.9026 26.7853 93.6919 26.9013C93.4836 27.0173 93.3191 27.1866 93.1983 27.4091C93.0776 27.6316 93.0172 27.9015 93.0172 28.2188Z" fill="black"/>
<path d="M91.858 47.0455C91.8153 46.6856 91.6425 46.4062 91.3395 46.2074C91.0365 46.0085 90.6648 45.9091 90.2244 45.9091C89.9025 45.9091 89.6207 45.9612 89.3793 46.0653C89.1402 46.1695 88.9531 46.3127 88.8182 46.495C88.6856 46.6773 88.6193 46.8845 88.6193 47.1165C88.6193 47.3106 88.6655 47.4775 88.7578 47.6172C88.8525 47.7545 88.9732 47.8693 89.12 47.9616C89.2668 48.0516 89.4207 48.1262 89.5817 48.1854C89.7427 48.2422 89.8906 48.2884 90.0256 48.3239L90.7642 48.5227C90.9536 48.5724 91.1643 48.6411 91.3963 48.7287C91.6307 48.8163 91.8544 48.9358 92.0675 49.0874C92.2829 49.2365 92.4605 49.4283 92.6001 49.6626C92.7398 49.897 92.8097 50.1847 92.8097 50.5256C92.8097 50.9186 92.7067 51.2737 92.5007 51.5909C92.2971 51.9081 91.9988 52.1603 91.6058 52.3473C91.2152 52.5343 90.7405 52.6278 90.1818 52.6278C89.661 52.6278 89.21 52.5438 88.8288 52.3757C88.45 52.2076 88.1518 51.9732 87.9339 51.6726C87.7185 51.3719 87.5966 51.0227 87.5682 50.625H88.4773C88.5009 50.8996 88.5933 51.1269 88.7543 51.3068C88.9176 51.4844 89.1236 51.617 89.3722 51.7045C89.6231 51.7898 89.893 51.8324 90.1818 51.8324C90.518 51.8324 90.8198 51.7779 91.0874 51.669C91.3549 51.5578 91.5668 51.4039 91.723 51.2074C91.8793 51.0085 91.9574 50.7765 91.9574 50.5114C91.9574 50.2699 91.8899 50.0734 91.755 49.9219C91.62 49.7704 91.4425 49.6473 91.2223 49.5526C91.0021 49.4579 90.7642 49.375 90.5085 49.304L89.6136 49.0483C89.0455 48.8849 88.5956 48.6518 88.2642 48.3487C87.9328 48.0457 87.767 47.6491 87.767 47.1591C87.767 46.7519 87.8771 46.3968 88.0973 46.0938C88.3198 45.7884 88.6181 45.5516 88.9922 45.3835C89.3686 45.2131 89.7888 45.1278 90.2528 45.1278C90.7216 45.1278 91.1383 45.2119 91.5028 45.38C91.8674 45.5457 92.1563 45.773 92.3693 46.0618C92.5848 46.3506 92.6984 46.6785 92.7102 47.0455H91.858Z" fill="black"/>
<path d="M87.6648 65.2273H88.5455V70.4261C88.5455 70.8902 88.4602 71.2843 88.2898 71.6087C88.1193 71.933 87.879 72.1792 87.5689 72.3473C87.2588 72.5154 86.893 72.5994 86.4716 72.5994C86.0739 72.5994 85.7199 72.5272 85.4098 72.3828C85.0997 72.236 84.8558 72.0277 84.6783 71.7578C84.5007 71.4879 84.4119 71.1671 84.4119 70.7955H85.2784C85.2784 71.0014 85.3293 71.1813 85.4311 71.3352C85.5353 71.4867 85.6773 71.6051 85.8572 71.6903C86.0372 71.7756 86.242 71.8182 86.4716 71.8182C86.7249 71.8182 86.9403 71.7649 87.1179 71.6584C87.2955 71.5518 87.4304 71.3956 87.5227 71.1896C87.6174 70.9813 87.6648 70.7268 87.6648 70.4261V65.2273ZM96.1626 67.5H95.282C95.2299 67.2467 95.1387 67.0241 95.0085 66.8324C94.8807 66.6406 94.7244 66.4796 94.5398 66.3494C94.3575 66.2169 94.1551 66.1174 93.9325 66.0511C93.71 65.9848 93.478 65.9517 93.2365 65.9517C92.7962 65.9517 92.3973 66.063 92.0398 66.2855C91.6847 66.508 91.4018 66.8359 91.1911 67.2692C90.9827 67.7024 90.8786 68.2339 90.8786 68.8636C90.8786 69.4934 90.9827 70.0249 91.1911 70.4581C91.4018 70.8913 91.6847 71.2192 92.0398 71.4418C92.3973 71.6643 92.7962 71.7756 93.2365 71.7756C93.478 71.7756 93.71 71.7424 93.9325 71.6761C94.1551 71.6098 94.3575 71.5116 94.5398 71.3814C94.7244 71.2488 94.8807 71.0866 95.0085 70.8949C95.1387 70.7008 95.2299 70.4782 95.282 70.2273H96.1626C96.0964 70.599 95.9756 70.9316 95.8004 71.2251C95.6252 71.5187 95.4074 71.7685 95.147 71.9744C94.8866 72.178 94.5942 72.3331 94.2699 72.4396C93.9479 72.5462 93.6035 72.5994 93.2365 72.5994C92.6162 72.5994 92.0646 72.4479 91.5817 72.1449C91.0987 71.8419 90.7188 71.411 90.4418 70.8523C90.1648 70.2936 90.0263 69.6307 90.0263 68.8636C90.0263 68.0966 90.1648 67.4337 90.4418 66.875C90.7188 66.3163 91.0987 65.8854 91.5817 65.5824C92.0646 65.2794 92.6162 65.1278 93.2365 65.1278C93.6035 65.1278 93.9479 65.1811 94.2699 65.2876C94.5942 65.3942 94.8866 65.5504 95.147 65.7564C95.4074 65.96 95.6252 66.2086 95.8004 66.5021C95.9756 66.7933 96.0964 67.1259 96.1626 67.5Z" fill="black"/>
<path d="M88.8807 92.5V85.2273H91.3381C91.9086 85.2273 92.375 85.3303 92.7372 85.5362C93.1018 85.7398 93.3717 86.0156 93.5469 86.3636C93.7221 86.7116 93.8097 87.0999 93.8097 87.5284C93.8097 87.9569 93.7221 88.3464 93.5469 88.6967C93.3741 89.0471 93.1065 89.3265 92.7443 89.5348C92.3821 89.7408 91.9181 89.8438 91.3523 89.8438H89.5909V89.0625H91.3239C91.7145 89.0625 92.0282 88.995 92.2649 88.8601C92.5017 88.7251 92.6733 88.5429 92.7798 88.3132C92.8887 88.0812 92.9432 87.8196 92.9432 87.5284C92.9432 87.2372 92.8887 86.9768 92.7798 86.7472C92.6733 86.5175 92.5005 86.3376 92.2614 86.2074C92.0223 86.0748 91.705 86.0085 91.3097 86.0085H89.7614V92.5H88.8807Z" fill="black"/>
</svg>
