<svg width="30" height="30" viewBox="0 0 30 30" fill="none" xmlns="http://www.w3.org/2000/svg">
<path d="M11.5 4.82112C11.5 6.09976 11.0259 7.32603 10.182 8.23017C9.33807 9.1343 8.19347 9.64224 7 9.64224C5.80653 9.64224 4.66193 9.1343 3.81802 8.23017C2.97411 7.32603 2.5 6.09976 2.5 4.82112C2.5 3.54248 2.97411 2.31621 3.81802 1.41207C4.66193 0.507938 5.80653 5.12133e-07 7 5.12133e-07C8.19347 5.12133e-07 9.33807 0.507938 10.182 1.41207C11.0259 2.31621 11.5 3.54248 11.5 4.82112ZM2 10.7136C1.46957 10.7136 0.960859 10.9394 0.585786 11.3412C0.210714 11.743 0 12.288 0 12.8563V22.4986C-1.93718e-08 23.4834 0.18106 24.4586 0.532843 25.3685C0.884626 26.2784 1.40024 27.1051 2.05025 27.8015C2.70026 28.4979 3.47194 29.0503 4.32122 29.4272C5.17049 29.8041 6.08075 29.9981 7 29.9981C7.91925 29.9981 8.8295 29.8041 9.67878 29.4272C10.5281 29.0503 11.2997 28.4979 11.9497 27.8015C12.5998 27.1051 13.1154 26.2784 13.4672 25.3685C13.8189 24.4586 14 23.4834 14 22.4986V12.8563C14 12.288 13.7893 11.743 13.4142 11.3412C13.0391 10.9394 12.5304 10.7136 12 10.7136H2ZM13.5 4.82112C13.5 6.21389 13.12 7.51023 12.46 8.59874C13.286 8.70159 14.034 9.07013 14.628 9.62724C14.7493 9.63581 14.8733 9.64081 15 9.64224C15.709 9.64219 16.408 9.46264 17.04 9.11823C17.6719 8.77383 18.219 8.27431 18.6365 7.6604C19.0541 7.04648 19.3303 6.33555 19.4427 5.58555C19.5552 4.83554 19.5006 4.06769 19.2834 3.34457C19.0663 2.62146 18.6927 1.96355 18.1932 1.42448C17.6937 0.885401 17.0823 0.480413 16.409 0.242522C15.7356 0.00463054 15.0193 -0.0594297 14.3185 0.0555621C13.6176 0.170554 12.952 0.461343 12.376 0.904228C13.084 2.02059 13.5 3.36836 13.5 4.82112ZM13 29.6874C13.944 28.7827 14.6992 27.6748 15.2162 26.436C15.7332 25.1972 16.0003 23.8555 16 22.4986V12.8563C16 12.0764 15.804 11.3436 15.464 10.7136H20C20.5304 10.7136 21.0391 10.9394 21.4142 11.3412C21.7893 11.743 22 12.288 22 12.8563V22.4986C22.0003 23.6668 21.7458 24.8189 21.2569 25.8631C20.768 26.9073 20.0582 27.8146 19.184 28.5129C18.3098 29.2112 17.2955 29.681 16.2219 29.8849C15.1482 30.0888 14.0449 30.0212 13 29.6874ZM21.5 4.82112C21.5 6.21389 21.12 7.51023 20.46 8.59874C21.286 8.70159 22.034 9.07013 22.628 9.62724C22.7493 9.63581 22.8733 9.64081 23 9.64224C23.709 9.64219 24.408 9.46264 25.04 9.11823C25.6719 8.77383 26.219 8.27431 26.6365 7.6604C27.0541 7.04648 27.3303 6.33555 27.4427 5.58555C27.5552 4.83554 27.5006 4.06769 27.2834 3.34457C27.0663 2.62146 26.6927 1.96355 26.1932 1.42448C25.6937 0.885401 25.0823 0.480413 24.409 0.242522C23.7356 0.00463054 23.0193 -0.0594297 22.3185 0.0555621C21.6176 0.170554 20.952 0.461343 20.376 0.904228C21.084 2.02059 21.5 3.36836 21.5 4.82112ZM21 29.6874C21.944 28.7827 22.6992 27.6748 23.2162 26.436C23.7332 25.1972 24.0003 23.8555 24 22.4986V12.8563C24 12.0764 23.804 11.3436 23.464 10.7136H28C28.5304 10.7136 29.0391 10.9394 29.4142 11.3412C29.7893 11.743 30 12.288 30 12.8563V22.4986C30.0003 23.6668 29.7458 24.8189 29.2569 25.8631C28.768 26.9073 28.0582 27.8146 27.184 28.5129C26.3098 29.2112 25.2955 29.681 24.2219 29.8849C23.1482 30.0888 22.0449 30.0212 21 29.6874Z" fill="#1B93D5"/>
</svg>
