<svg width="218" height="242" viewBox="0 0 218 242" fill="none" xmlns="http://www.w3.org/2000/svg">
<path d="M109.002 60.5C113.969 60.5 118.653 59.7122 123.052 58.1367C127.452 56.5612 131.852 54.8281 136.251 52.9375C140.651 51.0469 145.015 49.3138 149.344 47.7383C153.673 46.1628 158.392 45.375 163.501 45.375V60.5C160.379 60.5 157.398 60.8545 154.56 61.5635C151.721 62.2725 148.954 63.2178 146.257 64.3994C143.561 65.5811 140.793 66.8021 137.955 68.0625C135.116 69.3229 132.242 70.5439 129.333 71.7256C126.423 72.9072 123.265 73.8131 119.859 74.4434C116.453 75.0736 112.834 75.4674 109.002 75.625C105.099 75.625 101.48 75.2705 98.1447 74.5615C94.8094 73.8525 91.6516 72.9072 88.6712 71.7256C85.6908 70.5439 82.8523 69.3229 80.1557 68.0625C77.4592 66.8021 74.6916 65.5811 71.8531 64.3994C69.0146 63.2178 66.2116 62.3118 63.4441 61.6816C60.6766 61.0514 57.6962 60.6576 54.5028 60.5V45.375C59.3993 45.375 64.0828 46.1628 68.5534 47.7383C73.024 49.3138 77.4237 51.0469 81.7524 52.9375C86.0811 54.8281 90.4807 56.5612 94.9514 58.1367C99.422 59.7122 104.106 60.5 109.002 60.5ZM218 68.417C218 82.3604 217.077 96.54 215.232 110.956C213.387 125.372 210.691 139.67 207.143 153.85C203.595 168.029 199.124 181.776 193.731 195.089C188.338 208.402 182.2 220.967 175.316 232.783C173.613 235.619 171.449 237.864 168.823 239.519C166.198 241.173 163.324 242 160.201 242C156.298 242 152.786 240.779 149.663 238.337C146.541 235.895 144.377 232.586 143.17 228.411L124.223 165.548C121.74 165.863 119.22 166.06 116.666 166.139C114.111 166.217 111.557 166.296 109.002 166.375C106.447 166.375 103.893 166.336 101.338 166.257C98.7833 166.178 96.2642 165.942 93.7805 165.548L74.8335 228.411C73.6272 232.507 71.4628 235.777 68.3405 238.219C65.2182 240.661 61.7055 241.921 57.8026 242C54.6803 242 51.8063 241.173 49.1807 239.519C46.5551 237.864 44.3907 235.619 42.6876 232.783C35.7333 221.046 29.5951 208.52 24.2729 195.207C18.9507 181.894 14.5156 168.147 10.9675 153.968C7.41936 139.788 4.68731 125.49 2.77133 111.074C0.855349 96.6582 -0.0671608 82.4391 0.00380155 68.417C0.00380155 59.5941 1.21016 51.0863 3.62288 42.8936C6.0356 34.7008 9.54823 27.4141 14.1608 21.0332C18.7733 14.6523 24.4503 9.57129 31.1917 5.79004C37.9332 2.00879 45.6326 0.078776 54.29 0C59.3283 0 64.0473 0.78776 68.4469 2.36328C72.8466 3.9388 77.2463 5.67188 81.6459 7.5625C86.0456 9.45312 90.4098 11.1862 94.7385 12.7617C99.0672 14.3372 103.822 15.125 109.002 15.125C114.04 15.125 118.759 14.3372 123.159 12.7617C127.559 11.1862 131.958 9.45312 136.358 7.5625C140.758 5.67188 145.122 3.9388 149.45 2.36328C153.779 0.78776 158.534 0 163.714 0C172.371 0 180.071 1.89062 186.812 5.67188C193.553 9.45312 199.23 14.5342 203.843 20.915C208.456 27.2959 211.968 34.5827 214.381 42.7754C216.794 50.9681 218 59.5153 218 68.417ZM204.375 68.6533C204.375 61.3271 203.488 54.4342 201.714 47.9746C199.94 41.515 197.279 35.8431 193.731 30.959C190.183 26.0749 185.712 22.2148 180.319 19.3789C174.926 16.543 168.717 15.125 161.691 15.125C157.576 15.125 153.637 15.9128 149.876 17.4883C146.115 19.0638 142.141 20.7969 137.955 22.6875C133.768 24.5781 129.368 26.3112 124.756 27.8867C120.143 29.4622 114.892 30.25 109.002 30.25C103.112 30.25 97.8608 29.4622 93.2483 27.8867C88.6357 26.3112 84.2361 24.5781 80.0493 22.6875C75.8625 20.7969 71.8176 19.0638 67.9147 17.4883C64.0118 15.9128 59.6831 15.125 54.9286 15.125C48.0453 15.125 42.0135 16.6217 36.8332 19.6152C31.653 22.6087 27.3598 26.5869 23.9536 31.5498C20.5474 36.5127 17.9573 42.1846 16.1832 48.5654C14.4091 54.9463 13.5576 61.6423 13.6286 68.6533C13.6286 76.3734 14.0189 84.6842 14.7994 93.5859C15.58 102.488 16.7864 111.704 18.4185 121.236C20.0507 130.768 22.0021 140.261 24.2729 149.714C26.5437 159.167 29.2048 168.463 32.2562 177.601C35.3075 186.739 38.6783 195.246 42.3683 203.124C46.0583 211.002 50.0322 218.17 54.29 224.63C55.3544 226.127 56.7027 226.875 58.3348 226.875C59.1864 226.875 60.2863 225.457 61.6346 222.621C62.9828 219.785 64.4021 216.083 65.8923 211.514C67.3825 206.945 68.9792 201.982 70.6823 196.625C72.3854 191.268 73.911 186.03 75.2593 180.909C76.6076 175.789 77.9204 171.141 79.1977 166.966C80.475 162.791 81.3266 159.758 81.7524 157.867C82.3201 155.819 83.3845 154.047 84.9457 152.55C86.5068 151.053 88.3519 150.265 90.4807 150.187C93.6031 150.187 96.6899 150.344 99.7413 150.659C102.793 150.974 105.88 151.171 109.002 151.25C112.124 151.25 115.211 151.092 118.262 150.777C121.314 150.462 124.401 150.265 127.523 150.187C129.581 150.187 131.391 150.935 132.952 152.432C134.513 153.928 135.613 155.74 136.251 157.867C136.819 159.758 137.671 162.791 138.806 166.966C139.941 171.141 141.219 175.749 142.638 180.791C144.057 185.833 145.618 191.111 147.322 196.625C149.025 202.139 150.586 207.102 152.005 211.514C153.424 215.925 154.879 219.588 156.369 222.503C157.859 225.418 158.959 226.875 159.669 226.875C161.301 226.875 162.649 226.127 163.714 224.63C167.972 218.328 171.945 211.159 175.636 203.124C179.326 195.089 182.661 186.581 185.641 177.601C188.622 168.62 191.283 159.364 193.624 149.832C195.966 140.3 197.918 130.808 199.479 121.354C201.04 111.901 202.246 102.685 203.098 93.7041C203.949 84.7236 204.375 76.3734 204.375 68.6533Z" fill="#659BB5"/>
</svg>
