<svg width="152" height="119" viewBox="0 0 152 119" fill="none" xmlns="http://www.w3.org/2000/svg">
<path d="M0.482955 0.781472V0.000221729H5.9375V0.781472H3.65057V7.27295H2.76989V0.781472H0.482955ZM6.61665 7.27295V1.8184H7.42631V2.64227H7.48313C7.58256 2.37238 7.76249 2.15339 8.0229 1.98531C8.28332 1.81722 8.57688 1.73318 8.90359 1.73318C8.96514 1.73318 9.04208 1.73436 9.13441 1.73673C9.22674 1.73909 9.29658 1.74265 9.34393 1.74738V2.59965C9.31552 2.59255 9.25041 2.5819 9.14862 2.56769C9.04918 2.55112 8.94383 2.54284 8.83256 2.54284C8.56741 2.54284 8.33067 2.59847 8.12234 2.70974C7.91637 2.81864 7.75302 2.97016 7.63228 3.16428C7.51391 3.35605 7.45472 3.57503 7.45472 3.82124V7.27295H6.61665ZM12.4583 7.38659C11.9327 7.38659 11.4793 7.27058 11.0982 7.03857C10.7194 6.8042 10.427 6.47749 10.2211 6.05846C10.0175 5.63706 9.91566 5.147 9.91566 4.58829C9.91566 4.02958 10.0175 3.53715 10.2211 3.11102C10.427 2.68251 10.7135 2.34871 11.0804 2.1096C11.4498 1.86812 11.8806 1.74738 12.373 1.74738C12.6571 1.74738 12.9377 1.79473 13.2147 1.88943C13.4917 1.98412 13.7438 2.13801 13.9711 2.35107C14.1983 2.56177 14.3794 2.84113 14.5144 3.18914C14.6493 3.53715 14.7168 3.96566 14.7168 4.47465V4.82977H10.5123V4.10534H13.8645C13.8645 3.79757 13.803 3.52295 13.6799 3.28147C13.5591 3.03999 13.3863 2.84942 13.1614 2.70974C12.9389 2.57006 12.6761 2.50022 12.373 2.50022C12.0392 2.50022 11.7504 2.58308 11.5066 2.7488C11.2651 2.91215 11.0792 3.12522 10.949 3.38801C10.8188 3.65079 10.7537 3.93251 10.7537 4.23318V4.71613C10.7537 5.12806 10.8248 5.47726 10.9668 5.76372C11.1112 6.04781 11.3113 6.26443 11.5669 6.41357C11.8226 6.56035 12.1197 6.63374 12.4583 6.63374C12.6784 6.63374 12.8773 6.60297 13.0549 6.54142C13.2348 6.47749 13.3899 6.3828 13.5201 6.25732C13.6503 6.12948 13.7509 5.97087 13.8219 5.78147L14.6316 6.00874C14.5463 6.28337 14.4031 6.52484 14.2019 6.73318C14.0007 6.93914 13.7521 7.10013 13.4561 7.21613C13.1602 7.32977 12.8276 7.38659 12.4583 7.38659ZM17.5968 7.40079C17.2511 7.40079 16.9374 7.33569 16.6557 7.20548C16.374 7.0729 16.1503 6.88232 15.9846 6.63374C15.8188 6.3828 15.736 6.07977 15.736 5.72465C15.736 5.41215 15.7975 5.15884 15.9206 4.96471C16.0437 4.76821 16.2083 4.61433 16.4142 4.50306C16.6202 4.39179 16.8475 4.30893 17.0961 4.25448C17.347 4.19767 17.5991 4.15268 17.8525 4.11954C18.1839 4.07693 18.4526 4.04497 18.6586 4.02366C18.8669 3.99999 19.0184 3.96092 19.1131 3.90647C19.2102 3.85202 19.2587 3.75732 19.2587 3.62238V3.59397C19.2587 3.24359 19.1628 2.97134 18.9711 2.77721C18.7817 2.58308 18.494 2.48602 18.1081 2.48602C17.708 2.48602 17.3944 2.57361 17.1671 2.7488C16.9398 2.92399 16.78 3.11102 16.6877 3.30988L15.8922 3.02579C16.0343 2.69435 16.2237 2.4363 16.4604 2.25164C16.6995 2.06462 16.9599 1.93441 17.2417 1.86102C17.5257 1.78526 17.8051 1.74738 18.0797 1.74738C18.2549 1.74738 18.4561 1.76869 18.6834 1.8113C18.9131 1.85155 19.1344 1.93559 19.3475 2.06343C19.5629 2.19127 19.7417 2.38422 19.8837 2.64227C20.0257 2.90032 20.0968 3.24596 20.0968 3.6792V7.27295H19.2587V6.53431H19.2161C19.1593 6.65268 19.0646 6.77934 18.932 6.91428C18.7994 7.04923 18.623 7.16405 18.4029 7.25874C18.1827 7.35344 17.914 7.40079 17.5968 7.40079ZM17.7246 6.64795C18.056 6.64795 18.3354 6.58285 18.5627 6.45264C18.7923 6.32243 18.9651 6.15434 19.0811 5.94838C19.1995 5.74241 19.2587 5.52579 19.2587 5.29852V4.53147C19.2232 4.57409 19.1451 4.61315 19.0243 4.64866C18.906 4.6818 18.7686 4.7114 18.6124 4.73744C18.4585 4.76111 18.3082 4.78242 18.1614 4.80136C18.017 4.81793 17.8998 4.83213 17.8098 4.84397C17.592 4.87238 17.3884 4.91855 17.199 4.98247C17.012 5.04402 16.8605 5.13753 16.7445 5.26301C16.6309 5.38611 16.574 5.5542 16.574 5.76727C16.574 6.05846 16.6818 6.27863 16.8972 6.42778C17.115 6.57456 17.3908 6.64795 17.7246 6.64795ZM23.9986 1.8184V2.52863H21.1719V1.8184H23.9986ZM21.9957 0.511585H22.8338V5.71045C22.8338 5.94719 22.8681 6.12475 22.9368 6.24312C23.0078 6.35912 23.0978 6.43725 23.2067 6.47749C23.3179 6.51537 23.4351 6.53431 23.5582 6.53431C23.6506 6.53431 23.7263 6.52958 23.7855 6.52011C23.8447 6.50827 23.892 6.4988 23.9276 6.4917L24.098 7.24454C24.0412 7.26585 23.9619 7.28715 23.8601 7.30846C23.7583 7.33213 23.6293 7.34397 23.473 7.34397C23.2363 7.34397 23.0043 7.29307 22.777 7.19127C22.5521 7.08947 22.3651 6.93441 22.2159 6.72607C22.0691 6.51774 21.9957 6.25496 21.9957 5.93772V0.511585ZM25.2592 7.27295V1.8184H26.0689V2.67068H26.1399C26.2536 2.37948 26.437 2.15339 26.6903 1.99241C26.9437 1.82906 27.2479 1.74738 27.603 1.74738C27.9628 1.74738 28.2623 1.82906 28.5014 1.99241C28.7429 2.15339 28.9311 2.37948 29.0661 2.67068H29.1229C29.2625 2.38895 29.4721 2.16523 29.7514 1.99951C30.0308 1.83142 30.3658 1.74738 30.7564 1.74738C31.2441 1.74738 31.643 1.90008 31.9531 2.20548C32.2633 2.50851 32.4183 2.98081 32.4183 3.62238V7.27295H31.5803V3.62238C31.5803 3.21992 31.4702 2.93228 31.25 2.75945C31.0298 2.58663 30.7706 2.50022 30.4723 2.50022C30.0888 2.50022 29.7917 2.61623 29.581 2.84823C29.3703 3.07787 29.2649 3.36907 29.2649 3.72181V7.27295H28.4126V3.53715C28.4126 3.22702 28.312 2.97726 28.1108 2.78786C27.9096 2.5961 27.6503 2.50022 27.3331 2.50022C27.1153 2.50022 26.9117 2.55822 26.7223 2.67423C26.5353 2.79023 26.3838 2.95122 26.2678 3.15718C26.1541 3.36078 26.0973 3.59634 26.0973 3.86386V7.27295H25.2592ZM36.2376 7.38659C35.712 7.38659 35.2586 7.27058 34.8775 7.03857C34.4987 6.8042 34.2063 6.47749 34.0004 6.05846C33.7968 5.63706 33.695 5.147 33.695 4.58829C33.695 4.02958 33.7968 3.53715 34.0004 3.11102C34.2063 2.68251 34.4928 2.34871 34.8597 2.1096C35.229 1.86812 35.6599 1.74738 36.1523 1.74738C36.4364 1.74738 36.717 1.79473 36.994 1.88943C37.271 1.98412 37.5231 2.13801 37.7504 2.35107C37.9776 2.56177 38.1587 2.84113 38.2937 3.18914C38.4286 3.53715 38.4961 3.96566 38.4961 4.47465V4.82977H34.2915V4.10534H37.6438C37.6438 3.79757 37.5823 3.52295 37.4592 3.28147C37.3384 3.03999 37.1656 2.84942 36.9407 2.70974C36.7182 2.57006 36.4554 2.50022 36.1523 2.50022C35.8185 2.50022 35.5297 2.58308 35.2859 2.7488C35.0444 2.91215 34.8585 3.12522 34.7283 3.38801C34.5981 3.65079 34.533 3.93251 34.533 4.23318V4.71613C34.533 5.12806 34.604 5.47726 34.7461 5.76372C34.8905 6.04781 35.0906 6.26443 35.3462 6.41357C35.6019 6.56035 35.899 6.63374 36.2376 6.63374C36.4577 6.63374 36.6566 6.60297 36.8342 6.54142C37.0141 6.47749 37.1692 6.3828 37.2994 6.25732C37.4296 6.12948 37.5302 5.97087 37.6012 5.78147L38.4109 6.00874C38.3256 6.28337 38.1824 6.52484 37.9812 6.73318C37.7799 6.93914 37.5314 7.10013 37.2354 7.21613C36.9395 7.32977 36.6069 7.38659 36.2376 7.38659ZM40.609 3.9917V7.27295H39.771V1.8184H40.5806V2.67068H40.6516C40.7795 2.39369 40.9736 2.17115 41.234 2.00306C41.4944 1.83261 41.8306 1.74738 42.2425 1.74738C42.6119 1.74738 42.935 1.82314 43.212 1.97465C43.489 2.1238 43.7044 2.35107 43.8583 2.65647C44.0122 2.9595 44.0891 3.34302 44.0891 3.80704V7.27295H43.2511V3.86386C43.2511 3.43535 43.1398 3.10155 42.9173 2.86244C42.6947 2.62096 42.3893 2.50022 42.0011 2.50022C41.7335 2.50022 41.4944 2.55822 41.2837 2.67423C41.0754 2.79023 40.9109 2.9595 40.7901 3.18204C40.6694 3.40458 40.609 3.67446 40.609 3.9917ZM47.9927 1.8184V2.52863H45.166V1.8184H47.9927ZM45.9899 0.511585H46.8279V5.71045C46.8279 5.94719 46.8623 6.12475 46.9309 6.24312C47.002 6.35912 47.0919 6.43725 47.2008 6.47749C47.3121 6.51537 47.4293 6.53431 47.5524 6.53431C47.6447 6.53431 47.7205 6.52958 47.7797 6.52011C47.8388 6.50827 47.8862 6.4988 47.9217 6.4917L48.0922 7.24454C48.0353 7.26585 47.956 7.28715 47.8542 7.30846C47.7524 7.33213 47.6234 7.34397 47.4672 7.34397C47.2304 7.34397 46.9984 7.29307 46.7711 7.19127C46.5462 7.08947 46.3592 6.93441 46.21 6.72607C46.0633 6.51774 45.9899 6.25496 45.9899 5.93772V0.511585Z" fill="black"/>
<path d="M26.7045 23.2729V17.4548H30.1932V18.0798H27.4091V20.0457H29.9318V20.6707H27.4091V23.2729H26.7045ZM31.9794 17.4548V23.2729H31.3089V17.4548H31.9794ZM34.9801 23.3639C34.5862 23.3639 34.2405 23.2701 33.9432 23.0826C33.6477 22.8951 33.4167 22.6328 33.25 22.2957C33.0852 21.9586 33.0028 21.5646 33.0028 21.1139C33.0028 20.6593 33.0852 20.2625 33.25 19.9235C33.4167 19.5845 33.6477 19.3212 33.9432 19.1337C34.2405 18.9462 34.5862 18.8525 34.9801 18.8525C35.3741 18.8525 35.7188 18.9462 36.0142 19.1337C36.3116 19.3212 36.5426 19.5845 36.7074 19.9235C36.8741 20.2625 36.9574 20.6593 36.9574 21.1139C36.9574 21.5646 36.8741 21.9586 36.7074 22.2957C36.5426 22.6328 36.3116 22.8951 36.0142 23.0826C35.7188 23.2701 35.3741 23.3639 34.9801 23.3639ZM34.9801 22.7616C35.2794 22.7616 35.5256 22.6849 35.7188 22.5315C35.9119 22.3781 36.0549 22.1764 36.1477 21.9264C36.2405 21.6764 36.2869 21.4055 36.2869 21.1139C36.2869 20.8222 36.2405 20.5504 36.1477 20.2985C36.0549 20.0466 35.9119 19.843 35.7188 19.6877C35.5256 19.5324 35.2794 19.4548 34.9801 19.4548C34.6809 19.4548 34.4347 19.5324 34.2415 19.6877C34.0483 19.843 33.9053 20.0466 33.8125 20.2985C33.7197 20.5504 33.6733 20.8222 33.6733 21.1139C33.6733 21.4055 33.7197 21.6764 33.8125 21.9264C33.9053 22.1764 34.0483 22.3781 34.2415 22.5315C34.4347 22.6849 34.6809 22.7616 34.9801 22.7616ZM40.7308 21.4889V18.9093H41.4013V23.2729H40.7308V22.5343H40.6854C40.5831 22.7559 40.424 22.9444 40.2081 23.0997C39.9922 23.2531 39.7195 23.3298 39.3899 23.3298C39.1172 23.3298 38.8748 23.2701 38.6626 23.1508C38.4505 23.0296 38.2839 22.8478 38.1626 22.6053C38.0414 22.361 37.9808 22.0533 37.9808 21.682V18.9093H38.6513V21.6366C38.6513 21.9548 38.7403 22.2086 38.9183 22.3979C39.0982 22.5873 39.3274 22.682 39.6058 22.682C39.7725 22.682 39.942 22.6394 40.1143 22.5542C40.2886 22.469 40.4344 22.3383 40.5518 22.1622C40.6712 21.986 40.7308 21.7616 40.7308 21.4889ZM42.6293 23.2729V18.9093H43.277V19.5684H43.3224C43.402 19.3525 43.5459 19.1773 43.7543 19.0428C43.9626 18.9084 44.1974 18.8411 44.4588 18.8411C44.508 18.8411 44.5696 18.8421 44.6435 18.844C44.7173 18.8459 44.7732 18.8487 44.8111 18.8525V19.5343C44.7884 19.5286 44.7363 19.5201 44.6548 19.5087C44.5753 19.4955 44.491 19.4889 44.402 19.4889C44.1899 19.4889 44.0005 19.5334 43.8338 19.6224C43.669 19.7095 43.5384 19.8307 43.4418 19.986C43.3471 20.1394 43.2997 20.3146 43.2997 20.5116V23.2729H42.6293ZM45.6058 23.2729V18.9093H46.2763V23.2729H45.6058ZM45.9467 18.182C45.8161 18.182 45.7034 18.1375 45.6087 18.0485C45.5159 17.9595 45.4695 17.8525 45.4695 17.7275C45.4695 17.6025 45.5159 17.4955 45.6087 17.4065C45.7034 17.3175 45.8161 17.2729 45.9467 17.2729C46.0774 17.2729 46.1892 17.3175 46.282 17.4065C46.3767 17.4955 46.424 17.6025 46.424 17.7275C46.424 17.8525 46.3767 17.9595 46.282 18.0485C46.1892 18.1375 46.0774 18.182 45.9467 18.182ZM49.152 23.3639C48.7884 23.3639 48.4673 23.272 48.1889 23.0883C47.9105 22.9027 47.6927 22.6413 47.5355 22.3042C47.3783 21.9652 47.2997 21.5646 47.2997 21.1025C47.2997 20.6442 47.3783 20.2464 47.5355 19.9093C47.6927 19.5722 47.9115 19.3118 48.1918 19.1281C48.4721 18.9444 48.7959 18.8525 49.1634 18.8525C49.4474 18.8525 49.6719 18.8998 49.8366 18.9945C50.0033 19.0873 50.1302 19.1934 50.2173 19.3127C50.3063 19.4301 50.3755 19.5267 50.4247 19.6025H50.4815V17.4548H51.152V23.2729H50.5043V22.6025H50.4247C50.3755 22.682 50.3054 22.7824 50.2145 22.9036C50.1236 23.0229 49.9938 23.13 49.8253 23.2247C49.6567 23.3175 49.4323 23.3639 49.152 23.3639ZM49.2429 22.7616C49.5118 22.7616 49.7391 22.6915 49.9247 22.5514C50.1103 22.4093 50.2514 22.2133 50.348 21.9633C50.4446 21.7114 50.4929 21.4207 50.4929 21.0911C50.4929 20.7654 50.4455 20.4803 50.3509 20.236C50.2562 19.9898 50.116 19.7985 49.9304 19.6622C49.7448 19.5239 49.5156 19.4548 49.2429 19.4548C48.9588 19.4548 48.7221 19.5277 48.5327 19.6735C48.3452 19.8175 48.2041 20.0135 48.1094 20.2616C48.0166 20.5078 47.9702 20.7843 47.9702 21.0911C47.9702 21.4017 48.0175 21.6839 48.1122 21.9377C48.2088 22.1896 48.3509 22.3904 48.5384 22.54C48.7277 22.6877 48.9626 22.7616 49.2429 22.7616ZM54.3026 23.3639C53.8821 23.3639 53.5194 23.2711 53.2145 23.0854C52.9115 22.8979 52.6776 22.6366 52.5128 22.3014C52.3499 21.9642 52.2685 21.5722 52.2685 21.1252C52.2685 20.6783 52.3499 20.2843 52.5128 19.9434C52.6776 19.6006 52.9067 19.3336 53.2003 19.1423C53.4957 18.9491 53.8404 18.8525 54.2344 18.8525C54.4616 18.8525 54.6861 18.8904 54.9077 18.9661C55.1293 19.0419 55.331 19.165 55.5128 19.3354C55.6946 19.504 55.8395 19.7275 55.9474 20.0059C56.0554 20.2843 56.1094 20.6271 56.1094 21.0343V21.3184H52.7457V20.7389H55.4276C55.4276 20.4926 55.3783 20.2729 55.2798 20.0798C55.1832 19.8866 55.045 19.7341 54.8651 19.6224C54.687 19.5106 54.4768 19.4548 54.2344 19.4548C53.9673 19.4548 53.7363 19.5211 53.5412 19.6536C53.348 19.7843 53.1993 19.9548 53.0952 20.165C52.991 20.3752 52.9389 20.6006 52.9389 20.8411V21.2275C52.9389 21.557 52.9957 21.8364 53.1094 22.0656C53.2249 22.2928 53.3849 22.4661 53.5895 22.5854C53.794 22.7029 54.0317 22.7616 54.3026 22.7616C54.4787 22.7616 54.6378 22.737 54.7798 22.6877C54.9238 22.6366 55.0478 22.5608 55.152 22.4604C55.2562 22.3582 55.3366 22.2313 55.3935 22.0798L56.0412 22.2616C55.973 22.4813 55.8584 22.6745 55.6974 22.8411C55.5365 23.0059 55.3376 23.1347 55.1009 23.2275C54.8641 23.3184 54.598 23.3639 54.3026 23.3639ZM26.9432 27.4548L28.6705 32.3525H28.7386L30.4659 27.4548H31.2045L29.0682 33.2729H28.3409L26.2045 27.4548H26.9432ZM32.8977 33.3752C32.6212 33.3752 32.3703 33.3231 32.1449 33.219C31.9195 33.1129 31.7405 32.9604 31.608 32.7616C31.4754 32.5608 31.4091 32.3184 31.4091 32.0343C31.4091 31.7843 31.4583 31.5817 31.5568 31.4264C31.6553 31.2692 31.7869 31.1461 31.9517 31.057C32.1165 30.968 32.2983 30.9017 32.4972 30.8582C32.6979 30.8127 32.8996 30.7767 33.1023 30.7502C33.3674 30.7161 33.5824 30.6906 33.7472 30.6735C33.9138 30.6546 34.035 30.6233 34.1108 30.5798C34.1884 30.5362 34.2273 30.4604 34.2273 30.3525V30.3298C34.2273 30.0495 34.1506 29.8317 33.9972 29.6764C33.8456 29.5211 33.6155 29.4434 33.3068 29.4434C32.9867 29.4434 32.7358 29.5135 32.554 29.6536C32.3722 29.7938 32.2443 29.9434 32.1705 30.1025L31.5341 29.8752C31.6477 29.6101 31.7992 29.4036 31.9886 29.2559C32.1799 29.1063 32.3883 29.0021 32.6136 28.9434C32.8409 28.8828 33.0644 28.8525 33.2841 28.8525C33.4242 28.8525 33.5852 28.8695 33.767 28.9036C33.9508 28.9358 34.1278 29.0031 34.2983 29.1053C34.4706 29.2076 34.6136 29.362 34.7273 29.5684C34.8409 29.7748 34.8977 30.0514 34.8977 30.3979V33.2729H34.2273V32.682H34.1932C34.1477 32.7767 34.072 32.8781 33.9659 32.986C33.8598 33.094 33.7188 33.1858 33.5426 33.2616C33.3665 33.3373 33.1515 33.3752 32.8977 33.3752ZM33 32.7729C33.2652 32.7729 33.4886 32.7209 33.6705 32.6167C33.8542 32.5125 33.9924 32.3781 34.0852 32.2133C34.1799 32.0485 34.2273 31.8752 34.2273 31.6934V31.0798C34.1989 31.1139 34.1364 31.1451 34.0398 31.1735C33.9451 31.2 33.8352 31.2237 33.7102 31.2445C33.5871 31.2635 33.4669 31.2805 33.3494 31.2957C33.2339 31.3089 33.1402 31.3203 33.0682 31.3298C32.8939 31.3525 32.7311 31.3894 32.5795 31.4406C32.4299 31.4898 32.3087 31.5646 32.2159 31.665C32.125 31.7635 32.0795 31.8979 32.0795 32.0684C32.0795 32.3014 32.1657 32.4775 32.3381 32.5968C32.5123 32.7142 32.733 32.7729 33 32.7729ZM36.1214 33.2729V28.9093H36.7692V29.5684H36.8146C36.8942 29.3525 37.0381 29.1773 37.2464 29.0428C37.4548 28.9084 37.6896 28.8411 37.951 28.8411C38.0002 28.8411 38.0618 28.8421 38.1357 28.844C38.2095 28.8459 38.2654 28.8487 38.3033 28.8525V29.5343C38.2805 29.5286 38.2285 29.5201 38.147 29.5087C38.0675 29.4955 37.9832 29.4889 37.8942 29.4889C37.6821 29.4889 37.4927 29.5334 37.326 29.6224C37.1612 29.7095 37.0305 29.8307 36.9339 29.986C36.8393 30.1394 36.7919 30.3146 36.7919 30.5116V33.2729H36.1214ZM39.7685 30.6479V33.2729H39.098V28.9093H39.7457V29.5911H39.8026C39.9048 29.3695 40.0601 29.1915 40.2685 29.057C40.4768 28.9207 40.7457 28.8525 41.0753 28.8525C41.3707 28.8525 41.6293 28.9131 41.8509 29.0343C42.0724 29.1536 42.2448 29.3354 42.3679 29.5798C42.491 29.8222 42.5526 30.129 42.5526 30.5002V33.2729H41.8821V30.5457C41.8821 30.2029 41.7931 29.9358 41.6151 29.7445C41.437 29.5514 41.1927 29.4548 40.8821 29.4548C40.6681 29.4548 40.4768 29.5012 40.3082 29.594C40.1416 29.6868 40.0099 29.8222 39.9134 30.0002C39.8168 30.1783 39.7685 30.3942 39.7685 30.6479ZM43.7777 33.2729V28.9093H44.4482V33.2729H43.7777ZM44.1186 28.182C43.9879 28.182 43.8752 28.1375 43.7805 28.0485C43.6877 27.9595 43.6413 27.8525 43.6413 27.7275C43.6413 27.6025 43.6877 27.4955 43.7805 27.4065C43.8752 27.3175 43.9879 27.2729 44.1186 27.2729C44.2493 27.2729 44.361 27.3175 44.4538 27.4065C44.5485 27.4955 44.5959 27.6025 44.5959 27.7275C44.5959 27.8525 44.5485 27.9595 44.4538 28.0485C44.361 28.1375 44.2493 28.182 44.1186 28.182ZM48.767 29.8866L48.1648 30.057C48.1269 29.9567 48.071 29.8591 47.9972 29.7644C47.9252 29.6678 47.8267 29.5883 47.7017 29.5258C47.5767 29.4633 47.4167 29.432 47.2216 29.432C46.9545 29.432 46.732 29.4936 46.554 29.6167C46.3778 29.7379 46.2898 29.8923 46.2898 30.0798C46.2898 30.2464 46.3504 30.3781 46.4716 30.4747C46.5928 30.5712 46.7822 30.6517 47.0398 30.7161L47.6875 30.8752C48.0777 30.9699 48.3684 31.1148 48.5597 31.3099C48.7509 31.5031 48.8466 31.7521 48.8466 32.057C48.8466 32.307 48.7746 32.5305 48.6307 32.7275C48.4886 32.9245 48.2898 33.0798 48.0341 33.1934C47.7784 33.307 47.4811 33.3639 47.142 33.3639C46.697 33.3639 46.3286 33.2673 46.0369 33.0741C45.7453 32.8809 45.5606 32.5987 45.483 32.2275L46.1193 32.0684C46.1799 32.3033 46.2945 32.4794 46.4631 32.5968C46.6335 32.7142 46.8561 32.7729 47.1307 32.7729C47.4432 32.7729 47.6913 32.7067 47.875 32.5741C48.0606 32.4396 48.1534 32.2786 48.1534 32.0911C48.1534 31.9396 48.1004 31.8127 47.9943 31.7104C47.8883 31.6063 47.7254 31.5286 47.5057 31.4775L46.7784 31.307C46.3788 31.2123 46.0852 31.0656 45.8977 30.8667C45.7121 30.6659 45.6193 30.415 45.6193 30.1139C45.6193 29.8676 45.6884 29.6498 45.8267 29.4604C45.9669 29.2711 46.1572 29.1224 46.3977 29.0144C46.6402 28.9065 46.9148 28.8525 47.2216 28.8525C47.6534 28.8525 47.9924 28.9472 48.2386 29.1366C48.4867 29.326 48.6629 29.576 48.767 29.8866ZM50.5263 30.6479V33.2729H49.8558V27.4548H50.5263V29.5911H50.5831C50.6854 29.3658 50.8388 29.1868 51.0433 29.0542C51.2498 28.9197 51.5244 28.8525 51.8672 28.8525C52.1645 28.8525 52.425 28.9122 52.6484 29.0315C52.8719 29.1489 53.0452 29.3298 53.1683 29.5741C53.2933 29.8165 53.3558 30.1252 53.3558 30.5002V33.2729H52.6854V30.5457C52.6854 30.1991 52.5954 29.9311 52.4155 29.7417C52.2375 29.5504 51.9903 29.4548 51.674 29.4548C51.4543 29.4548 51.2573 29.5012 51.0831 29.594C50.9107 29.6868 50.7744 29.8222 50.674 30.0002C50.5755 30.1783 50.5263 30.3942 50.5263 30.6479Z" fill="black"/>
<rect x="0.5" y="20.7729" width="18" height="14" fill="white" stroke="black"/>
<path d="M26.7045 48.2729V42.4548H30.1932V43.0798H27.4091V45.0457H29.9318V45.6707H27.4091V48.2729H26.7045ZM31.9794 42.4548V48.2729H31.3089V42.4548H31.9794ZM34.9801 48.3639C34.5862 48.3639 34.2405 48.2701 33.9432 48.0826C33.6477 47.8951 33.4167 47.6328 33.25 47.2957C33.0852 46.9586 33.0028 46.5646 33.0028 46.1139C33.0028 45.6593 33.0852 45.2625 33.25 44.9235C33.4167 44.5845 33.6477 44.3212 33.9432 44.1337C34.2405 43.9462 34.5862 43.8525 34.9801 43.8525C35.3741 43.8525 35.7188 43.9462 36.0142 44.1337C36.3116 44.3212 36.5426 44.5845 36.7074 44.9235C36.8741 45.2625 36.9574 45.6593 36.9574 46.1139C36.9574 46.5646 36.8741 46.9586 36.7074 47.2957C36.5426 47.6328 36.3116 47.8951 36.0142 48.0826C35.7188 48.2701 35.3741 48.3639 34.9801 48.3639ZM34.9801 47.7616C35.2794 47.7616 35.5256 47.6849 35.7188 47.5315C35.9119 47.3781 36.0549 47.1764 36.1477 46.9264C36.2405 46.6764 36.2869 46.4055 36.2869 46.1139C36.2869 45.8222 36.2405 45.5504 36.1477 45.2985C36.0549 45.0466 35.9119 44.843 35.7188 44.6877C35.5256 44.5324 35.2794 44.4548 34.9801 44.4548C34.6809 44.4548 34.4347 44.5324 34.2415 44.6877C34.0483 44.843 33.9053 45.0466 33.8125 45.2985C33.7197 45.5504 33.6733 45.8222 33.6733 46.1139C33.6733 46.4055 33.7197 46.6764 33.8125 46.9264C33.9053 47.1764 34.0483 47.3781 34.2415 47.5315C34.4347 47.6849 34.6809 47.7616 34.9801 47.7616ZM40.7308 46.4889V43.9093H41.4013V48.2729H40.7308V47.5343H40.6854C40.5831 47.7559 40.424 47.9444 40.2081 48.0997C39.9922 48.2531 39.7195 48.3298 39.3899 48.3298C39.1172 48.3298 38.8748 48.2701 38.6626 48.1508C38.4505 48.0296 38.2839 47.8478 38.1626 47.6053C38.0414 47.361 37.9808 47.0533 37.9808 46.682V43.9093H38.6513V46.6366C38.6513 46.9548 38.7403 47.2086 38.9183 47.3979C39.0982 47.5873 39.3274 47.682 39.6058 47.682C39.7725 47.682 39.942 47.6394 40.1143 47.5542C40.2886 47.469 40.4344 47.3383 40.5518 47.1622C40.6712 46.986 40.7308 46.7616 40.7308 46.4889ZM42.6293 48.2729V43.9093H43.277V44.5684H43.3224C43.402 44.3525 43.5459 44.1773 43.7543 44.0428C43.9626 43.9084 44.1974 43.8411 44.4588 43.8411C44.508 43.8411 44.5696 43.8421 44.6435 43.844C44.7173 43.8459 44.7732 43.8487 44.8111 43.8525V44.5343C44.7884 44.5286 44.7363 44.5201 44.6548 44.5087C44.5753 44.4955 44.491 44.4889 44.402 44.4889C44.1899 44.4889 44.0005 44.5334 43.8338 44.6224C43.669 44.7095 43.5384 44.8307 43.4418 44.986C43.3471 45.1394 43.2997 45.3146 43.2997 45.5116V48.2729H42.6293ZM45.6058 48.2729V43.9093H46.2763V48.2729H45.6058ZM45.9467 43.182C45.8161 43.182 45.7034 43.1375 45.6087 43.0485C45.5159 42.9595 45.4695 42.8525 45.4695 42.7275C45.4695 42.6025 45.5159 42.4955 45.6087 42.4065C45.7034 42.3175 45.8161 42.2729 45.9467 42.2729C46.0774 42.2729 46.1892 42.3175 46.282 42.4065C46.3767 42.4955 46.424 42.6025 46.424 42.7275C46.424 42.8525 46.3767 42.9595 46.282 43.0485C46.1892 43.1375 46.0774 43.182 45.9467 43.182ZM49.152 48.3639C48.7884 48.3639 48.4673 48.272 48.1889 48.0883C47.9105 47.9027 47.6927 47.6413 47.5355 47.3042C47.3783 46.9652 47.2997 46.5646 47.2997 46.1025C47.2997 45.6442 47.3783 45.2464 47.5355 44.9093C47.6927 44.5722 47.9115 44.3118 48.1918 44.1281C48.4721 43.9444 48.7959 43.8525 49.1634 43.8525C49.4474 43.8525 49.6719 43.8998 49.8366 43.9945C50.0033 44.0873 50.1302 44.1934 50.2173 44.3127C50.3063 44.4301 50.3755 44.5267 50.4247 44.6025H50.4815V42.4548H51.152V48.2729H50.5043V47.6025H50.4247C50.3755 47.682 50.3054 47.7824 50.2145 47.9036C50.1236 48.0229 49.9938 48.13 49.8253 48.2247C49.6567 48.3175 49.4323 48.3639 49.152 48.3639ZM49.2429 47.7616C49.5118 47.7616 49.7391 47.6915 49.9247 47.5514C50.1103 47.4093 50.2514 47.2133 50.348 46.9633C50.4446 46.7114 50.4929 46.4207 50.4929 46.0911C50.4929 45.7654 50.4455 45.4803 50.3509 45.236C50.2562 44.9898 50.116 44.7985 49.9304 44.6622C49.7448 44.5239 49.5156 44.4548 49.2429 44.4548C48.9588 44.4548 48.7221 44.5277 48.5327 44.6735C48.3452 44.8175 48.2041 45.0135 48.1094 45.2616C48.0166 45.5078 47.9702 45.7843 47.9702 46.0911C47.9702 46.4017 48.0175 46.6839 48.1122 46.9377C48.2088 47.1896 48.3509 47.3904 48.5384 47.54C48.7277 47.6877 48.9626 47.7616 49.2429 47.7616ZM54.3026 48.3639C53.8821 48.3639 53.5194 48.2711 53.2145 48.0854C52.9115 47.8979 52.6776 47.6366 52.5128 47.3014C52.3499 46.9642 52.2685 46.5722 52.2685 46.1252C52.2685 45.6783 52.3499 45.2843 52.5128 44.9434C52.6776 44.6006 52.9067 44.3336 53.2003 44.1423C53.4957 43.9491 53.8404 43.8525 54.2344 43.8525C54.4616 43.8525 54.6861 43.8904 54.9077 43.9661C55.1293 44.0419 55.331 44.165 55.5128 44.3354C55.6946 44.504 55.8395 44.7275 55.9474 45.0059C56.0554 45.2843 56.1094 45.6271 56.1094 46.0343V46.3184H52.7457V45.7389H55.4276C55.4276 45.4926 55.3783 45.2729 55.2798 45.0798C55.1832 44.8866 55.045 44.7341 54.8651 44.6224C54.687 44.5106 54.4768 44.4548 54.2344 44.4548C53.9673 44.4548 53.7363 44.5211 53.5412 44.6536C53.348 44.7843 53.1993 44.9548 53.0952 45.165C52.991 45.3752 52.9389 45.6006 52.9389 45.8411V46.2275C52.9389 46.557 52.9957 46.8364 53.1094 47.0656C53.2249 47.2928 53.3849 47.4661 53.5895 47.5854C53.794 47.7029 54.0317 47.7616 54.3026 47.7616C54.4787 47.7616 54.6378 47.737 54.7798 47.6877C54.9238 47.6366 55.0478 47.5608 55.152 47.4604C55.2562 47.3582 55.3366 47.2313 55.3935 47.0798L56.0412 47.2616C55.973 47.4813 55.8584 47.6745 55.6974 47.8411C55.5365 48.0059 55.3376 48.1347 55.1009 48.2275C54.8641 48.3184 54.598 48.3639 54.3026 48.3639ZM30.6818 54.2729C30.6193 54.0817 30.5369 53.9103 30.4347 53.7587C30.3343 53.6053 30.214 53.4747 30.0739 53.3667C29.9356 53.2587 29.7784 53.1764 29.6023 53.1195C29.4261 53.0627 29.233 53.0343 29.0227 53.0343C28.678 53.0343 28.3646 53.1233 28.0824 53.3014C27.8002 53.4794 27.5758 53.7417 27.4091 54.0883C27.2424 54.4349 27.1591 54.8601 27.1591 55.3639C27.1591 55.8676 27.2434 56.2928 27.4119 56.6394C27.5805 56.986 27.8087 57.2483 28.0966 57.4264C28.3845 57.6044 28.7083 57.6934 29.0682 57.6934C29.4015 57.6934 29.6951 57.6224 29.9489 57.4803C30.2045 57.3364 30.4034 57.1337 30.5455 56.8724C30.6894 56.6091 30.7614 56.2995 30.7614 55.9434L30.9773 55.9889H29.2273V55.3639H31.4432V55.9889C31.4432 56.468 31.3409 56.8847 31.1364 57.2389C30.9337 57.593 30.6534 57.8676 30.2955 58.0627C29.9394 58.2559 29.5303 58.3525 29.0682 58.3525C28.553 58.3525 28.1004 58.2313 27.7102 57.9889C27.322 57.7464 27.0189 57.4017 26.8011 56.9548C26.5852 56.5078 26.4773 55.9775 26.4773 55.3639C26.4773 54.9036 26.5388 54.4898 26.6619 54.1224C26.7869 53.7531 26.9631 53.4387 27.1903 53.1792C27.4176 52.9197 27.6866 52.7209 27.9972 52.5826C28.3078 52.4444 28.6496 52.3752 29.0227 52.3752C29.3295 52.3752 29.6155 52.4216 29.8807 52.5144C30.1477 52.6053 30.3854 52.7351 30.5938 52.9036C30.804 53.0703 30.9792 53.2701 31.1193 53.5031C31.2595 53.7341 31.3561 53.9908 31.4091 54.2729H30.6818ZM34.3885 58.3639C33.968 58.3639 33.6054 58.2711 33.3004 58.0854C32.9974 57.8979 32.7635 57.6366 32.5987 57.3014C32.4358 56.9642 32.3544 56.5722 32.3544 56.1252C32.3544 55.6783 32.4358 55.2843 32.5987 54.9434C32.7635 54.6006 32.9927 54.3336 33.2862 54.1423C33.5817 53.9491 33.9264 53.8525 34.3203 53.8525C34.5476 53.8525 34.772 53.8904 34.9936 53.9661C35.2152 54.0419 35.4169 54.165 35.5987 54.3354C35.7805 54.504 35.9254 54.7275 36.0334 55.0059C36.1413 55.2843 36.1953 55.6271 36.1953 56.0343V56.3184H32.8317V55.7389H35.5135C35.5135 55.4926 35.4643 55.2729 35.3658 55.0798C35.2692 54.8866 35.1309 54.7341 34.951 54.6224C34.773 54.5106 34.5627 54.4548 34.3203 54.4548C34.0533 54.4548 33.8222 54.5211 33.6271 54.6536C33.4339 54.7843 33.2853 54.9548 33.1811 55.165C33.0769 55.3752 33.0249 55.6006 33.0249 55.8411V56.2275C33.0249 56.557 33.0817 56.8364 33.1953 57.0656C33.3108 57.2928 33.4709 57.4661 33.6754 57.5854C33.88 57.7029 34.1177 57.7616 34.3885 57.7616C34.5646 57.7616 34.7237 57.737 34.8658 57.6877C35.0097 57.6366 35.1338 57.5608 35.2379 57.4604C35.3421 57.3582 35.4226 57.2313 35.4794 57.0798L36.1271 57.2616C36.0589 57.4813 35.9444 57.6745 35.7834 57.8411C35.6224 58.0059 35.4235 58.1347 35.1868 58.2275C34.95 58.3184 34.6839 58.3639 34.3885 58.3639ZM37.8857 52.4548V58.2729H37.2152V52.4548H37.8857Z" fill="black"/>
<rect x="0.5" y="40.7729" width="18" height="14" fill="white" stroke="black"/>
<path d="M3.88068 51.2729V44.0002H8.24148V44.7815H4.76136V47.2389H7.91477V48.0201H4.76136V51.2729H3.88068ZM14.7214 46.2729C14.6433 46.0338 14.5403 45.8196 14.4125 45.6302C14.287 45.4384 14.1367 45.2751 13.9615 45.1401C13.7886 45.0052 13.5922 44.9022 13.372 44.8312C13.1518 44.7602 12.9103 44.7247 12.6475 44.7247C12.2167 44.7247 11.8249 44.8359 11.4721 45.0585C11.1194 45.281 10.8388 45.6089 10.6305 46.0421C10.4222 46.4754 10.318 47.0069 10.318 47.6366C10.318 48.2663 10.4234 48.7978 10.6341 49.231C10.8448 49.6643 11.13 49.9922 11.4899 50.2147C11.8497 50.4372 12.2546 50.5485 12.7044 50.5485C13.121 50.5485 13.488 50.4597 13.8052 50.2822C14.1248 50.1023 14.3734 49.8489 14.551 49.5222C14.7309 49.1932 14.8208 48.8061 14.8208 48.361L15.0907 48.4178H12.9032V47.6366H15.6731V48.4178C15.6731 49.0168 15.5453 49.5376 15.2896 49.9803C15.0363 50.423 14.6859 50.7663 14.2385 51.0102C13.7934 51.2516 13.282 51.3724 12.7044 51.3724C12.0604 51.3724 11.4946 51.2209 11.0069 50.9178C10.5216 50.6148 10.1428 50.1839 9.87056 49.6252C9.60067 49.0665 9.46573 48.4036 9.46573 47.6366C9.46573 47.0613 9.54267 46.544 9.69656 46.0847C9.85281 45.6231 10.073 45.2301 10.3571 44.9058C10.6412 44.5814 10.9773 44.3328 11.3656 44.16C11.7538 43.9872 12.1812 43.9008 12.6475 43.9008C13.0311 43.9008 13.3886 43.9588 13.72 44.0748C14.0538 44.1884 14.3509 44.3506 14.6113 44.5613C14.8741 44.7696 15.0931 45.0194 15.2683 45.3106C15.4435 45.5994 15.5642 45.9202 15.6305 46.2729H14.7214Z" fill="black"/>
<path d="M3.88068 31.2729V24.0002H8.24148V24.7815H4.76136V27.2389H7.91477V28.0201H4.76136V31.2729H3.88068ZM10.0481 24.0002L12.2072 30.1224H12.2924L14.4515 24.0002H15.3748L12.7044 31.2729H11.7953L9.12482 24.0002H10.0481Z" fill="black"/>
<path d="M26.7045 71.2729V65.4548H28.6705C29.1269 65.4548 29.5 65.5372 29.7898 65.7019C30.0814 65.8648 30.2973 66.0854 30.4375 66.3639C30.5777 66.6423 30.6477 66.9529 30.6477 67.2957C30.6477 67.6385 30.5777 67.95 30.4375 68.2303C30.2992 68.5106 30.0852 68.7341 29.7955 68.9008C29.5057 69.0656 29.1345 69.1479 28.6818 69.1479H27.2727V68.5229H28.6591C28.9716 68.5229 29.2225 68.469 29.4119 68.361C29.6013 68.2531 29.7386 68.1072 29.8239 67.9235C29.911 67.7379 29.9545 67.5286 29.9545 67.2957C29.9545 67.0627 29.911 66.8544 29.8239 66.6707C29.7386 66.487 29.6004 66.343 29.4091 66.2389C29.2178 66.1328 28.964 66.0798 28.6477 66.0798H27.4091V71.2729H26.7045ZM31.6918 71.2729V66.9093H32.3622V71.2729H31.6918ZM32.0327 66.182C31.902 66.182 31.7893 66.1375 31.6946 66.0485C31.6018 65.9595 31.5554 65.8525 31.5554 65.7275C31.5554 65.6025 31.6018 65.4955 31.6946 65.4065C31.7893 65.3175 31.902 65.2729 32.0327 65.2729C32.1634 65.2729 32.2751 65.3175 32.3679 65.4065C32.4626 65.4955 32.5099 65.6025 32.5099 65.7275C32.5099 65.8525 32.4626 65.9595 32.3679 66.0485C32.2751 66.1375 32.1634 66.182 32.0327 66.182ZM35.4879 66.9093V67.4775H33.2266V66.9093H35.4879ZM33.8857 65.8639H34.5561V70.0229C34.5561 70.2123 34.5836 70.3544 34.6385 70.4491C34.6953 70.5419 34.7673 70.6044 34.8544 70.6366C34.9434 70.6669 35.0372 70.682 35.1357 70.682C35.2095 70.682 35.2701 70.6783 35.3175 70.6707C35.3648 70.6612 35.4027 70.6536 35.4311 70.6479L35.5675 71.2502C35.522 71.2673 35.4586 71.2843 35.3771 71.3014C35.2957 71.3203 35.1925 71.3298 35.0675 71.3298C34.8781 71.3298 34.6925 71.289 34.5107 71.2076C34.3307 71.1262 34.1811 71.0021 34.0618 70.8354C33.9444 70.6688 33.8857 70.4586 33.8857 70.2048V65.8639ZM40.0305 71.3752C39.754 71.3752 39.5031 71.3231 39.2777 71.219C39.0523 71.1129 38.8733 70.9604 38.7408 70.7616C38.6082 70.5608 38.5419 70.3184 38.5419 70.0343C38.5419 69.7843 38.5911 69.5817 38.6896 69.4264C38.7881 69.2692 38.9197 69.1461 39.0845 69.057C39.2493 68.968 39.4311 68.9017 39.63 68.8582C39.8307 68.8127 40.0324 68.7767 40.2351 68.7502C40.5002 68.7161 40.7152 68.6906 40.88 68.6735C41.0466 68.6546 41.1679 68.6233 41.2436 68.5798C41.3213 68.5362 41.3601 68.4604 41.3601 68.3525V68.3298C41.3601 68.0495 41.2834 67.8317 41.13 67.6764C40.9785 67.5211 40.7483 67.4434 40.4396 67.4434C40.1196 67.4434 39.8686 67.5135 39.6868 67.6536C39.505 67.7938 39.3771 67.9434 39.3033 68.1025L38.6669 67.8752C38.7805 67.6101 38.9321 67.4036 39.1214 67.2559C39.3127 67.1063 39.5211 67.0021 39.7464 66.9434C39.9737 66.8828 40.1972 66.8525 40.4169 66.8525C40.5571 66.8525 40.718 66.8695 40.8999 66.9036C41.0836 66.9358 41.2607 67.0031 41.4311 67.1053C41.6035 67.2076 41.7464 67.362 41.8601 67.5684C41.9737 67.7748 42.0305 68.0514 42.0305 68.3979V71.2729H41.3601V70.682H41.326C41.2805 70.7767 41.2048 70.8781 41.0987 70.986C40.9927 71.094 40.8516 71.1858 40.6754 71.2616C40.4993 71.3373 40.2843 71.3752 40.0305 71.3752ZM40.1328 70.7729C40.398 70.7729 40.6214 70.7209 40.8033 70.6167C40.987 70.5125 41.1252 70.3781 41.218 70.2133C41.3127 70.0485 41.3601 69.8752 41.3601 69.6934V69.0798C41.3317 69.1139 41.2692 69.1451 41.1726 69.1735C41.0779 69.2 40.968 69.2237 40.843 69.2445C40.7199 69.2635 40.5997 69.2805 40.4822 69.2957C40.3667 69.3089 40.273 69.3203 40.201 69.3298C40.0268 69.3525 39.8639 69.3894 39.7124 69.4406C39.5627 69.4898 39.4415 69.5646 39.3487 69.665C39.2578 69.7635 39.2124 69.8979 39.2124 70.0684C39.2124 70.3014 39.2985 70.4775 39.4709 70.5968C39.6451 70.7142 39.8658 70.7729 40.1328 70.7729ZM43.9247 68.6479V71.2729H43.2543V66.9093H43.902V67.5911H43.9588C44.0611 67.3695 44.2164 67.1915 44.4247 67.057C44.633 66.9207 44.902 66.8525 45.2315 66.8525C45.527 66.8525 45.7855 66.9131 46.0071 67.0343C46.2287 67.1536 46.401 67.3354 46.5241 67.5798C46.6473 67.8222 46.7088 68.129 46.7088 68.5002V71.2729H46.0384V68.5457C46.0384 68.2029 45.9493 67.9358 45.7713 67.7445C45.5933 67.5514 45.349 67.4548 45.0384 67.4548C44.8243 67.4548 44.633 67.5012 44.4645 67.594C44.2978 67.6868 44.1662 67.8222 44.0696 68.0002C43.973 68.1783 43.9247 68.3942 43.9247 68.6479ZM49.5817 71.3639C49.218 71.3639 48.897 71.272 48.6186 71.0883C48.3402 70.9027 48.1224 70.6413 47.9652 70.3042C47.808 69.9652 47.7294 69.5646 47.7294 69.1025C47.7294 68.6442 47.808 68.2464 47.9652 67.9093C48.1224 67.5722 48.3411 67.3118 48.6214 67.1281C48.9018 66.9444 49.2256 66.8525 49.593 66.8525C49.8771 66.8525 50.1016 66.8998 50.2663 66.9945C50.433 67.0873 50.5599 67.1934 50.647 67.3127C50.736 67.4301 50.8052 67.5267 50.8544 67.6025H50.9112V65.4548H51.5817V71.2729H50.9339V70.6025H50.8544C50.8052 70.682 50.7351 70.7824 50.6442 70.9036C50.5533 71.0229 50.4235 71.13 50.255 71.2247C50.0864 71.3175 49.862 71.3639 49.5817 71.3639ZM49.6726 70.7616C49.9415 70.7616 50.1688 70.6915 50.3544 70.5514C50.54 70.4093 50.6811 70.2133 50.7777 69.9633C50.8743 69.7114 50.9226 69.4207 50.9226 69.0911C50.9226 68.7654 50.8752 68.4803 50.7805 68.236C50.6858 67.9898 50.5457 67.7985 50.3601 67.6622C50.1745 67.5239 49.9453 67.4548 49.6726 67.4548C49.3885 67.4548 49.1518 67.5277 48.9624 67.6735C48.7749 67.8175 48.6338 68.0135 48.5391 68.2616C48.4463 68.5078 48.3999 68.7843 48.3999 69.0911C48.3999 69.4017 48.4472 69.6839 48.5419 69.9377C48.6385 70.1896 48.7805 70.3904 48.968 70.54C49.1574 70.6877 49.3923 70.7616 49.6726 70.7616ZM55.2436 71.2729V65.4548H58.7322V66.0798H55.9482V68.0457H58.4709V68.6707H55.9482V71.2729H55.2436ZM59.848 71.2729V66.9093H60.5185V71.2729H59.848ZM60.1889 66.182C60.0582 66.182 59.9455 66.1375 59.8509 66.0485C59.758 65.9595 59.7116 65.8525 59.7116 65.7275C59.7116 65.6025 59.758 65.4955 59.8509 65.4065C59.9455 65.3175 60.0582 65.2729 60.1889 65.2729C60.3196 65.2729 60.4313 65.3175 60.5241 65.4065C60.6188 65.4955 60.6662 65.6025 60.6662 65.7275C60.6662 65.8525 60.6188 65.9595 60.5241 66.0485C60.4313 66.1375 60.3196 66.182 60.1889 66.182ZM64.8374 67.8866L64.2351 68.057C64.1972 67.9567 64.1413 67.8591 64.0675 67.7644C63.9955 67.6678 63.897 67.5883 63.772 67.5258C63.647 67.4633 63.487 67.432 63.2919 67.432C63.0249 67.432 62.8023 67.4936 62.6243 67.6167C62.4482 67.7379 62.3601 67.8923 62.3601 68.0798C62.3601 68.2464 62.4207 68.3781 62.5419 68.4747C62.6631 68.5712 62.8525 68.6517 63.1101 68.7161L63.7578 68.8752C64.148 68.9699 64.4387 69.1148 64.63 69.3099C64.8213 69.5031 64.9169 69.7521 64.9169 70.057C64.9169 70.307 64.8449 70.5305 64.701 70.7275C64.5589 70.9245 64.3601 71.0798 64.1044 71.1934C63.8487 71.307 63.5514 71.3639 63.2124 71.3639C62.7673 71.3639 62.3989 71.2673 62.1072 71.0741C61.8156 70.8809 61.6309 70.5987 61.5533 70.2275L62.1896 70.0684C62.2502 70.3033 62.3648 70.4794 62.5334 70.5968C62.7038 70.7142 62.9264 70.7729 63.201 70.7729C63.5135 70.7729 63.7616 70.7067 63.9453 70.5741C64.1309 70.4396 64.2237 70.2786 64.2237 70.0911C64.2237 69.9396 64.1707 69.8127 64.0646 69.7104C63.9586 69.6063 63.7957 69.5286 63.576 69.4775L62.8487 69.307C62.4491 69.2123 62.1555 69.0656 61.968 68.8667C61.7824 68.6659 61.6896 68.415 61.6896 68.1139C61.6896 67.8676 61.7588 67.6498 61.897 67.4604C62.0372 67.2711 62.2275 67.1224 62.468 67.0144C62.7105 66.9065 62.9851 66.8525 63.2919 66.8525C63.7237 66.8525 64.0627 66.9472 64.3089 67.1366C64.5571 67.326 64.7332 67.576 64.8374 67.8866ZM69.017 67.8866L68.4148 68.057C68.3769 67.9567 68.321 67.8591 68.2472 67.7644C68.1752 67.6678 68.0767 67.5883 67.9517 67.5258C67.8267 67.4633 67.6667 67.432 67.4716 67.432C67.2045 67.432 66.982 67.4936 66.804 67.6167C66.6278 67.7379 66.5398 67.8923 66.5398 68.0798C66.5398 68.2464 66.6004 68.3781 66.7216 68.4747C66.8428 68.5712 67.0322 68.6517 67.2898 68.7161L67.9375 68.8752C68.3277 68.9699 68.6184 69.1148 68.8097 69.3099C69.0009 69.5031 69.0966 69.7521 69.0966 70.057C69.0966 70.307 69.0246 70.5305 68.8807 70.7275C68.7386 70.9245 68.5398 71.0798 68.2841 71.1934C68.0284 71.307 67.7311 71.3639 67.392 71.3639C66.947 71.3639 66.5786 71.2673 66.2869 71.0741C65.9953 70.8809 65.8106 70.5987 65.733 70.2275L66.3693 70.0684C66.4299 70.3033 66.5445 70.4794 66.7131 70.5968C66.8835 70.7142 67.1061 70.7729 67.3807 70.7729C67.6932 70.7729 67.9413 70.7067 68.125 70.5741C68.3106 70.4396 68.4034 70.2786 68.4034 70.0911C68.4034 69.9396 68.3504 69.8127 68.2443 69.7104C68.1383 69.6063 67.9754 69.5286 67.7557 69.4775L67.0284 69.307C66.6288 69.2123 66.3352 69.0656 66.1477 68.8667C65.9621 68.6659 65.8693 68.415 65.8693 68.1139C65.8693 67.8676 65.9384 67.6498 66.0767 67.4604C66.2169 67.2711 66.4072 67.1224 66.6477 67.0144C66.8902 66.9065 67.1648 66.8525 67.4716 66.8525C67.9034 66.8525 68.2424 66.9472 68.4886 67.1366C68.7367 67.326 68.9129 67.576 69.017 67.8866ZM72.8558 69.4889V66.9093H73.5263V71.2729H72.8558V70.5343H72.8104C72.7081 70.7559 72.549 70.9444 72.3331 71.0997C72.1172 71.2531 71.8445 71.3298 71.5149 71.3298C71.2422 71.3298 70.9998 71.2701 70.7876 71.1508C70.5755 71.0296 70.4089 70.8478 70.2876 70.6053C70.1664 70.361 70.1058 70.0533 70.1058 69.682V66.9093H70.7763V69.6366C70.7763 69.9548 70.8653 70.2086 71.0433 70.3979C71.2232 70.5873 71.4524 70.682 71.7308 70.682C71.8975 70.682 72.067 70.6394 72.2393 70.5542C72.4136 70.469 72.5594 70.3383 72.6768 70.1622C72.7962 69.986 72.8558 69.7616 72.8558 69.4889ZM74.7543 71.2729V66.9093H75.402V67.5684H75.4474C75.527 67.3525 75.6709 67.1773 75.8793 67.0428C76.0876 66.9084 76.3224 66.8411 76.5838 66.8411C76.633 66.8411 76.6946 66.8421 76.7685 66.844C76.8423 66.8459 76.8982 66.8487 76.9361 66.8525V67.5343C76.9134 67.5286 76.8613 67.5201 76.7798 67.5087C76.7003 67.4955 76.616 67.4889 76.527 67.4889C76.3149 67.4889 76.1255 67.5334 75.9588 67.6224C75.794 67.7095 75.6634 67.8307 75.5668 67.986C75.4721 68.1394 75.4247 68.3146 75.4247 68.5116V71.2729H74.7543ZM79.4276 71.3639C79.0071 71.3639 78.6444 71.2711 78.3395 71.0854C78.0365 70.8979 77.8026 70.6366 77.6378 70.3014C77.4749 69.9642 77.3935 69.5722 77.3935 69.1252C77.3935 68.6783 77.4749 68.2843 77.6378 67.9434C77.8026 67.6006 78.0317 67.3336 78.3253 67.1423C78.6207 66.9491 78.9654 66.8525 79.3594 66.8525C79.5866 66.8525 79.8111 66.8904 80.0327 66.9661C80.2543 67.0419 80.456 67.165 80.6378 67.3354C80.8196 67.504 80.9645 67.7275 81.0724 68.0059C81.1804 68.2843 81.2344 68.6271 81.2344 69.0343V69.3184H77.8707V68.7389H80.5526C80.5526 68.4926 80.5033 68.2729 80.4048 68.0798C80.3082 67.8866 80.17 67.7341 79.9901 67.6224C79.812 67.5106 79.6018 67.4548 79.3594 67.4548C79.0923 67.4548 78.8613 67.5211 78.6662 67.6536C78.473 67.7843 78.3243 67.9548 78.2202 68.165C78.116 68.3752 78.0639 68.6006 78.0639 68.8411V69.2275C78.0639 69.557 78.1207 69.8364 78.2344 70.0656C78.3499 70.2928 78.5099 70.4661 78.7145 70.5854C78.919 70.7029 79.1567 70.7616 79.4276 70.7616C79.6037 70.7616 79.7628 70.737 79.9048 70.6877C80.0488 70.6366 80.1728 70.5608 80.277 70.4604C80.3812 70.3582 80.4616 70.2313 80.5185 70.0798L81.1662 70.2616C81.098 70.4813 80.9834 70.6745 80.8224 70.8411C80.6615 71.0059 80.4626 71.1347 80.2259 71.2275C79.9891 71.3184 79.723 71.3639 79.4276 71.3639ZM87.777 66.9093C87.7429 66.6214 87.6046 66.3979 87.3622 66.2389C87.1198 66.0798 86.8224 66.0002 86.4702 66.0002C86.2126 66.0002 85.9872 66.0419 85.794 66.1252C85.6027 66.2086 85.4531 66.3231 85.3452 66.469C85.2391 66.6148 85.1861 66.7805 85.1861 66.9661C85.1861 67.1214 85.223 67.255 85.2969 67.3667C85.3726 67.4765 85.4692 67.5684 85.5866 67.6423C85.7041 67.7142 85.8272 67.7739 85.956 67.8212C86.0848 67.8667 86.2031 67.9036 86.3111 67.932L86.902 68.0911C87.0535 68.1309 87.2221 68.1858 87.4077 68.2559C87.5952 68.326 87.7741 68.4216 87.9446 68.5428C88.117 68.6622 88.259 68.8156 88.3707 69.0031C88.4825 69.1906 88.5384 69.4207 88.5384 69.6934C88.5384 70.0078 88.456 70.2919 88.2912 70.5457C88.1283 70.7995 87.8897 71.0012 87.5753 71.1508C87.2628 71.3004 86.883 71.3752 86.4361 71.3752C86.0194 71.3752 85.6586 71.308 85.3537 71.1735C85.0507 71.039 84.812 70.8515 84.6378 70.611C84.4654 70.3705 84.3679 70.0911 84.3452 69.7729H85.0724C85.0914 69.9926 85.1652 70.1745 85.294 70.3184C85.4247 70.4604 85.5895 70.5665 85.7884 70.6366C85.9891 70.7048 86.205 70.7389 86.4361 70.7389C86.705 70.7389 86.9465 70.6953 87.1605 70.6082C87.3745 70.5192 87.544 70.3961 87.669 70.2389C87.794 70.0798 87.8565 69.8942 87.8565 69.682C87.8565 69.4889 87.8026 69.3317 87.6946 69.2104C87.5866 69.0892 87.4446 68.9908 87.2685 68.915C87.0923 68.8392 86.902 68.7729 86.6974 68.7161L85.9815 68.5116C85.527 68.3809 85.1671 68.1944 84.902 67.9519C84.6368 67.7095 84.5043 67.3923 84.5043 67.0002C84.5043 66.6745 84.5923 66.3904 84.7685 66.1479C84.9465 65.9036 85.1851 65.7142 85.4844 65.5798C85.7855 65.4434 86.1217 65.3752 86.4929 65.3752C86.8679 65.3752 87.2012 65.4425 87.4929 65.5769C87.7846 65.7095 88.0156 65.8913 88.1861 66.1224C88.3584 66.3534 88.4493 66.6158 88.4588 66.9093H87.777ZM91.4354 71.3639C91.0149 71.3639 90.6522 71.2711 90.3473 71.0854C90.0443 70.8979 89.8104 70.6366 89.6456 70.3014C89.4827 69.9642 89.4013 69.5722 89.4013 69.1252C89.4013 68.6783 89.4827 68.2843 89.6456 67.9434C89.8104 67.6006 90.0395 67.3336 90.3331 67.1423C90.6286 66.9491 90.9732 66.8525 91.3672 66.8525C91.5945 66.8525 91.8189 66.8904 92.0405 66.9661C92.2621 67.0419 92.4638 67.165 92.6456 67.3354C92.8274 67.504 92.9723 67.7275 93.0803 68.0059C93.1882 68.2843 93.2422 68.6271 93.2422 69.0343V69.3184H89.8786V68.7389H92.5604C92.5604 68.4926 92.5111 68.2729 92.4126 68.0798C92.3161 67.8866 92.1778 67.7341 91.9979 67.6224C91.8198 67.5106 91.6096 67.4548 91.3672 67.4548C91.1001 67.4548 90.8691 67.5211 90.674 67.6536C90.4808 67.7843 90.3321 67.9548 90.228 68.165C90.1238 68.3752 90.0717 68.6006 90.0717 68.8411V69.2275C90.0717 69.557 90.1286 69.8364 90.2422 70.0656C90.3577 70.2928 90.5178 70.4661 90.7223 70.5854C90.9268 70.7029 91.1645 70.7616 91.4354 70.7616C91.6115 70.7616 91.7706 70.737 91.9126 70.6877C92.0566 70.6366 92.1806 70.5608 92.2848 70.4604C92.389 70.3582 92.4695 70.2313 92.5263 70.0798L93.174 70.2616C93.1058 70.4813 92.9912 70.6745 92.8303 70.8411C92.6693 71.0059 92.4704 71.1347 92.2337 71.2275C91.9969 71.3184 91.7308 71.3639 91.4354 71.3639ZM95.5462 71.3752C95.2696 71.3752 95.0187 71.3231 94.7933 71.219C94.5679 71.1129 94.389 70.9604 94.2564 70.7616C94.1238 70.5608 94.0575 70.3184 94.0575 70.0343C94.0575 69.7843 94.1068 69.5817 94.2053 69.4264C94.3037 69.2692 94.4354 69.1461 94.6001 69.057C94.7649 68.968 94.9467 68.9017 95.1456 68.8582C95.3464 68.8127 95.5481 68.7767 95.7507 68.7502C96.0159 68.7161 96.2308 68.6906 96.3956 68.6735C96.5623 68.6546 96.6835 68.6233 96.7592 68.5798C96.8369 68.5362 96.8757 68.4604 96.8757 68.3525V68.3298C96.8757 68.0495 96.799 67.8317 96.6456 67.6764C96.4941 67.5211 96.264 67.4434 95.9553 67.4434C95.6352 67.4434 95.3842 67.5135 95.2024 67.6536C95.0206 67.7938 94.8928 67.9434 94.8189 68.1025L94.1825 67.8752C94.2962 67.6101 94.4477 67.4036 94.6371 67.2559C94.8284 67.1063 95.0367 67.0021 95.2621 66.9434C95.4893 66.8828 95.7128 66.8525 95.9325 66.8525C96.0727 66.8525 96.2337 66.8695 96.4155 66.9036C96.5992 66.9358 96.7763 67.0031 96.9467 67.1053C97.1191 67.2076 97.2621 67.362 97.3757 67.5684C97.4893 67.7748 97.5462 68.0514 97.5462 68.3979V71.2729H96.8757V70.682H96.8416C96.7962 70.7767 96.7204 70.8781 96.6143 70.986C96.5083 71.094 96.3672 71.1858 96.1911 71.2616C96.0149 71.3373 95.8 71.3752 95.5462 71.3752ZM95.6484 70.7729C95.9136 70.7729 96.1371 70.7209 96.3189 70.6167C96.5026 70.5125 96.6409 70.3781 96.7337 70.2133C96.8284 70.0485 96.8757 69.8752 96.8757 69.6934V69.0798C96.8473 69.1139 96.7848 69.1451 96.6882 69.1735C96.5935 69.2 96.4837 69.2237 96.3587 69.2445C96.2356 69.2635 96.1153 69.2805 95.9979 69.2957C95.8823 69.3089 95.7886 69.3203 95.7166 69.3298C95.5424 69.3525 95.3795 69.3894 95.228 69.4406C95.0784 69.4898 94.9571 69.5646 94.8643 69.665C94.7734 69.7635 94.728 69.8979 94.728 70.0684C94.728 70.3014 94.8142 70.4775 94.9865 70.5968C95.1607 70.7142 95.3814 70.7729 95.6484 70.7729ZM99.3949 69.682L99.3835 68.8525H99.5199L101.429 66.9093H102.259L100.224 68.9661H100.168L99.3949 69.682ZM98.7699 71.2729V65.4548H99.4403V71.2729H98.7699ZM101.543 71.2729L99.8381 69.1139L100.315 68.6479L102.395 71.2729H101.543ZM104.406 71.3752C104.129 71.3752 103.878 71.3231 103.653 71.219C103.427 71.1129 103.248 70.9604 103.116 70.7616C102.983 70.5608 102.917 70.3184 102.917 70.0343C102.917 69.7843 102.966 69.5817 103.065 69.4264C103.163 69.2692 103.295 69.1461 103.46 69.057C103.624 68.968 103.806 68.9017 104.005 68.8582C104.206 68.8127 104.407 68.7767 104.61 68.7502C104.875 68.7161 105.09 68.6906 105.255 68.6735C105.422 68.6546 105.543 68.6233 105.619 68.5798C105.696 68.5362 105.735 68.4604 105.735 68.3525V68.3298C105.735 68.0495 105.658 67.8317 105.505 67.6764C105.353 67.5211 105.123 67.4434 104.815 67.4434C104.495 67.4434 104.244 67.5135 104.062 67.6536C103.88 67.7938 103.752 67.9434 103.678 68.1025L103.042 67.8752C103.156 67.6101 103.307 67.4036 103.496 67.2559C103.688 67.1063 103.896 67.0021 104.121 66.9434C104.349 66.8828 104.572 66.8525 104.792 66.8525C104.932 66.8525 105.093 66.8695 105.275 66.9036C105.459 66.9358 105.636 67.0031 105.806 67.1053C105.978 67.2076 106.121 67.362 106.235 67.5684C106.349 67.7748 106.406 68.0514 106.406 68.3979V71.2729H105.735V70.682H105.701C105.656 70.7767 105.58 70.8781 105.474 70.986C105.368 71.094 105.227 71.1858 105.05 71.2616C104.874 71.3373 104.659 71.3752 104.406 71.3752ZM104.508 70.7729C104.773 70.7729 104.996 70.7209 105.178 70.6167C105.362 70.5125 105.5 70.3781 105.593 70.2133C105.688 70.0485 105.735 69.8752 105.735 69.6934V69.0798C105.707 69.1139 105.644 69.1451 105.548 69.1735C105.453 69.2 105.343 69.2237 105.218 69.2445C105.095 69.2635 104.975 69.2805 104.857 69.2957C104.742 69.3089 104.648 69.3203 104.576 69.3298C104.402 69.3525 104.239 69.3894 104.087 69.4406C103.938 69.4898 103.817 69.5646 103.724 69.665C103.633 69.7635 103.587 69.8979 103.587 70.0684C103.587 70.3014 103.674 70.4775 103.846 70.5968C104.02 70.7142 104.241 70.7729 104.508 70.7729ZM108.3 68.6479V71.2729H107.629V66.9093H108.277V67.5911H108.334C108.436 67.3695 108.591 67.1915 108.8 67.057C109.008 66.9207 109.277 66.8525 109.607 66.8525C109.902 66.8525 110.161 66.9131 110.382 67.0343C110.604 67.1536 110.776 67.3354 110.899 67.5798C111.022 67.8222 111.084 68.129 111.084 68.5002V71.2729H110.413V68.5457C110.413 68.2029 110.324 67.9358 110.146 67.7445C109.968 67.5514 109.724 67.4548 109.413 67.4548C109.199 67.4548 109.008 67.5012 108.839 67.594C108.673 67.6868 108.541 67.8222 108.445 68.0002C108.348 68.1783 108.3 68.3942 108.3 68.6479ZM114.207 66.9093V67.4775H111.945V66.9093H114.207ZM112.604 65.8639H113.275V70.0229C113.275 70.2123 113.302 70.3544 113.357 70.4491C113.414 70.5419 113.486 70.6044 113.573 70.6366C113.662 70.6669 113.756 70.682 113.854 70.682C113.928 70.682 113.989 70.6783 114.036 70.6707C114.084 70.6612 114.121 70.6536 114.15 70.6479L114.286 71.2502C114.241 71.2673 114.177 71.2843 114.096 71.3014C114.014 71.3203 113.911 71.3298 113.786 71.3298C113.597 71.3298 113.411 71.289 113.229 71.2076C113.049 71.1262 112.9 71.0021 112.781 70.8354C112.663 70.6688 112.604 70.4586 112.604 70.2048V65.8639Z" fill="black"/>
<rect x="0.5" y="60.7729" width="18" height="14" fill="white" stroke="black"/>
<path d="M26.7045 88.2729V82.4548H28.6705C29.1269 82.4548 29.5 82.5372 29.7898 82.7019C30.0814 82.8648 30.2973 83.0854 30.4375 83.3639C30.5777 83.6423 30.6477 83.9529 30.6477 84.2957C30.6477 84.6385 30.5777 84.95 30.4375 85.2303C30.2992 85.5106 30.0852 85.7341 29.7955 85.9008C29.5057 86.0656 29.1345 86.1479 28.6818 86.1479H27.2727V85.5229H28.6591C28.9716 85.5229 29.2225 85.469 29.4119 85.361C29.6013 85.2531 29.7386 85.1072 29.8239 84.9235C29.911 84.7379 29.9545 84.5286 29.9545 84.2957C29.9545 84.0627 29.911 83.8544 29.8239 83.6707C29.7386 83.487 29.6004 83.343 29.4091 83.2389C29.2178 83.1328 28.964 83.0798 28.6477 83.0798H27.4091V88.2729H26.7045ZM33.4744 88.3639C33.054 88.3639 32.6913 88.2711 32.3864 88.0854C32.0833 87.8979 31.8494 87.6366 31.6847 87.3014C31.5218 86.9642 31.4403 86.5722 31.4403 86.1252C31.4403 85.6783 31.5218 85.2843 31.6847 84.9434C31.8494 84.6006 32.0786 84.3336 32.3722 84.1423C32.6676 83.9491 33.0123 83.8525 33.4062 83.8525C33.6335 83.8525 33.858 83.8904 34.0795 83.9661C34.3011 84.0419 34.5028 84.165 34.6847 84.3354C34.8665 84.504 35.0114 84.7275 35.1193 85.0059C35.2273 85.2843 35.2812 85.6271 35.2812 86.0343V86.3184H31.9176V85.7389H34.5994C34.5994 85.4926 34.5502 85.2729 34.4517 85.0798C34.3551 84.8866 34.2169 84.7341 34.0369 84.6224C33.8589 84.5106 33.6487 84.4548 33.4062 84.4548C33.1392 84.4548 32.9081 84.5211 32.7131 84.6536C32.5199 84.7843 32.3712 84.9548 32.267 85.165C32.1629 85.3752 32.1108 85.6006 32.1108 85.8411V86.2275C32.1108 86.557 32.1676 86.8364 32.2812 87.0656C32.3968 87.2928 32.5568 87.4661 32.7614 87.5854C32.9659 87.7029 33.2036 87.7616 33.4744 87.7616C33.6506 87.7616 33.8097 87.737 33.9517 87.6877C34.0956 87.6366 34.2197 87.5608 34.3239 87.4604C34.428 87.3582 34.5085 87.2313 34.5653 87.0798L35.2131 87.2616C35.1449 87.4813 35.0303 87.6745 34.8693 87.8411C34.7083 88.0059 34.5095 88.1347 34.2727 88.2275C34.036 88.3184 33.7699 88.3639 33.4744 88.3639ZM36.3011 88.2729V83.9093H36.9489V84.5684H36.9943C37.0739 84.3525 37.2178 84.1773 37.4261 84.0428C37.6345 83.9084 37.8693 83.8411 38.1307 83.8411C38.1799 83.8411 38.2415 83.8421 38.3153 83.844C38.3892 83.8459 38.4451 83.8487 38.483 83.8525V84.5343C38.4602 84.5286 38.4081 84.5201 38.3267 84.5087C38.2472 84.4955 38.1629 84.4889 38.0739 84.4889C37.8617 84.4889 37.6723 84.5334 37.5057 84.6224C37.3409 84.7095 37.2102 84.8307 37.1136 84.986C37.0189 85.1394 36.9716 85.3146 36.9716 85.5116V88.2729H36.3011ZM39.2777 88.2729V83.9093H39.9254V84.5911H39.9822C40.0732 84.3582 40.2199 84.1773 40.4226 84.0485C40.6252 83.9178 40.8686 83.8525 41.1527 83.8525C41.4406 83.8525 41.6802 83.9178 41.8714 84.0485C42.0646 84.1773 42.2152 84.3582 42.3232 84.5911H42.3686C42.4804 84.3658 42.648 84.1868 42.8714 84.0542C43.0949 83.9197 43.3629 83.8525 43.6754 83.8525C44.0656 83.8525 44.3847 83.9747 44.6328 84.219C44.8809 84.4614 45.005 84.8392 45.005 85.3525V88.2729H44.3345V85.3525C44.3345 85.0305 44.2464 84.8004 44.0703 84.6622C43.8942 84.5239 43.6868 84.4548 43.4482 84.4548C43.1413 84.4548 42.9036 84.5476 42.7351 84.7332C42.5665 84.9169 42.4822 85.1498 42.4822 85.432V88.2729H41.8004V85.2843C41.8004 85.0362 41.7199 84.8364 41.5589 84.6849C41.398 84.5315 41.1906 84.4548 40.9368 84.4548C40.7625 84.4548 40.5997 84.5012 40.4482 84.594C40.2985 84.6868 40.1773 84.8156 40.0845 84.9803C39.9936 85.1432 39.9482 85.3317 39.9482 85.5457V88.2729H39.2777ZM47.5149 88.3752C47.2384 88.3752 46.9875 88.3231 46.7621 88.219C46.5367 88.1129 46.3577 87.9604 46.2251 87.7616C46.0926 87.5608 46.0263 87.3184 46.0263 87.0343C46.0263 86.7843 46.0755 86.5817 46.174 86.4264C46.2725 86.2692 46.4041 86.1461 46.5689 86.057C46.7337 85.968 46.9155 85.9017 47.1143 85.8582C47.3151 85.8127 47.5168 85.7767 47.7195 85.7502C47.9846 85.7161 48.1996 85.6906 48.3643 85.6735C48.531 85.6546 48.6522 85.6233 48.728 85.5798C48.8056 85.5362 48.8445 85.4604 48.8445 85.3525V85.3298C48.8445 85.0495 48.7678 84.8317 48.6143 84.6764C48.4628 84.5211 48.2327 84.4434 47.924 84.4434C47.6039 84.4434 47.353 84.5135 47.1712 84.6536C46.9893 84.7938 46.8615 84.9434 46.7876 85.1025L46.1513 84.8752C46.2649 84.6101 46.4164 84.4036 46.6058 84.2559C46.7971 84.1063 47.0054 84.0021 47.2308 83.9434C47.4581 83.8828 47.6816 83.8525 47.9013 83.8525C48.0414 83.8525 48.2024 83.8695 48.3842 83.9036C48.5679 83.9358 48.745 84.0031 48.9155 84.1053C49.0878 84.2076 49.2308 84.362 49.3445 84.5684C49.4581 84.7748 49.5149 85.0514 49.5149 85.3979V88.2729H48.8445V87.682H48.8104C48.7649 87.7767 48.6892 87.8781 48.5831 87.986C48.477 88.094 48.3359 88.1858 48.1598 88.2616C47.9837 88.3373 47.7687 88.3752 47.5149 88.3752ZM47.6172 87.7729C47.8823 87.7729 48.1058 87.7209 48.2876 87.6167C48.4714 87.5125 48.6096 87.3781 48.7024 87.2133C48.7971 87.0485 48.8445 86.8752 48.8445 86.6934V86.0798C48.8161 86.1139 48.7536 86.1451 48.657 86.1735C48.5623 86.2 48.4524 86.2237 48.3274 86.2445C48.2043 86.2635 48.084 86.2805 47.9666 86.2957C47.8511 86.3089 47.7573 86.3203 47.6854 86.3298C47.5111 86.3525 47.3482 86.3894 47.1967 86.4406C47.0471 86.4898 46.9259 86.5646 46.8331 86.665C46.7422 86.7635 46.6967 86.8979 46.6967 87.0684C46.6967 87.3014 46.7829 87.4775 46.9553 87.5968C47.1295 87.7142 47.3501 87.7729 47.6172 87.7729ZM51.4091 85.6479V88.2729H50.7386V83.9093H51.3864V84.5911H51.4432C51.5455 84.3695 51.7008 84.1915 51.9091 84.057C52.1174 83.9207 52.3864 83.8525 52.7159 83.8525C53.0114 83.8525 53.2699 83.9131 53.4915 84.0343C53.7131 84.1536 53.8854 84.3354 54.0085 84.5798C54.1316 84.8222 54.1932 85.129 54.1932 85.5002V88.2729H53.5227V85.5457C53.5227 85.2029 53.4337 84.9358 53.2557 84.7445C53.0777 84.5514 52.8333 84.4548 52.5227 84.4548C52.3087 84.4548 52.1174 84.5012 51.9489 84.594C51.7822 84.6868 51.6506 84.8222 51.554 85.0002C51.4574 85.1783 51.4091 85.3942 51.4091 85.6479ZM57.2479 88.3639C56.8274 88.3639 56.4647 88.2711 56.1598 88.0854C55.8568 87.8979 55.6229 87.6366 55.4581 87.3014C55.2952 86.9642 55.2138 86.5722 55.2138 86.1252C55.2138 85.6783 55.2952 85.2843 55.4581 84.9434C55.6229 84.6006 55.852 84.3336 56.1456 84.1423C56.4411 83.9491 56.7857 83.8525 57.1797 83.8525C57.407 83.8525 57.6314 83.8904 57.853 83.9661C58.0746 84.0419 58.2763 84.165 58.4581 84.3354C58.6399 84.504 58.7848 84.7275 58.8928 85.0059C59.0007 85.2843 59.0547 85.6271 59.0547 86.0343V86.3184H55.6911V85.7389H58.3729C58.3729 85.4926 58.3236 85.2729 58.2251 85.0798C58.1286 84.8866 57.9903 84.7341 57.8104 84.6224C57.6323 84.5106 57.4221 84.4548 57.1797 84.4548C56.9126 84.4548 56.6816 84.5211 56.4865 84.6536C56.2933 84.7843 56.1446 84.9548 56.0405 85.165C55.9363 85.3752 55.8842 85.6006 55.8842 85.8411V86.2275C55.8842 86.557 55.9411 86.8364 56.0547 87.0656C56.1702 87.2928 56.3303 87.4661 56.5348 87.5854C56.7393 87.7029 56.977 87.7616 57.2479 87.7616C57.424 87.7616 57.5831 87.737 57.7251 87.6877C57.8691 87.6366 57.9931 87.5608 58.0973 87.4604C58.2015 87.3582 58.282 87.2313 58.3388 87.0798L58.9865 87.2616C58.9183 87.4813 58.8037 87.6745 58.6428 87.8411C58.4818 88.0059 58.2829 88.1347 58.0462 88.2275C57.8094 88.3184 57.5433 88.3639 57.2479 88.3639ZM60.745 85.6479V88.2729H60.0746V83.9093H60.7223V84.5911H60.7791C60.8814 84.3695 61.0367 84.1915 61.245 84.057C61.4534 83.9207 61.7223 83.8525 62.0518 83.8525C62.3473 83.8525 62.6058 83.9131 62.8274 84.0343C63.049 84.1536 63.2214 84.3354 63.3445 84.5798C63.4676 84.8222 63.5291 85.129 63.5291 85.5002V88.2729H62.8587V85.5457C62.8587 85.2029 62.7696 84.9358 62.5916 84.7445C62.4136 84.5514 62.1693 84.4548 61.8587 84.4548C61.6446 84.4548 61.4534 84.5012 61.2848 84.594C61.1181 84.6868 60.9865 84.8222 60.8899 85.0002C60.7933 85.1783 60.745 85.3942 60.745 85.6479ZM66.652 83.9093V84.4775H64.3906V83.9093H66.652ZM65.0497 82.8639H65.7202V87.0229C65.7202 87.2123 65.7476 87.3544 65.8026 87.4491C65.8594 87.5419 65.9313 87.6044 66.0185 87.6366C66.1075 87.6669 66.2012 87.682 66.2997 87.682C66.3736 87.682 66.4342 87.6783 66.4815 87.6707C66.5289 87.6612 66.5668 87.6536 66.5952 87.6479L66.7315 88.2502C66.6861 88.2673 66.6226 88.2843 66.5412 88.3014C66.4598 88.3203 66.3565 88.3298 66.2315 88.3298C66.0421 88.3298 65.8565 88.289 65.6747 88.2076C65.4948 88.1262 65.3452 88.0021 65.2259 87.8354C65.1084 87.6688 65.0497 87.4586 65.0497 87.2048V82.8639ZM70.0014 88.2729V82.4548H73.4901V83.0798H70.706V85.0457H73.2287V85.6707H70.706V88.2729H70.0014ZM74.6058 88.2729V83.9093H75.2763V88.2729H74.6058ZM74.9467 83.182C74.8161 83.182 74.7034 83.1375 74.6087 83.0485C74.5159 82.9595 74.4695 82.8525 74.4695 82.7275C74.4695 82.6025 74.5159 82.4955 74.6087 82.4065C74.7034 82.3175 74.8161 82.2729 74.9467 82.2729C75.0774 82.2729 75.1892 82.3175 75.282 82.4065C75.3767 82.4955 75.424 82.6025 75.424 82.7275C75.424 82.8525 75.3767 82.9595 75.282 83.0485C75.1892 83.1375 75.0774 83.182 74.9467 83.182ZM77.1747 82.4548V88.2729H76.5043V82.4548H77.1747ZM79.0732 82.4548V88.2729H78.4027V82.4548H79.0732ZM80.3011 88.2729V83.9093H80.9716V88.2729H80.3011ZM80.642 83.182C80.5114 83.182 80.3987 83.1375 80.304 83.0485C80.2112 82.9595 80.1648 82.8525 80.1648 82.7275C80.1648 82.6025 80.2112 82.4955 80.304 82.4065C80.3987 82.3175 80.5114 82.2729 80.642 82.2729C80.7727 82.2729 80.8845 82.3175 80.9773 82.4065C81.072 82.4955 81.1193 82.6025 81.1193 82.7275C81.1193 82.8525 81.072 82.9595 80.9773 83.0485C80.8845 83.1375 80.7727 83.182 80.642 83.182ZM82.87 85.6479V88.2729H82.1996V83.9093H82.8473V84.5911H82.9041C83.0064 84.3695 83.1617 84.1915 83.37 84.057C83.5784 83.9207 83.8473 83.8525 84.1768 83.8525C84.4723 83.8525 84.7308 83.9131 84.9524 84.0343C85.174 84.1536 85.3464 84.3354 85.4695 84.5798C85.5926 84.8222 85.6541 85.129 85.6541 85.5002V88.2729H84.9837V85.5457C84.9837 85.2029 84.8946 84.9358 84.7166 84.7445C84.5386 84.5514 84.2943 84.4548 83.9837 84.4548C83.7696 84.4548 83.5784 84.5012 83.4098 84.594C83.2431 84.6868 83.1115 84.8222 83.0149 85.0002C82.9183 85.1783 82.87 85.3942 82.87 85.6479ZM88.6406 90.0002C88.3168 90.0002 88.0384 89.9586 87.8054 89.8752C87.5724 89.7938 87.3783 89.6858 87.223 89.5514C87.0696 89.4188 86.9474 89.2767 86.8565 89.1252L87.3906 88.7502C87.4512 88.8298 87.5279 88.9207 87.6207 89.0229C87.7135 89.1271 87.8404 89.2171 88.0014 89.2928C88.1643 89.3705 88.3774 89.4093 88.6406 89.4093C88.9929 89.4093 89.2836 89.3241 89.5128 89.1536C89.742 88.9832 89.8565 88.7161 89.8565 88.3525V87.4661H89.7997C89.7505 87.5457 89.6804 87.6442 89.5895 87.7616C89.5005 87.8771 89.3717 87.9803 89.2031 88.0712C89.0365 88.1603 88.8111 88.2048 88.527 88.2048C88.1747 88.2048 87.8584 88.1214 87.5781 87.9548C87.2997 87.7881 87.0791 87.5457 86.9162 87.2275C86.7552 86.9093 86.6747 86.5229 86.6747 86.0684C86.6747 85.6214 86.7533 85.2322 86.9105 84.9008C87.0677 84.5675 87.2865 84.3099 87.5668 84.1281C87.8471 83.9444 88.1709 83.8525 88.5384 83.8525C88.8224 83.8525 89.0478 83.8998 89.2145 83.9945C89.383 84.0873 89.5118 84.1934 89.6009 84.3127C89.6918 84.4301 89.7618 84.5267 89.8111 84.6025H89.8793V83.9093H90.527V88.3979C90.527 88.7729 90.4418 89.0779 90.2713 89.3127C90.1027 89.5495 89.8755 89.7228 89.5895 89.8326C89.3054 89.9444 88.9891 90.0002 88.6406 90.0002ZM88.6179 87.6025C88.8868 87.6025 89.1141 87.5409 89.2997 87.4178C89.4853 87.2947 89.6264 87.1176 89.723 86.8866C89.8196 86.6555 89.8679 86.379 89.8679 86.057C89.8679 85.7426 89.8205 85.4652 89.7259 85.2247C89.6312 84.9841 89.491 84.7957 89.3054 84.6593C89.1198 84.5229 88.8906 84.4548 88.6179 84.4548C88.3338 84.4548 88.0971 84.5267 87.9077 84.6707C87.7202 84.8146 87.5791 85.0078 87.4844 85.2502C87.3916 85.4926 87.3452 85.7616 87.3452 86.057C87.3452 86.3601 87.3925 86.6281 87.4872 86.861C87.5838 87.0921 87.7259 87.2739 87.9134 87.4065C88.1027 87.5372 88.3376 87.6025 88.6179 87.6025Z" fill="black"/>
<rect x="0.5" y="80.7729" width="18" height="14" fill="white" stroke="black"/>
<path d="M26.3864 107.08V106.455H30.75V107.08H28.9205V112.273H28.2159V107.08H26.3864ZM32.9432 112.364C32.5227 112.364 32.16 112.271 31.8551 112.085C31.5521 111.898 31.3182 111.637 31.1534 111.301C30.9905 110.964 30.9091 110.572 30.9091 110.125C30.9091 109.678 30.9905 109.284 31.1534 108.943C31.3182 108.601 31.5473 108.334 31.8409 108.142C32.1364 107.949 32.4811 107.852 32.875 107.852C33.1023 107.852 33.3267 107.89 33.5483 107.966C33.7699 108.042 33.9716 108.165 34.1534 108.335C34.3352 108.504 34.4801 108.727 34.5881 109.006C34.696 109.284 34.75 109.627 34.75 110.034V110.318H31.3864V109.739H34.0682C34.0682 109.493 34.0189 109.273 33.9205 109.08C33.8239 108.887 33.6856 108.734 33.5057 108.622C33.3277 108.511 33.1174 108.455 32.875 108.455C32.608 108.455 32.3769 108.521 32.1818 108.654C31.9886 108.784 31.84 108.955 31.7358 109.165C31.6316 109.375 31.5795 109.601 31.5795 109.841V110.227C31.5795 110.557 31.6364 110.836 31.75 111.066C31.8655 111.293 32.0256 111.466 32.2301 111.585C32.4347 111.703 32.6723 111.762 32.9432 111.762C33.1193 111.762 33.2784 111.737 33.4205 111.688C33.5644 111.637 33.6884 111.561 33.7926 111.46C33.8968 111.358 33.9773 111.231 34.0341 111.08L34.6818 111.262C34.6136 111.481 34.4991 111.674 34.3381 111.841C34.1771 112.006 33.9782 112.135 33.7415 112.227C33.5047 112.318 33.2386 112.364 32.9432 112.364ZM35.7699 112.273V107.909H36.4176V108.591H36.4744C36.5653 108.358 36.7121 108.177 36.9148 108.049C37.1174 107.918 37.3608 107.852 37.6449 107.852C37.9328 107.852 38.1723 107.918 38.3636 108.049C38.5568 108.177 38.7074 108.358 38.8153 108.591H38.8608C38.9725 108.366 39.1402 108.187 39.3636 108.054C39.5871 107.92 39.8551 107.852 40.1676 107.852C40.5578 107.852 40.8769 107.975 41.125 108.219C41.3731 108.461 41.4972 108.839 41.4972 109.352V112.273H40.8267V109.352C40.8267 109.031 40.7386 108.8 40.5625 108.662C40.3864 108.524 40.179 108.455 39.9403 108.455C39.6335 108.455 39.3958 108.548 39.2273 108.733C39.0587 108.917 38.9744 109.15 38.9744 109.432V112.273H38.2926V109.284C38.2926 109.036 38.2121 108.836 38.0511 108.685C37.8902 108.531 37.6828 108.455 37.429 108.455C37.2547 108.455 37.0919 108.501 36.9403 108.594C36.7907 108.687 36.6695 108.816 36.5767 108.98C36.4858 109.143 36.4403 109.332 36.4403 109.546V112.273H35.7699ZM42.723 113.909V107.909H43.3707V108.602H43.4503C43.4995 108.527 43.5677 108.43 43.6548 108.313C43.7438 108.193 43.8707 108.087 44.0355 107.995C44.2022 107.9 44.4276 107.852 44.7116 107.852C45.0791 107.852 45.4029 107.944 45.6832 108.128C45.9635 108.312 46.1823 108.572 46.3395 108.909C46.4967 109.246 46.5753 109.644 46.5753 110.102C46.5753 110.565 46.4967 110.965 46.3395 111.304C46.1823 111.641 45.9645 111.903 45.6861 112.088C45.4077 112.272 45.0866 112.364 44.723 112.364C44.4427 112.364 44.2183 112.317 44.0497 112.225C43.8812 112.13 43.7514 112.023 43.6605 111.904C43.5696 111.782 43.4995 111.682 43.4503 111.602H43.3935V113.909H42.723ZM43.3821 110.091C43.3821 110.421 43.4304 110.711 43.527 110.963C43.6236 111.213 43.7647 111.409 43.9503 111.551C44.1359 111.692 44.3632 111.762 44.6321 111.762C44.9124 111.762 45.1463 111.688 45.3338 111.54C45.5232 111.39 45.6652 111.19 45.7599 110.938C45.8565 110.684 45.9048 110.402 45.9048 110.091C45.9048 109.784 45.8575 109.508 45.7628 109.262C45.67 109.013 45.5289 108.817 45.3395 108.674C45.152 108.528 44.9162 108.455 44.6321 108.455C44.3594 108.455 44.1302 108.524 43.9446 108.662C43.759 108.799 43.6188 108.99 43.5241 109.236C43.4295 109.48 43.3821 109.765 43.3821 110.091ZM49.3707 112.364C48.9768 112.364 48.6312 112.27 48.3338 112.083C48.0384 111.895 47.8073 111.633 47.6406 111.296C47.4759 110.959 47.3935 110.565 47.3935 110.114C47.3935 109.659 47.4759 109.263 47.6406 108.924C47.8073 108.585 48.0384 108.321 48.3338 108.134C48.6312 107.946 48.9768 107.852 49.3707 107.852C49.7647 107.852 50.1094 107.946 50.4048 108.134C50.7022 108.321 50.9332 108.585 51.098 108.924C51.2647 109.263 51.348 109.659 51.348 110.114C51.348 110.565 51.2647 110.959 51.098 111.296C50.9332 111.633 50.7022 111.895 50.4048 112.083C50.1094 112.27 49.7647 112.364 49.3707 112.364ZM49.3707 111.762C49.67 111.762 49.9162 111.685 50.1094 111.531C50.3026 111.378 50.4455 111.176 50.5384 110.926C50.6312 110.676 50.6776 110.406 50.6776 110.114C50.6776 109.822 50.6312 109.55 50.5384 109.299C50.4455 109.047 50.3026 108.843 50.1094 108.688C49.9162 108.532 49.67 108.455 49.3707 108.455C49.0715 108.455 48.8253 108.532 48.6321 108.688C48.4389 108.843 48.2959 109.047 48.2031 109.299C48.1103 109.55 48.0639 109.822 48.0639 110.114C48.0639 110.406 48.1103 110.676 48.2031 110.926C48.2959 111.176 48.4389 111.378 48.6321 111.531C48.8253 111.685 49.0715 111.762 49.3707 111.762ZM52.3714 112.273V107.909H53.0192V108.568H53.0646C53.1442 108.352 53.2881 108.177 53.4964 108.043C53.7048 107.908 53.9396 107.841 54.201 107.841C54.2502 107.841 54.3118 107.842 54.3857 107.844C54.4595 107.846 54.5154 107.849 54.5533 107.852V108.534C54.5305 108.529 54.4785 108.52 54.397 108.509C54.3175 108.495 54.2332 108.489 54.1442 108.489C53.9321 108.489 53.7427 108.533 53.576 108.622C53.4112 108.71 53.2805 108.831 53.1839 108.986C53.0893 109.139 53.0419 109.315 53.0419 109.512V112.273H52.3714ZM56.6321 112.375C56.3556 112.375 56.1046 112.323 55.8793 112.219C55.6539 112.113 55.4749 111.96 55.3423 111.762C55.2098 111.561 55.1435 111.318 55.1435 111.034C55.1435 110.784 55.1927 110.582 55.2912 110.426C55.3897 110.269 55.5213 110.146 55.6861 110.057C55.8509 109.968 56.0327 109.902 56.2315 109.858C56.4323 109.813 56.634 109.777 56.8366 109.75C57.1018 109.716 57.3168 109.691 57.4815 109.674C57.6482 109.655 57.7694 109.623 57.8452 109.58C57.9228 109.536 57.9616 109.46 57.9616 109.352V109.33C57.9616 109.049 57.8849 108.832 57.7315 108.676C57.58 108.521 57.3499 108.443 57.0412 108.443C56.7211 108.443 56.4702 108.513 56.2884 108.654C56.1065 108.794 55.9787 108.943 55.9048 109.102L55.2685 108.875C55.3821 108.61 55.5336 108.404 55.723 108.256C55.9143 108.106 56.1226 108.002 56.348 107.943C56.5753 107.883 56.7988 107.852 57.0185 107.852C57.1586 107.852 57.3196 107.87 57.5014 107.904C57.6851 107.936 57.8622 108.003 58.0327 108.105C58.205 108.208 58.348 108.362 58.4616 108.568C58.5753 108.775 58.6321 109.051 58.6321 109.398V112.273H57.9616V111.682H57.9276C57.8821 111.777 57.8063 111.878 57.7003 111.986C57.5942 112.094 57.4531 112.186 57.277 112.262C57.1009 112.337 56.8859 112.375 56.6321 112.375ZM56.7344 111.773C56.9995 111.773 57.223 111.721 57.4048 111.617C57.5885 111.513 57.7268 111.378 57.8196 111.213C57.9143 111.049 57.9616 110.875 57.9616 110.693V110.08C57.9332 110.114 57.8707 110.145 57.7741 110.174C57.6795 110.2 57.5696 110.224 57.4446 110.245C57.3215 110.263 57.2012 110.281 57.0838 110.296C56.9683 110.309 56.8745 110.32 56.8026 110.33C56.6283 110.352 56.4654 110.389 56.3139 110.441C56.1643 110.49 56.0431 110.565 55.9503 110.665C55.8594 110.763 55.8139 110.898 55.8139 111.068C55.8139 111.301 55.9001 111.477 56.0724 111.597C56.2467 111.714 56.4673 111.773 56.7344 111.773ZM59.8558 112.273V107.909H60.5036V108.568H60.549C60.6286 108.352 60.7725 108.177 60.9808 108.043C61.1892 107.908 61.424 107.841 61.6854 107.841C61.7346 107.841 61.7962 107.842 61.87 107.844C61.9439 107.846 61.9998 107.849 62.0376 107.852V108.534C62.0149 108.529 61.9628 108.52 61.8814 108.509C61.8018 108.495 61.7176 108.489 61.6286 108.489C61.4164 108.489 61.227 108.533 61.0604 108.622C60.8956 108.71 60.7649 108.831 60.6683 108.986C60.5736 109.139 60.5263 109.315 60.5263 109.512V112.273H59.8558ZM63.397 113.909C63.2834 113.909 63.1821 113.9 63.093 113.881C63.004 113.864 62.9425 113.847 62.9084 113.83L63.0788 113.239C63.2417 113.281 63.3857 113.296 63.5107 113.284C63.6357 113.273 63.7464 113.217 63.843 113.117C63.9415 113.018 64.0315 112.858 64.1129 112.637L64.2379 112.296L62.6243 107.909H63.3516L64.5561 111.387H64.6016L65.8061 107.909H66.5334L64.6811 112.909C64.5978 113.135 64.4946 113.321 64.3714 113.469C64.2483 113.619 64.1054 113.729 63.9425 113.801C63.7815 113.873 63.5997 113.909 63.397 113.909ZM69.7592 112.273V106.455H73.2479V107.08H70.4638V109.046H72.9865V109.671H70.4638V112.273H69.7592ZM74.3636 112.273V107.909H75.0341V112.273H74.3636ZM74.7045 107.182C74.5739 107.182 74.4612 107.138 74.3665 107.049C74.2737 106.96 74.2273 106.852 74.2273 106.727C74.2273 106.602 74.2737 106.495 74.3665 106.406C74.4612 106.317 74.5739 106.273 74.7045 106.273C74.8352 106.273 74.947 106.317 75.0398 106.406C75.1345 106.495 75.1818 106.602 75.1818 106.727C75.1818 106.852 75.1345 106.96 75.0398 107.049C74.947 107.138 74.8352 107.182 74.7045 107.182ZM76.9325 106.455V112.273H76.2621V106.455H76.9325ZM78.831 106.455V112.273H78.1605V106.455H78.831ZM80.0589 112.273V107.909H80.7294V112.273H80.0589ZM80.3999 107.182C80.2692 107.182 80.1565 107.138 80.0618 107.049C79.969 106.96 79.9226 106.852 79.9226 106.727C79.9226 106.602 79.969 106.495 80.0618 106.406C80.1565 106.317 80.2692 106.273 80.3999 106.273C80.5305 106.273 80.6423 106.317 80.7351 106.406C80.8298 106.495 80.8771 106.602 80.8771 106.727C80.8771 106.852 80.8298 106.96 80.7351 107.049C80.6423 107.138 80.5305 107.182 80.3999 107.182ZM82.6278 109.648V112.273H81.9574V107.909H82.6051V108.591H82.6619C82.7642 108.37 82.9195 108.192 83.1278 108.057C83.3362 107.921 83.6051 107.852 83.9347 107.852C84.2301 107.852 84.4886 107.913 84.7102 108.034C84.9318 108.154 85.1042 108.335 85.2273 108.58C85.3504 108.822 85.4119 109.129 85.4119 109.5V112.273H84.7415V109.546C84.7415 109.203 84.6525 108.936 84.4744 108.745C84.2964 108.551 84.0521 108.455 83.7415 108.455C83.5275 108.455 83.3362 108.501 83.1676 108.594C83.0009 108.687 82.8693 108.822 82.7727 109C82.6761 109.178 82.6278 109.394 82.6278 109.648ZM88.3984 114C88.0746 114 87.7962 113.959 87.5632 113.875C87.3303 113.794 87.1361 113.686 86.9808 113.551C86.8274 113.419 86.7053 113.277 86.6143 113.125L87.1484 112.75C87.209 112.83 87.2857 112.921 87.3786 113.023C87.4714 113.127 87.5982 113.217 87.7592 113.293C87.9221 113.37 88.1352 113.409 88.3984 113.409C88.7507 113.409 89.0414 113.324 89.2706 113.154C89.4998 112.983 89.6143 112.716 89.6143 112.352V111.466H89.5575C89.5083 111.546 89.4382 111.644 89.3473 111.762C89.2583 111.877 89.1295 111.98 88.9609 112.071C88.7943 112.16 88.5689 112.205 88.2848 112.205C87.9325 112.205 87.6162 112.121 87.3359 111.955C87.0575 111.788 86.8369 111.546 86.674 111.227C86.513 110.909 86.4325 110.523 86.4325 110.068C86.4325 109.621 86.5111 109.232 86.6683 108.901C86.8255 108.567 87.0443 108.31 87.3246 108.128C87.6049 107.944 87.9287 107.852 88.2962 107.852C88.5803 107.852 88.8056 107.9 88.9723 107.995C89.1409 108.087 89.2696 108.193 89.3587 108.313C89.4496 108.43 89.5196 108.527 89.5689 108.602H89.6371V107.909H90.2848V112.398C90.2848 112.773 90.1996 113.078 90.0291 113.313C89.8606 113.549 89.6333 113.723 89.3473 113.833C89.0632 113.944 88.7469 114 88.3984 114ZM88.3757 111.602C88.6446 111.602 88.8719 111.541 89.0575 111.418C89.2431 111.295 89.3842 111.118 89.4808 110.887C89.5774 110.656 89.6257 110.379 89.6257 110.057C89.6257 109.743 89.5784 109.465 89.4837 109.225C89.389 108.984 89.2488 108.796 89.0632 108.659C88.8776 108.523 88.6484 108.455 88.3757 108.455C88.0916 108.455 87.8549 108.527 87.6655 108.671C87.478 108.815 87.3369 109.008 87.2422 109.25C87.1494 109.493 87.103 109.762 87.103 110.057C87.103 110.36 87.1503 110.628 87.245 110.861C87.3416 111.092 87.4837 111.274 87.6712 111.406C87.8606 111.537 88.0954 111.602 88.3757 111.602Z" fill="black"/>
<rect x="0.5" y="103.773" width="18" height="14" fill="white" stroke="black"/>
<path d="M112.017 47.6366C112.017 48.4036 111.879 49.0665 111.602 49.6252C111.325 50.1839 110.945 50.6148 110.462 50.9178C109.979 51.2209 109.427 51.3724 108.807 51.3724C108.187 51.3724 107.635 51.2209 107.152 50.9178C106.669 50.6148 106.289 50.1839 106.012 49.6252C105.735 49.0665 105.597 48.4036 105.597 47.6366C105.597 46.8695 105.735 46.2067 106.012 45.6479C106.289 45.0892 106.669 44.6584 107.152 44.3553C107.635 44.0523 108.187 43.9008 108.807 43.9008C109.427 43.9008 109.979 44.0523 110.462 44.3553C110.945 44.6584 111.325 45.0892 111.602 45.6479C111.879 46.2067 112.017 46.8695 112.017 47.6366ZM111.165 47.6366C111.165 47.0069 111.059 46.4754 110.849 46.0421C110.64 45.6089 110.357 45.281 110 45.0585C109.645 44.8359 109.247 44.7247 108.807 44.7247C108.366 44.7247 107.968 44.8359 107.61 45.0585C107.255 45.281 106.972 45.6089 106.761 46.0421C106.553 46.4754 106.449 47.0069 106.449 47.6366C106.449 48.2663 106.553 48.7978 106.761 49.231C106.972 49.6643 107.255 49.9922 107.61 50.2147C107.968 50.4372 108.366 50.5485 108.807 50.5485C109.247 50.5485 109.645 50.4372 110 50.2147C110.357 49.9922 110.64 49.6643 110.849 49.231C111.059 48.7978 111.165 48.2663 111.165 47.6366ZM115.756 45.8184V46.5286H112.93V45.8184H115.756ZM113.754 44.5116H114.592V49.7104C114.592 49.9472 114.626 50.1247 114.695 50.2431C114.766 50.3591 114.856 50.4372 114.964 50.4775C115.076 50.5154 115.193 50.5343 115.316 50.5343C115.408 50.5343 115.484 50.5296 115.543 50.5201C115.603 50.5083 115.65 50.4988 115.685 50.4917L115.856 51.2445C115.799 51.2658 115.72 51.2872 115.618 51.3085C115.516 51.3321 115.387 51.344 115.231 51.344C114.994 51.344 114.762 51.2931 114.535 51.1913C114.31 51.0895 114.123 50.9344 113.974 50.7261C113.827 50.5177 113.754 50.255 113.754 49.9377V44.5116ZM117.972 47.9917V51.2729H117.134V44.0002H117.972V46.6707H118.043C118.171 46.389 118.363 46.1652 118.619 45.9995C118.877 45.8314 119.22 45.7474 119.648 45.7474C120.02 45.7474 120.346 45.822 120.625 45.9711C120.904 46.1179 121.121 46.344 121.275 46.6494C121.431 46.9524 121.509 47.3383 121.509 47.807V51.2729H120.671V47.8639C120.671 47.4306 120.559 47.0956 120.334 46.8589C120.111 46.6198 119.802 46.5002 119.407 46.5002C119.132 46.5002 118.886 46.5582 118.668 46.6742C118.453 46.7902 118.282 46.9595 118.157 47.182C118.034 47.4046 117.972 47.6745 117.972 47.9917ZM125.329 51.3866C124.804 51.3866 124.35 51.2706 123.969 51.0386C123.59 50.8042 123.298 50.4775 123.092 50.0585C122.889 49.6371 122.787 49.147 122.787 48.5883C122.787 48.0296 122.889 47.5372 123.092 47.111C123.298 46.6825 123.585 46.3487 123.952 46.1096C124.321 45.8681 124.752 45.7474 125.244 45.7474C125.528 45.7474 125.809 45.7947 126.086 45.8894C126.363 45.9841 126.615 46.138 126.842 46.3511C127.069 46.5618 127.251 46.8411 127.385 47.1891C127.52 47.5372 127.588 47.9657 127.588 48.4747V48.8298H123.383V48.1053H126.736C126.736 47.7976 126.674 47.5229 126.551 47.2815C126.43 47.04 126.257 46.8494 126.032 46.7097C125.81 46.5701 125.547 46.5002 125.244 46.5002C124.91 46.5002 124.622 46.5831 124.378 46.7488C124.136 46.9122 123.95 47.1252 123.82 47.388C123.69 47.6508 123.625 47.9325 123.625 48.2332V48.7161C123.625 49.1281 123.696 49.4773 123.838 49.7637C123.982 50.0478 124.182 50.2644 124.438 50.4136C124.694 50.5604 124.991 50.6337 125.329 50.6337C125.55 50.6337 125.748 50.603 125.926 50.5414C126.106 50.4775 126.261 50.3828 126.391 50.2573C126.521 50.1295 126.622 49.9709 126.693 49.7815L127.503 50.0087C127.417 50.2834 127.274 50.5248 127.073 50.7332C126.872 50.9391 126.623 51.1001 126.327 51.2161C126.031 51.3298 125.699 51.3866 125.329 51.3866ZM128.863 51.2729V45.8184H129.672V46.6423H129.729C129.829 46.3724 130.009 46.1534 130.269 45.9853C130.529 45.8172 130.823 45.7332 131.15 45.7332C131.211 45.7332 131.288 45.7344 131.381 45.7367C131.473 45.7391 131.543 45.7426 131.59 45.7474V46.5997C131.562 46.5926 131.497 46.5819 131.395 46.5677C131.295 46.5511 131.19 46.5428 131.079 46.5428C130.814 46.5428 130.577 46.5985 130.368 46.7097C130.162 46.8186 129.999 46.9702 129.878 47.1643C129.76 47.356 129.701 47.575 129.701 47.8212V51.2729H128.863ZM136.447 47.04L135.694 47.2531C135.647 47.1276 135.577 47.0057 135.485 46.8873C135.395 46.7666 135.272 46.6671 135.115 46.589C134.959 46.5109 134.759 46.4718 134.515 46.4718C134.181 46.4718 133.903 46.5488 133.681 46.7026C133.461 46.8542 133.35 47.0471 133.35 47.2815C133.35 47.4898 133.426 47.6543 133.578 47.7751C133.729 47.8958 133.966 47.9964 134.288 48.0769L135.098 48.2758C135.585 48.3942 135.949 48.5753 136.188 48.8191C136.427 49.0606 136.547 49.3719 136.547 49.7531C136.547 50.0656 136.457 50.3449 136.277 50.5911C136.099 50.8373 135.85 51.0315 135.531 51.1735C135.211 51.3156 134.84 51.3866 134.416 51.3866C133.859 51.3866 133.399 51.2658 133.034 51.0244C132.67 50.7829 132.439 50.4301 132.342 49.9661L133.137 49.7673C133.213 50.0608 133.356 50.281 133.567 50.4278C133.78 50.5746 134.058 50.6479 134.402 50.6479C134.792 50.6479 135.102 50.5651 135.332 50.3994C135.564 50.2313 135.68 50.0301 135.68 49.7957C135.68 49.6063 135.614 49.4477 135.481 49.3198C135.349 49.1896 135.145 49.0926 134.87 49.0286L133.961 48.8156C133.462 48.6972 133.095 48.5137 132.86 48.2651C132.628 48.0142 132.512 47.7005 132.512 47.3241C132.512 47.0163 132.599 46.7441 132.772 46.5073C132.947 46.2706 133.185 46.0847 133.485 45.9498C133.788 45.8149 134.132 45.7474 134.515 45.7474C135.055 45.7474 135.479 45.8658 135.787 46.1025C136.097 46.3392 136.317 46.6517 136.447 47.04Z" fill="black"/>
<rect x="79.5" y="41.7729" width="18" height="14" fill="white" stroke="black"/>
<path d="M105.881 30.2729V23.0002H110.27V23.7815H106.761V26.2389H110.043V27.0201H106.761V29.4917H110.327V30.2729H105.881ZM112.369 24.8184L113.675 27.0485L114.982 24.8184H115.948L114.187 27.5457L115.948 30.2729H114.982L113.675 28.1565L112.369 30.2729H111.403L113.136 27.5457L111.403 24.8184H112.369ZM119.516 24.8184V25.5286H116.689V24.8184H119.516ZM117.513 23.5116H118.351V28.7104C118.351 28.9472 118.386 29.1247 118.454 29.2431C118.525 29.3591 118.615 29.4372 118.724 29.4775C118.836 29.5154 118.953 29.5343 119.076 29.5343C119.168 29.5343 119.244 29.5296 119.303 29.5201C119.362 29.5083 119.41 29.4988 119.445 29.4917L119.616 30.2445C119.559 30.2658 119.479 30.2872 119.378 30.3085C119.276 30.3321 119.147 30.344 118.991 30.344C118.754 30.344 118.522 30.2931 118.295 30.1913C118.07 30.0895 117.883 29.9344 117.733 29.7261C117.587 29.5177 117.513 29.255 117.513 28.9377V23.5116ZM120.777 30.2729V24.8184H121.586V25.6423H121.643C121.743 25.3724 121.923 25.1534 122.183 24.9853C122.443 24.8172 122.737 24.7332 123.064 24.7332C123.125 24.7332 123.202 24.7344 123.295 24.7367C123.387 24.7391 123.457 24.7426 123.504 24.7474V25.5997C123.476 25.5926 123.411 25.5819 123.309 25.5677C123.209 25.5511 123.104 25.5428 122.993 25.5428C122.728 25.5428 122.491 25.5985 122.282 25.7097C122.077 25.8186 121.913 25.9702 121.792 26.1643C121.674 26.356 121.615 26.575 121.615 26.8212V30.2729H120.777ZM126.103 30.4008C125.757 30.4008 125.443 30.3357 125.162 30.2055C124.88 30.0729 124.656 29.8823 124.49 29.6337C124.325 29.3828 124.242 29.0798 124.242 28.7247C124.242 28.4122 124.303 28.1588 124.426 27.9647C124.55 27.7682 124.714 27.6143 124.92 27.5031C125.126 27.3918 125.353 27.3089 125.602 27.2545C125.853 27.1977 126.105 27.1527 126.358 27.1195C126.69 27.0769 126.958 27.045 127.164 27.0237C127.373 27 127.524 26.9609 127.619 26.9065C127.716 26.852 127.765 26.7573 127.765 26.6224V26.594C127.765 26.2436 127.669 25.9713 127.477 25.7772C127.288 25.5831 127 25.486 126.614 25.486C126.214 25.486 125.9 25.5736 125.673 25.7488C125.446 25.924 125.286 26.111 125.194 26.3099L124.398 26.0258C124.54 25.6944 124.73 25.4363 124.966 25.2516C125.205 25.0646 125.466 24.9344 125.748 24.861C126.032 24.7853 126.311 24.7474 126.586 24.7474C126.761 24.7474 126.962 24.7687 127.189 24.8113C127.419 24.8515 127.64 24.9356 127.853 25.0634C128.069 25.1913 128.248 25.3842 128.39 25.6423C128.532 25.9003 128.603 26.246 128.603 26.6792V30.2729H127.765V29.5343H127.722C127.665 29.6527 127.57 29.7793 127.438 29.9143C127.305 30.0492 127.129 30.164 126.909 30.2587C126.689 30.3534 126.42 30.4008 126.103 30.4008ZM126.23 29.6479C126.562 29.6479 126.841 29.5828 127.069 29.4526C127.298 29.3224 127.471 29.1543 127.587 28.9484C127.705 28.7424 127.765 28.5258 127.765 28.2985V27.5315C127.729 27.5741 127.651 27.6131 127.53 27.6487C127.412 27.6818 127.275 27.7114 127.118 27.7374C126.964 27.7611 126.814 27.7824 126.667 27.8014C126.523 27.8179 126.406 27.8321 126.316 27.844C126.098 27.8724 125.894 27.9185 125.705 27.9825C125.518 28.044 125.366 28.1375 125.25 28.263C125.137 28.3861 125.08 28.5542 125.08 28.7673C125.08 29.0585 125.188 29.2786 125.403 29.4278C125.621 29.5746 125.897 29.6479 126.23 29.6479ZM132.348 30.3866C131.837 30.3866 131.396 30.2658 131.027 30.0244C130.658 29.7829 130.374 29.4503 130.175 29.0265C129.976 28.6027 129.877 28.1186 129.877 27.5741C129.877 27.0201 129.978 26.5312 130.182 26.1075C130.388 25.6813 130.674 25.3487 131.041 25.1096C131.411 24.8681 131.842 24.7474 132.334 24.7474C132.718 24.7474 133.063 24.8184 133.371 24.9604C133.679 25.1025 133.931 25.3014 134.127 25.557C134.324 25.8127 134.446 26.111 134.493 26.4519H133.655C133.591 26.2033 133.449 25.9832 133.229 25.7914C133.011 25.5973 132.718 25.5002 132.348 25.5002C132.021 25.5002 131.735 25.5854 131.489 25.7559C131.245 25.924 131.054 26.1619 130.917 26.4697C130.782 26.7751 130.715 27.1337 130.715 27.5457C130.715 27.9671 130.781 28.334 130.914 28.6465C131.048 28.959 131.238 29.2017 131.482 29.3745C131.728 29.5473 132.017 29.6337 132.348 29.6337C132.566 29.6337 132.764 29.5959 132.941 29.5201C133.119 29.4444 133.269 29.3354 133.392 29.1934C133.515 29.0514 133.603 28.8809 133.655 28.682H134.493C134.446 29.004 134.329 29.294 134.142 29.5521C133.957 29.8078 133.712 30.0113 133.406 30.1629C133.103 30.312 132.751 30.3866 132.348 30.3866ZM138.09 24.8184V25.5286H135.264V24.8184H138.09ZM136.088 23.5116H136.926V28.7104C136.926 28.9472 136.96 29.1247 137.029 29.2431C137.1 29.3591 137.19 29.4372 137.298 29.4775C137.41 29.5154 137.527 29.5343 137.65 29.5343C137.742 29.5343 137.818 29.5296 137.877 29.5201C137.936 29.5083 137.984 29.4988 138.019 29.4917L138.19 30.2445C138.133 30.2658 138.054 30.2872 137.952 30.3085C137.85 30.3321 137.721 30.344 137.565 30.344C137.328 30.344 137.096 30.2931 136.869 30.1913C136.644 30.0895 136.457 29.9344 136.308 29.7261C136.161 29.5177 136.088 29.255 136.088 28.9377V23.5116ZM139.351 30.2729V24.8184H140.189V30.2729H139.351ZM139.777 23.9093C139.614 23.9093 139.473 23.8537 139.355 23.7424C139.239 23.6311 139.181 23.4974 139.181 23.3411C139.181 23.1849 139.239 23.0511 139.355 22.9399C139.473 22.8286 139.614 22.7729 139.777 22.7729C139.941 22.7729 140.08 22.8286 140.196 22.9399C140.315 23.0511 140.374 23.1849 140.374 23.3411C140.374 23.4974 140.315 23.6311 140.196 23.7424C140.08 23.8537 139.941 23.9093 139.777 23.9093ZM143.94 30.3866C143.448 30.3866 143.016 30.2694 142.644 30.035C142.275 29.8006 141.986 29.4728 141.777 29.0514C141.571 28.63 141.468 28.1375 141.468 27.5741C141.468 27.0059 141.571 26.5099 141.777 26.0862C141.986 25.6624 142.275 25.3333 142.644 25.0989C143.016 24.8646 143.448 24.7474 143.94 24.7474C144.432 24.7474 144.863 24.8646 145.233 25.0989C145.604 25.3333 145.893 25.6624 146.099 26.0862C146.307 26.5099 146.412 27.0059 146.412 27.5741C146.412 28.1375 146.307 28.63 146.099 29.0514C145.893 29.4728 145.604 29.8006 145.233 30.035C144.863 30.2694 144.432 30.3866 143.94 30.3866ZM143.94 29.6337C144.314 29.6337 144.622 29.5379 144.863 29.3461C145.105 29.1543 145.283 28.9022 145.4 28.5897C145.516 28.2772 145.574 27.9387 145.574 27.5741C145.574 27.2095 145.516 26.8698 145.4 26.5549C145.283 26.24 145.105 25.9855 144.863 25.7914C144.622 25.5973 144.314 25.5002 143.94 25.5002C143.566 25.5002 143.258 25.5973 143.017 25.7914C142.775 25.9855 142.596 26.24 142.48 26.5549C142.364 26.8698 142.306 27.2095 142.306 27.5741C142.306 27.9387 142.364 28.2772 142.48 28.5897C142.596 28.9022 142.775 29.1543 143.017 29.3461C143.258 29.5379 143.566 29.6337 143.94 29.6337ZM148.529 26.9917V30.2729H147.691V24.8184H148.501V25.6707H148.572C148.699 25.3937 148.894 25.1712 149.154 25.0031C149.414 24.8326 149.751 24.7474 150.162 24.7474C150.532 24.7474 150.855 24.8231 151.132 24.9747C151.409 25.1238 151.624 25.3511 151.778 25.6565C151.932 25.9595 152.009 26.343 152.009 26.807V30.2729H151.171V26.8639C151.171 26.4354 151.06 26.1015 150.837 25.8624C150.615 25.621 150.309 25.5002 149.921 25.5002C149.653 25.5002 149.414 25.5582 149.204 25.6742C148.995 25.7902 148.831 25.9595 148.71 26.182C148.589 26.4046 148.529 26.6745 148.529 26.9917Z" fill="black"/>
<rect x="79.5" y="20.7729" width="18" height="14" fill="white" stroke="black"/>
<path d="M0.880682 72.2729V65.0002H3.33807C3.90862 65.0002 4.375 65.1032 4.73722 65.3092C5.1018 65.5128 5.37169 65.7886 5.54688 66.1366C5.72206 66.4846 5.80966 66.8729 5.80966 67.3014C5.80966 67.7299 5.72206 68.1193 5.54688 68.4697C5.37405 68.8201 5.10653 69.0994 4.74432 69.3078C4.3821 69.5137 3.91809 69.6167 3.35227 69.6167H1.59091V68.8354H3.32386C3.71449 68.8354 4.02817 68.768 4.26491 68.633C4.50166 68.4981 4.6733 68.3158 4.77983 68.0862C4.88873 67.8542 4.94318 67.5926 4.94318 67.3014C4.94318 67.0102 4.88873 66.7497 4.77983 66.5201C4.6733 66.2905 4.50047 66.1105 4.26136 65.9803C4.02225 65.8478 3.70502 65.7815 3.30966 65.7815H1.76136V72.2729H0.880682ZM7.22834 72.2729V65.0002H11.5891V65.7815H8.10902V68.2389H11.2624V69.0201H8.10902V72.2729H7.22834ZM17.0748 66.8184C17.0321 66.4586 16.8593 66.1792 16.5563 65.9803C16.2533 65.7815 15.8816 65.682 15.4412 65.682C15.1193 65.682 14.8375 65.7341 14.5961 65.8383C14.3569 65.9425 14.1699 66.0857 14.035 66.268C13.9024 66.4503 13.8361 66.6574 13.8361 66.8894C13.8361 67.0836 13.8823 67.2505 13.9746 67.3901C14.0693 67.5274 14.19 67.6423 14.3368 67.7346C14.4836 67.8246 14.6375 67.8991 14.7985 67.9583C14.9595 68.0151 15.1074 68.0613 15.2424 68.0968L15.981 68.2957C16.1704 68.3454 16.3811 68.414 16.6131 68.5016C16.8475 68.5892 17.0712 68.7088 17.2843 68.8603C17.4997 69.0095 17.6773 69.2012 17.8169 69.4356C17.9566 69.67 18.0265 69.9576 18.0265 70.2985C18.0265 70.6915 17.9235 71.0466 17.7175 71.3639C17.5139 71.6811 17.2156 71.9332 16.8226 72.1203C16.432 72.3073 15.9573 72.4008 15.3986 72.4008C14.8778 72.4008 14.4268 72.3167 14.0456 72.1487C13.6668 71.9806 13.3685 71.7462 13.1507 71.4455C12.9353 71.1449 12.8134 70.7957 12.785 70.3979H13.6941C13.7177 70.6726 13.8101 70.8998 13.9711 71.0798C14.1344 71.2573 14.3404 71.3899 14.589 71.4775C14.8399 71.5627 15.1098 71.6053 15.3986 71.6053C15.7348 71.6053 16.0366 71.5509 16.3042 71.442C16.5717 71.3307 16.7836 71.1768 16.9398 70.9803C17.0961 70.7815 17.1742 70.5495 17.1742 70.2843C17.1742 70.0428 17.1067 69.8463 16.9718 69.6948C16.8368 69.5433 16.6593 69.4202 16.4391 69.3255C16.2189 69.2308 15.981 69.1479 15.7253 69.0769L14.8304 68.8212C14.2623 68.6579 13.8124 68.4247 13.481 68.1217C13.1496 67.8186 12.9838 67.4221 12.9838 66.932C12.9838 66.5248 13.0939 66.1697 13.3141 65.8667C13.5366 65.5613 13.8349 65.3246 14.209 65.1565C14.5854 64.986 15.0056 64.9008 15.4696 64.9008C15.9384 64.9008 16.3551 64.9848 16.7196 65.1529C17.0842 65.3186 17.373 65.5459 17.5861 65.8347C17.8016 66.1236 17.9152 66.4515 17.927 66.8184H17.0748Z" fill="black"/>
<path d="M4.88068 91.2729V84.0002H7.33807C7.90862 84.0002 8.375 84.1032 8.73722 84.3092C9.1018 84.5128 9.37169 84.7886 9.54688 85.1366C9.72206 85.4846 9.80966 85.8729 9.80966 86.3014C9.80966 86.7299 9.72206 87.1193 9.54688 87.4697C9.37405 87.8201 9.10653 88.0994 8.74432 88.3078C8.3821 88.5137 7.91809 88.6167 7.35227 88.6167H5.59091V87.8354H7.32386C7.71449 87.8354 8.02817 87.768 8.26491 87.633C8.50166 87.4981 8.6733 87.3158 8.77983 87.0862C8.88873 86.8542 8.94318 86.5926 8.94318 86.3014C8.94318 86.0102 8.88873 85.7497 8.77983 85.5201C8.6733 85.2905 8.50047 85.1105 8.26136 84.9803C8.02225 84.8478 7.70502 84.7815 7.30966 84.7815H5.76136V91.2729H4.88068ZM11.2283 91.2729V84.0002H15.5891V84.7815H12.109V87.2389H15.2624V88.0201H12.109V91.2729H11.2283Z" fill="black"/>
<path d="M2.48295 107.781V107H7.9375V107.781H5.65057V114.273H4.76989V107.781H2.48295ZM9.2967 114.273V107H13.6575V107.781H10.1774V110.239H13.3308V111.02H10.1774V114.273H9.2967Z" fill="black"/>
<path d="M86.3068 24.0002L88.1818 27.0258H88.2386L90.1136 24.0002H91.1506L88.8636 27.6366L91.1506 31.2729H90.1136L88.2386 28.3042H88.1818L86.3068 31.2729H85.2699L87.6136 27.6366L85.2699 24.0002H86.3068Z" fill="black"/>
<path d="M92.017 48.6366C92.017 49.4036 91.8786 50.0665 91.6016 50.6252C91.3246 51.1839 90.9446 51.6148 90.4616 51.9178C89.9787 52.2209 89.4271 52.3724 88.8068 52.3724C88.1866 52.3724 87.6349 52.2209 87.152 51.9178C86.669 51.6148 86.2891 51.1839 86.0121 50.6252C85.7351 50.0665 85.5966 49.4036 85.5966 48.6366C85.5966 47.8695 85.7351 47.2067 86.0121 46.6479C86.2891 46.0892 86.669 45.6584 87.152 45.3553C87.6349 45.0523 88.1866 44.9008 88.8068 44.9008C89.4271 44.9008 89.9787 45.0523 90.4616 45.3553C90.9446 45.6584 91.3246 46.0892 91.6016 46.6479C91.8786 47.2067 92.017 47.8695 92.017 48.6366ZM91.1648 48.6366C91.1648 48.0069 91.0594 47.4754 90.8487 47.0421C90.6404 46.6089 90.3575 46.281 90 46.0585C89.6449 45.8359 89.2472 45.7247 88.8068 45.7247C88.3665 45.7247 87.9676 45.8359 87.6101 46.0585C87.255 46.281 86.9721 46.6089 86.7614 47.0421C86.553 47.4754 86.4489 48.0069 86.4489 48.6366C86.4489 49.2663 86.553 49.7978 86.7614 50.231C86.9721 50.6643 87.255 50.9922 87.6101 51.2147C87.9676 51.4372 88.3665 51.5485 88.8068 51.5485C89.2472 51.5485 89.6449 51.4372 90 51.2147C90.3575 50.9922 90.6404 50.6643 90.8487 50.231C91.0594 49.7978 91.1648 49.2663 91.1648 48.6366Z" fill="black"/>
</svg>
